<?xml version="1.0" encoding="UTF-8"?>
<svg width="390px" height="41px" viewBox="0 0 390 41" version="1.1" xmlns="http://www.w3.org/2000/svg" xmlns:xlink="http://www.w3.org/1999/xlink">
    <!-- Generator: Sketch 46.2 (44496) - http://www.bohemiancoding.com/sketch -->
    <title>cloudbase-white-text</title>
    <desc>Created with Sketch.</desc>
    <defs></defs>
    <g id="Page-1" stroke="none" stroke-width="1" fill="none" fill-rule="evenodd">
        <g id="cloudbase-white-text">
            <path d="M186.021,22.324 C186.007,21.9039979 186,21.3160038 186,20.56 C186,19.8039962 186.007,19.2160021 186.021,18.796 C186.077,16.8919905 186.594995,15.4500049 187.575,14.47 C188.555005,13.4899951 189.884992,13 191.565,13 C193.245008,13 194.574995,13.4899951 195.555,14.47 C196.535005,15.4500049 197.053,16.8919905 197.109,18.796 C197.137,19.6360042 197.151,20.2239983 197.151,20.56 C197.151,20.8960017 197.137,21.4839958 197.109,22.324 C197.011,26.1880193 195.163018,28.12 191.565,28.12 C187.966982,28.12 186.119,26.1880193 186.021,22.324 Z M194.5785,25.7155 C195.327504,24.9524962 195.73,23.7870078 195.786,22.219 C195.814,21.3789958 195.828,20.8260013 195.828,20.56 C195.828,20.2939987 195.814,19.7410042 195.786,18.901 C195.73,17.3329922 195.324004,16.1675038 194.568,15.4045 C193.811996,14.6414962 192.811006,14.26 191.565,14.26 C190.318994,14.26 189.318004,14.6414962 188.562,15.4045 C187.805996,16.1675038 187.4,17.3329922 187.344,18.901 C187.33,19.3210021 187.323,19.8739966 187.323,20.56 C187.323,21.2460034 187.33,21.7989979 187.344,22.219 C187.4,23.7870078 187.802496,24.9524962 188.5515,25.7155 C189.300504,26.4785038 190.304994,26.86 191.565,26.86 C192.825006,26.86 193.829496,26.4785038 194.5785,25.7155 Z M199.547333,31.774 C199.463333,31.6899996 199.421333,31.5780007 199.421333,31.438 L199.421333,17.452 C199.421333,17.3119993 199.463333,17.2000004 199.547333,17.116 C199.631334,17.0319996 199.743333,16.99 199.883333,16.99 L200.240333,16.99 C200.380334,16.99 200.492333,17.0319996 200.576333,17.116 C200.660334,17.2000004 200.702333,17.3119993 200.702333,17.452 L200.702333,18.439 C201.514337,17.3329945 202.690326,16.78 204.230333,16.78 C205.742341,16.78 206.85883,17.2594952 207.579833,18.2185 C208.300837,19.1775048 208.682333,20.356993 208.724333,21.757 C208.738333,21.8970007 208.745333,22.1279984 208.745333,22.45 C208.745333,22.7720016 208.738333,23.0029993 208.724333,23.143 C208.682333,24.543007 208.300837,25.7224952 207.579833,26.6815 C206.85883,27.6405048 205.742341,28.12 204.230333,28.12 C202.704326,28.12 201.528338,27.5670055 200.702333,26.461 L200.702333,31.438 C200.702333,31.5780007 200.660334,31.6899996 200.576333,31.774 C200.492333,31.8580004 200.380334,31.9 200.240333,31.9 L199.883333,31.9 C199.743333,31.9 199.631334,31.8580004 199.547333,31.774 Z M206.592833,25.8205 C207.117836,25.0994964 207.401333,24.1720057 207.443333,23.038 C207.457333,22.8979993 207.464333,22.7020013 207.464333,22.45 C207.464333,21.1479935 207.212336,20.0805042 206.708333,19.2475 C206.204331,18.4144958 205.33634,17.998 204.104333,17.998 C202.998328,17.998 202.165336,18.3654963 201.605333,19.1005 C201.045331,19.8355037 200.744334,20.699995 200.702333,21.694 L200.681333,22.513 L200.702333,23.332 C200.716333,23.934003 200.849332,24.5044973 201.101333,25.0435 C201.353335,25.5825027 201.731331,26.0269983 202.235333,26.377 C202.739336,26.7270018 203.36233,26.902 204.104333,26.902 C205.238339,26.902 206.067831,26.5415036 206.592833,25.8205 Z M211.624667,26.8075 C210.812663,25.9324956 210.350667,24.7600074 210.238667,23.29 L210.217667,22.45 L210.238667,21.61 C210.350667,20.1539927 210.809163,18.9850044 211.614167,18.103 C212.419171,17.2209956 213.49366,16.78 214.837667,16.78 C216.293674,16.78 217.431163,17.2629952 218.250167,18.229 C219.069171,19.1950048 219.478667,20.5179916 219.478667,22.198 L219.478667,22.513 C219.478667,22.6530007 219.433167,22.7649996 219.342167,22.849 C219.251166,22.9330004 219.135667,22.975 218.995667,22.975 L211.519667,22.975 L211.519667,23.185 C211.547667,23.8430033 211.698165,24.4554972 211.971167,25.0225 C212.244168,25.5895028 212.625664,26.0444983 213.115667,26.3875 C213.605669,26.7305017 214.179664,26.902 214.837667,26.902 C215.607671,26.902 216.234164,26.7515015 216.717167,26.4505 C217.200169,26.1494985 217.546666,25.8450015 217.756667,25.537 C217.882667,25.3689992 217.977166,25.2640002 218.040167,25.222 C218.103167,25.1799998 218.218666,25.159 218.386667,25.159 L218.722667,25.159 C218.848667,25.159 218.953666,25.1939997 219.037667,25.264 C219.121667,25.3340004 219.163667,25.4249994 219.163667,25.537 C219.163667,25.8310015 218.978169,26.1844979 218.607167,26.5975 C218.236165,27.0105021 217.72167,27.3674985 217.063667,27.6685 C216.405664,27.9695015 215.663671,28.12 214.837667,28.12 C213.50766,28.12 212.436671,27.6825044 211.624667,26.8075 Z M218.197667,21.799 L218.197667,21.715 C218.197667,20.6369946 217.89317,19.7480035 217.284167,19.048 C216.675164,18.3479965 215.859672,17.998 214.837667,17.998 C213.815662,17.998 213.00717,18.3479965 212.412167,19.048 C211.817164,19.7480035 211.519667,20.6369946 211.519667,21.715 L211.519667,21.799 L218.197667,21.799 Z M221.56,27.784 C221.476,27.6999996 221.434,27.5880007 221.434,27.448 L221.434,17.452 C221.434,17.3119993 221.476,17.2000004 221.56,17.116 C221.644001,17.0319996 221.755999,16.99 221.896,16.99 L222.253,16.99 C222.393001,16.99 222.505,17.0319996 222.589,17.116 C222.673001,17.2000004 222.715,17.3119993 222.715,17.452 L222.715,18.439 C223.135002,17.8929973 223.614497,17.4800014 224.1535,17.2 C224.692503,16.9199986 225.388996,16.78 226.243,16.78 C227.615007,16.78 228.671996,17.2174956 229.414,18.0925 C230.156004,18.9675044 230.527,20.0979931 230.527,21.484 L230.527,27.448 C230.527,27.5880007 230.485001,27.6999996 230.401,27.784 C230.317,27.8680004 230.205001,27.91 230.065,27.91 L229.708,27.91 C229.567999,27.91 229.456001,27.8680004 229.372,27.784 C229.288,27.6999996 229.246,27.5880007 229.246,27.448 L229.246,21.589 C229.246,20.4549943 228.969503,19.5730032 228.4165,18.943 C227.863497,18.3129969 227.069005,17.998 226.033,17.998 C225.024995,17.998 224.220003,18.3164968 223.618,18.9535 C223.015997,19.5905032 222.715,20.4689944 222.715,21.589 L222.715,27.448 C222.715,27.5880007 222.673001,27.6999996 222.589,27.784 C222.505,27.8680004 222.393001,27.91 222.253,27.91 L221.896,27.91 C221.755999,27.91 221.644001,27.8680004 221.56,27.784 Z M234.844834,27.5845 C234.03983,27.2274982 233.423836,26.7620029 232.996834,26.188 C232.569831,25.6139971 232.342334,24.9980033 232.314334,24.34 C232.314334,24.2279994 232.356333,24.1300004 232.440334,24.046 C232.524334,23.9619996 232.629333,23.92 232.755334,23.92 L233.175334,23.92 C233.427335,23.92 233.581333,24.0599986 233.637334,24.34 C233.735334,25.0120034 234.12033,25.5999975 234.792334,26.104 C235.464337,26.6080025 236.430327,26.86 237.690334,26.86 C239.02034,26.86 240.01083,26.6185024 240.661834,26.1355 C241.312837,25.6524976 241.638334,24.9770043 241.638334,24.109 C241.638334,23.5769973 241.480835,23.1395017 241.165834,22.7965 C240.850832,22.4534983 240.392337,22.1525013 239.790334,21.8935 C239.188331,21.6344987 238.27834,21.309002 237.060334,20.917 C235.982328,20.5669983 235.138837,20.2240017 234.529834,19.888 C233.920831,19.5519983 233.469335,19.1390025 233.175334,18.649 C232.881332,18.1589976 232.734334,17.5360038 232.734334,16.78 C232.734334,16.0659964 232.926832,15.4220029 233.311834,14.848 C233.696836,14.2739971 234.25333,13.8225016 234.981334,13.4935 C235.709337,13.1644984 236.577329,13 237.585334,13 C238.621339,13 239.51033,13.1854981 240.252334,13.5565 C240.994337,13.9275019 241.554332,14.3964972 241.932334,14.9635 C242.310335,15.5305028 242.513333,16.1009971 242.541334,16.675 C242.541334,16.7870006 242.502834,16.8849996 242.425834,16.969 C242.348833,17.0530004 242.240334,17.095 242.100334,17.095 L241.680334,17.095 C241.582333,17.095 241.484334,17.0635003 241.386334,17.0005 C241.288333,16.9374997 241.232334,16.8290008 241.218334,16.675 C241.134333,15.9749965 240.759837,15.3975023 240.094834,14.9425 C239.42983,14.4874977 238.593339,14.26 237.585334,14.26 C236.507328,14.26 235.649837,14.4699979 235.012834,14.89 C234.37583,15.3100021 234.057334,15.9399958 234.057334,16.78 C234.057334,17.3260027 234.200832,17.7774982 234.487834,18.1345 C234.774835,18.4915018 235.205331,18.7994987 235.779334,19.0585 C236.353336,19.3175013 237.200328,19.6289982 238.320334,19.993 C239.468339,20.3570018 240.36433,20.7069983 241.008334,21.043 C241.652337,21.3790017 242.138832,21.7849976 242.467834,22.261 C242.796835,22.7370024 242.961334,23.3529962 242.961334,24.109 C242.961334,25.3690063 242.492338,26.3524965 241.554334,27.0595 C240.616329,27.7665035 239.328342,28.12 237.690334,28.12 C236.598328,28.12 235.649838,27.9415018 234.844834,27.5845 Z M246.365667,26.9755 C245.931665,26.3524969 245.714667,25.4950055 245.714667,24.403 L245.714667,18.208 L244.076667,18.208 C243.936666,18.208 243.824667,18.1660004 243.740667,18.082 C243.656667,17.9979996 243.614667,17.8860007 243.614667,17.746 L243.614667,17.452 C243.614667,17.3119993 243.656667,17.2000004 243.740667,17.116 C243.824667,17.0319996 243.936666,16.99 244.076667,16.99 L245.714667,16.99 L245.714667,13.462 C245.714667,13.3219993 245.756667,13.2100004 245.840667,13.126 C245.924667,13.0419996 246.036666,13 246.176667,13 L246.533667,13 C246.673668,13 246.785667,13.0419996 246.869667,13.126 C246.953667,13.2100004 246.995667,13.3219993 246.995667,13.462 L246.995667,16.99 L249.599667,16.99 C249.739668,16.99 249.851667,17.0319996 249.935667,17.116 C250.019667,17.2000004 250.061667,17.3119993 250.061667,17.452 L250.061667,17.746 C250.061667,17.8860007 250.019667,17.9979996 249.935667,18.082 C249.851667,18.1660004 249.739668,18.208 249.599667,18.208 L246.995667,18.208 L246.995667,24.319 C246.995667,25.1030039 247.125166,25.694498 247.384167,26.0935 C247.643168,26.492502 248.073664,26.692 248.675667,26.692 L249.809667,26.692 C249.949668,26.692 250.061667,26.7339996 250.145667,26.818 C250.229667,26.9020004 250.271667,27.0139993 250.271667,27.154 L250.271667,27.448 C250.271667,27.5880007 250.229667,27.6999996 250.145667,27.784 C250.061667,27.8680004 249.949668,27.91 249.809667,27.91 L248.570667,27.91 C247.534662,27.91 246.799669,27.5985031 246.365667,26.9755 Z M252.689,27.7 C252.114998,27.4199986 251.656502,27.0420024 251.3135,26.566 C250.970499,26.0899976 250.799,25.5650029 250.799,24.991 C250.799,24.0669954 251.173497,23.3110029 251.9225,22.723 C252.671504,22.1349971 253.682994,21.7570008 254.957,21.589 L258.275,21.127 L258.275,20.392 C258.275,19.6219962 258.040503,19.0305021 257.5715,18.6175 C257.102498,18.2044979 256.385005,17.998 255.419,17.998 C254.704997,17.998 254.120503,18.1379986 253.6655,18.418 C253.210498,18.6980014 252.920001,19.033998 252.794,19.426 C252.738,19.5940008 252.671501,19.7094997 252.5945,19.7725 C252.5175,19.8355003 252.416001,19.867 252.29,19.867 L251.996,19.867 C251.87,19.867 251.761501,19.8215005 251.6705,19.7305 C251.5795,19.6394995 251.534,19.5310006 251.534,19.405 C251.534,19.0969985 251.673999,18.7365021 251.954,18.3235 C252.234002,17.9104979 252.667997,17.5500015 253.256,17.242 C253.844003,16.9339985 254.564996,16.78 255.419,16.78 C256.917008,16.78 257.980997,17.1369964 258.611,17.851 C259.241004,18.5650036 259.556,19.4329949 259.556,20.455 L259.556,27.448 C259.556,27.5880007 259.514001,27.6999996 259.43,27.784 C259.346,27.8680004 259.234001,27.91 259.094,27.91 L258.737,27.91 C258.597,27.91 258.485001,27.8680004 258.401,27.784 C258.317,27.6999996 258.275,27.5880007 258.275,27.448 L258.275,26.461 C257.966999,26.9230023 257.515503,27.3149984 256.9205,27.637 C256.325497,27.9590016 255.538005,28.12 254.558,28.12 C253.885997,28.12 253.263003,27.9800014 252.689,27.7 Z M257.288,25.894 C257.946004,25.2219966 258.275,24.2560063 258.275,22.996 L258.275,22.282 L255.566,22.66 C254.417995,22.8140008 253.550003,23.0799981 252.962,23.458 C252.373997,23.8360019 252.08,24.3119971 252.08,24.886 C252.08,25.5300032 252.349498,26.0269983 252.8885,26.377 C253.427503,26.7270018 254.053997,26.902 254.768,26.902 C255.790005,26.902 256.629997,26.5660034 257.288,25.894 Z M262.813334,26.8495 C262.01533,26.0024958 261.595334,24.8160076 261.553334,23.29 L261.532334,22.45 L261.553334,21.61 C261.595334,20.0839924 262.01533,18.8975042 262.813334,18.0505 C263.611338,17.2034958 264.738326,16.78 266.194334,16.78 C267.118338,16.78 267.905831,16.9444984 268.556834,17.2735 C269.207837,17.6025016 269.694332,18.0224974 270.016334,18.5335 C270.338335,19.0445026 270.513334,19.5729973 270.541334,20.119 C270.555334,20.2450006 270.513334,20.3534995 270.415334,20.4445 C270.317333,20.5355005 270.205334,20.581 270.079334,20.581 L269.785334,20.581 C269.645333,20.581 269.543834,20.5495003 269.480834,20.4865 C269.417833,20.4234997 269.351334,20.3080008 269.281334,20.14 C269.001332,19.3699962 268.609336,18.8205016 268.105334,18.4915 C267.601331,18.1624984 266.964338,17.998 266.194334,17.998 C265.186329,17.998 264.384837,18.302497 263.789834,18.9115 C263.194831,19.520503 262.876334,20.4549937 262.834334,21.715 L262.813334,22.45 L262.834334,23.185 C262.876334,24.4450063 263.194831,25.379497 263.789834,25.9885 C264.384837,26.597503 265.186329,26.902 266.194334,26.902 C266.964338,26.902 267.601331,26.7375016 268.105334,26.4085 C268.609336,26.0794984 269.001332,25.5300039 269.281334,24.76 C269.351334,24.5919992 269.417833,24.4765003 269.480834,24.4135 C269.543834,24.3504997 269.645333,24.319 269.785334,24.319 L270.079334,24.319 C270.205334,24.319 270.317333,24.3644995 270.415334,24.4555 C270.513334,24.5465005 270.555334,24.6549994 270.541334,24.781 C270.513334,25.3270027 270.338335,25.8554974 270.016334,26.3665 C269.694332,26.8775026 269.207837,27.2974984 268.556834,27.6265 C267.905831,27.9555016 267.118338,28.12 266.194334,28.12 C264.738326,28.12 263.611338,27.6965042 262.813334,26.8495 Z M272.643667,27.784 C272.559667,27.6999996 272.517667,27.5880007 272.517667,27.448 L272.517667,13.462 C272.517667,13.3219993 272.559667,13.2100004 272.643667,13.126 C272.727668,13.0419996 272.839666,13 272.979667,13 L273.336667,13 C273.476668,13 273.588667,13.0419996 273.672667,13.126 C273.756668,13.2100004 273.798667,13.3219993 273.798667,13.462 L273.798667,20.896 L278.481667,17.347 C278.705668,17.1789992 278.859667,17.0775002 278.943667,17.0425 C279.027668,17.0074998 279.167666,16.99 279.363667,16.99 L279.762667,16.99 C279.888668,16.99 279.990167,17.0284996 280.067167,17.1055 C280.144168,17.1825004 280.182667,17.2839994 280.182667,17.41 C280.182667,17.5640008 280.091668,17.7039994 279.909667,17.83 L274.596667,21.862 L280.434667,27.07 C280.616668,27.2380008 280.707667,27.3779994 280.707667,27.49 C280.707667,27.6160006 280.669168,27.7174996 280.592167,27.7945 C280.515167,27.8715004 280.413668,27.91 280.287667,27.91 L279.951667,27.91 C279.741666,27.91 279.587668,27.8925002 279.489667,27.8575 C279.391667,27.8224998 279.251668,27.7210008 279.069667,27.553 L273.798667,22.87 L273.798667,27.448 C273.798667,27.5880007 273.756668,27.6999996 273.672667,27.784 C273.588667,27.8680004 273.476668,27.91 273.336667,27.91 L272.979667,27.91 C272.839666,27.91 272.727668,27.8680004 272.643667,27.784 Z M286.655334,27.784 C286.571334,27.6999996 286.529334,27.5880007 286.529334,27.448 L286.529334,13.693 C286.529334,13.5529993 286.571334,13.4375005 286.655334,13.3465 C286.739334,13.2554995 286.851333,13.21 286.991334,13.21 L291.464334,13.21 C292.920341,13.21 294.07183,13.4234979 294.918834,13.8505 C295.765838,14.2775021 296.367832,14.9039959 296.724834,15.73 C297.081836,16.5560041 297.274334,17.6059936 297.302334,18.88 C297.316334,19.3000021 297.323334,19.8529966 297.323334,20.539 C297.323334,21.2390035 297.316334,21.7989979 297.302334,22.219 C297.274334,23.5630067 297.081836,24.6444959 296.724834,25.4635 C296.367832,26.2825041 295.776338,26.894998 294.950334,27.301 C294.12433,27.707002 292.997341,27.91 291.569334,27.91 L286.991334,27.91 C286.851333,27.91 286.739334,27.8680004 286.655334,27.784 Z M291.464334,26.65 C292.58434,26.65 293.466331,26.4995015 294.110334,26.1985 C294.754337,25.8974985 295.219833,25.4215033 295.506834,24.7705 C295.793835,24.1194967 295.951334,23.2340056 295.979334,22.114 C295.993334,21.6939979 296.000334,21.1690032 296.000334,20.539 C296.000334,19.9229969 295.993334,19.4050021 295.979334,18.985 C295.951334,17.4169922 295.583838,16.2725036 294.876834,15.5515 C294.16983,14.8304964 292.997342,14.47 291.359334,14.47 L287.852334,14.47 L287.852334,26.65 L291.464334,26.65 Z M300.727667,27.7 C300.153664,27.4199986 299.695169,27.0420024 299.352167,26.566 C299.009166,26.0899976 298.837667,25.5650029 298.837667,24.991 C298.837667,24.0669954 299.212164,23.3110029 299.961167,22.723 C300.710171,22.1349971 301.721661,21.7570008 302.995667,21.589 L306.313667,21.127 L306.313667,20.392 C306.313667,19.6219962 306.07917,19.0305021 305.610167,18.6175 C305.141165,18.2044979 304.423672,17.998 303.457667,17.998 C302.743664,17.998 302.15917,18.1379986 301.704167,18.418 C301.249165,18.6980014 300.958668,19.033998 300.832667,19.426 C300.776667,19.5940008 300.710168,19.7094997 300.633167,19.7725 C300.556167,19.8355003 300.454668,19.867 300.328667,19.867 L300.034667,19.867 C299.908667,19.867 299.800168,19.8215005 299.709167,19.7305 C299.618167,19.6394995 299.572667,19.5310006 299.572667,19.405 C299.572667,19.0969985 299.712666,18.7365021 299.992667,18.3235 C300.272669,17.9104979 300.706664,17.5500015 301.294667,17.242 C301.88267,16.9339985 302.603663,16.78 303.457667,16.78 C304.955675,16.78 306.019664,17.1369964 306.649667,17.851 C307.279671,18.5650036 307.594667,19.4329949 307.594667,20.455 L307.594667,27.448 C307.594667,27.5880007 307.552668,27.6999996 307.468667,27.784 C307.384667,27.8680004 307.272668,27.91 307.132667,27.91 L306.775667,27.91 C306.635667,27.91 306.523668,27.8680004 306.439667,27.784 C306.355667,27.6999996 306.313667,27.5880007 306.313667,27.448 L306.313667,26.461 C306.005666,26.9230023 305.55417,27.3149984 304.959167,27.637 C304.364164,27.9590016 303.576672,28.12 302.596667,28.12 C301.924664,28.12 301.30167,27.9800014 300.727667,27.7 Z M305.326667,25.894 C305.984671,25.2219966 306.313667,24.2560063 306.313667,22.996 L306.313667,22.282 L303.604667,22.66 C302.456662,22.8140008 301.58867,23.0799981 301.000667,23.458 C300.412664,23.8360019 300.118667,24.3119971 300.118667,24.886 C300.118667,25.5300032 300.388165,26.0269983 300.927167,26.377 C301.46617,26.7270018 302.092664,26.902 302.806667,26.902 C303.828672,26.902 304.668664,26.5660034 305.326667,25.894 Z M311.261501,27.658 C310.638498,27.3499985 310.169502,27.000002 309.854501,26.608 C309.539499,26.215998 309.382001,25.9010012 309.382001,25.663 C309.382001,25.5369994 309.431,25.4355004 309.529001,25.3585 C309.627001,25.2814996 309.732,25.243 309.844001,25.243 L310.159001,25.243 C310.257001,25.243 310.3375,25.2604998 310.400501,25.2955 C310.463501,25.3305002 310.537,25.4039994 310.621001,25.516 C310.929002,25.9500022 311.303499,26.2894988 311.744501,26.5345 C312.185503,26.7795012 312.790997,26.902 313.561001,26.902 C314.429005,26.902 315.128998,26.7375016 315.661001,26.4085 C316.193003,26.0794984 316.459001,25.6070031 316.459001,24.991 C316.459001,24.6129981 316.350502,24.3050012 316.133501,24.067 C315.9165,23.8289988 315.566503,23.6225009 315.083501,23.4475 C314.600498,23.2724991 313.883006,23.0730011 312.931001,22.849 C311.684995,22.5689986 310.834503,22.1840025 310.379501,21.694 C309.924498,21.2039976 309.697001,20.5810038 309.697001,19.825 C309.697001,19.3069974 309.840499,18.8170023 310.127501,18.355 C310.414502,17.8929977 310.841498,17.5150015 311.408501,17.221 C311.975504,16.9269985 312.657997,16.78 313.456001,16.78 C314.296005,16.78 315.006498,16.9234986 315.587501,17.2105 C316.168504,17.4975014 316.602499,17.8299981 316.889501,18.208 C317.176502,18.5860019 317.320001,18.8939988 317.320001,19.132 C317.320001,19.2580006 317.274501,19.3594996 317.183501,19.4365 C317.0925,19.5135004 316.984001,19.552 316.858001,19.552 L316.543001,19.552 C316.347,19.552 316.193001,19.4610009 316.081001,19.279 C315.800999,18.8589979 315.482503,18.5405011 315.125501,18.3235 C314.768499,18.1064989 314.212005,17.998 313.456001,17.998 C312.643997,17.998 312.028003,18.1659983 311.608001,18.502 C311.187999,18.8380017 310.978001,19.2789973 310.978001,19.825 C310.978001,20.1610017 311.062,20.4409989 311.230001,20.665 C311.398002,20.8890011 311.712998,21.0954991 312.175001,21.2845 C312.637003,21.4735009 313.308996,21.665999 314.191001,21.862 C315.493007,22.1560015 316.409998,22.5479976 316.942001,23.038 C317.474003,23.5280025 317.740001,24.1789959 317.740001,24.991 C317.740001,25.5650029 317.579002,26.0899976 317.257001,26.566 C316.934999,27.0420024 316.459004,27.4199986 315.829001,27.7 C315.198998,27.9800014 314.443005,28.12 313.561001,28.12 C312.650996,28.12 311.884504,27.9660015 311.261501,27.658 Z M319.758334,27.784 C319.674334,27.6999996 319.632334,27.5880007 319.632334,27.448 L319.632334,13.462 C319.632334,13.3219993 319.674334,13.2100004 319.758334,13.126 C319.842335,13.0419996 319.954333,13 320.094334,13 L320.451334,13 C320.591335,13 320.703334,13.0419996 320.787334,13.126 C320.871335,13.2100004 320.913334,13.3219993 320.913334,13.462 L320.913334,18.439 C321.333336,17.8929973 321.812831,17.4800014 322.351834,17.2 C322.890837,16.9199986 323.58733,16.78 324.441334,16.78 C325.813341,16.78 326.87033,17.2174956 327.612334,18.0925 C328.354338,18.9675044 328.725334,20.0979931 328.725334,21.484 L328.725334,27.448 C328.725334,27.5880007 328.683335,27.6999996 328.599334,27.784 C328.515334,27.8680004 328.403335,27.91 328.263334,27.91 L327.906334,27.91 C327.766333,27.91 327.654335,27.8680004 327.570334,27.784 C327.486334,27.6999996 327.444334,27.5880007 327.444334,27.448 L327.444334,21.589 C327.444334,20.4549943 327.167837,19.5730032 326.614834,18.943 C326.061831,18.3129969 325.267339,17.998 324.231334,17.998 C323.223329,17.998 322.418337,18.3164968 321.816334,18.9535 C321.214331,19.5905032 320.913334,20.4689944 320.913334,21.589 L320.913334,27.448 C320.913334,27.5880007 320.871335,27.6999996 320.787334,27.784 C320.703334,27.8680004 320.591335,27.91 320.451334,27.91 L320.094334,27.91 C319.954333,27.91 319.842335,27.8680004 319.758334,27.784 Z M332.507668,26.461 L332.507668,27.448 C332.507668,27.5880007 332.465668,27.6999996 332.381668,27.784 C332.297667,27.8680004 332.185668,27.91 332.045668,27.91 L331.688668,27.91 C331.548667,27.91 331.436668,27.8680004 331.352668,27.784 C331.268667,27.6999996 331.226668,27.5880007 331.226668,27.448 L331.226668,13.462 C331.226668,13.3219993 331.268667,13.2100004 331.352668,13.126 C331.436668,13.0419996 331.548667,13 331.688668,13 L332.045668,13 C332.185668,13 332.297667,13.0419996 332.381668,13.126 C332.465668,13.2100004 332.507668,13.3219993 332.507668,13.462 L332.507668,18.439 C333.333672,17.3329945 334.50966,16.78 336.035668,16.78 C337.547675,16.78 338.664164,17.2734951 339.385168,18.2605 C340.106171,19.2475049 340.487667,20.4479929 340.529668,21.862 C340.543668,22.0020007 340.550668,22.1979987 340.550668,22.45 C340.550668,22.7020013 340.543668,22.8979993 340.529668,23.038 C340.487667,24.4520071 340.106171,25.6524951 339.385168,26.6395 C338.664164,27.6265049 337.547675,28.12 336.035668,28.12 C334.49566,28.12 333.319672,27.5670055 332.507668,26.461 Z M338.398168,25.8205 C338.92317,25.0994964 339.206667,24.1720057 339.248668,23.038 C339.262668,22.8979993 339.269668,22.7020013 339.269668,22.45 C339.269668,21.1479935 339.01767,20.0805042 338.513668,19.2475 C338.009665,18.4144958 337.141674,17.998 335.909668,17.998 C335.167664,17.998 334.54467,18.1729983 334.040668,18.523 C333.536665,18.8730018 333.158669,19.3174973 332.906668,19.8565 C332.654666,20.3955027 332.521668,20.965997 332.507668,21.568 L332.486668,22.387 L332.507668,23.206 C332.549668,24.200005 332.850665,25.0644963 333.410668,25.7995 C333.97067,26.5345037 334.803662,26.902 335.909668,26.902 C337.043673,26.902 337.873165,26.5415036 338.398168,25.8205 Z M343.335501,26.7865 C342.530497,25.8974956 342.107001,24.7460071 342.065001,23.332 L342.044001,22.45 L342.065001,21.568 C342.107001,20.1539929 342.530497,19.0025044 343.335501,18.1135 C344.140505,17.2244956 345.270994,16.78 346.727001,16.78 C348.183008,16.78 349.313497,17.2244956 350.118501,18.1135 C350.923505,19.0025044 351.347001,20.1539929 351.389001,21.568 C351.403001,21.7080007 351.410001,22.0019978 351.410001,22.45 C351.410001,22.8980022 351.403001,23.1919993 351.389001,23.332 C351.347001,24.7460071 350.923505,25.8974956 350.118501,26.7865 C349.313497,27.6755044 348.183008,28.12 346.727001,28.12 C345.270994,28.12 344.140505,27.6755044 343.335501,26.7865 Z M349.131501,25.9465 C349.740504,25.3094968 350.066001,24.4030059 350.108001,23.227 C350.122001,23.0869993 350.129001,22.8280019 350.129001,22.45 C350.129001,22.0719981 350.122001,21.8130007 350.108001,21.673 C350.066001,20.4969941 349.740504,19.5905032 349.131501,18.9535 C348.522498,18.3164968 347.721006,17.998 346.727001,17.998 C345.732996,17.998 344.931504,18.3164968 344.322501,18.9535 C343.713498,19.5905032 343.388001,20.4969941 343.346001,21.673 L343.325001,22.45 L343.346001,23.227 C343.388001,24.4030059 343.713498,25.3094968 344.322501,25.9465 C344.931504,26.5835032 345.732996,26.902 346.727001,26.902 C347.721006,26.902 348.522498,26.5835032 349.131501,25.9465 Z M354.541334,27.7 C353.967331,27.4199986 353.508836,27.0420024 353.165834,26.566 C352.822833,26.0899976 352.651334,25.5650029 352.651334,24.991 C352.651334,24.0669954 353.025831,23.3110029 353.774834,22.723 C354.523838,22.1349971 355.535328,21.7570008 356.809334,21.589 L360.127334,21.127 L360.127334,20.392 C360.127334,19.6219962 359.892837,19.0305021 359.423834,18.6175 C358.954832,18.2044979 358.237339,17.998 357.271334,17.998 C356.557331,17.998 355.972837,18.1379986 355.517834,18.418 C355.062832,18.6980014 354.772335,19.033998 354.646334,19.426 C354.590334,19.5940008 354.523835,19.7094997 354.446834,19.7725 C354.369834,19.8355003 354.268335,19.867 354.142334,19.867 L353.848334,19.867 C353.722334,19.867 353.613835,19.8215005 353.522834,19.7305 C353.431834,19.6394995 353.386334,19.5310006 353.386334,19.405 C353.386334,19.0969985 353.526333,18.7365021 353.806334,18.3235 C354.086336,17.9104979 354.520331,17.5500015 355.108334,17.242 C355.696337,16.9339985 356.41733,16.78 357.271334,16.78 C358.769342,16.78 359.833331,17.1369964 360.463334,17.851 C361.093338,18.5650036 361.408334,19.4329949 361.408334,20.455 L361.408334,27.448 C361.408334,27.5880007 361.366335,27.6999996 361.282334,27.784 C361.198334,27.8680004 361.086335,27.91 360.946334,27.91 L360.589334,27.91 C360.449334,27.91 360.337335,27.8680004 360.253334,27.784 C360.169334,27.6999996 360.127334,27.5880007 360.127334,27.448 L360.127334,26.461 C359.819333,26.9230023 359.367837,27.3149984 358.772834,27.637 C358.177831,27.9590016 357.390339,28.12 356.410334,28.12 C355.738331,28.12 355.115337,27.9800014 354.541334,27.7 Z M359.140334,25.894 C359.798338,25.2219966 360.127334,24.2560063 360.127334,22.996 L360.127334,22.282 L357.418334,22.66 C356.270329,22.8140008 355.402337,23.0799981 354.814334,23.458 C354.226331,23.8360019 353.932334,24.3119971 353.932334,24.886 C353.932334,25.5300032 354.201832,26.0269983 354.740834,26.377 C355.279837,26.7270018 355.906331,26.902 356.620334,26.902 C357.642339,26.902 358.482331,26.5660034 359.140334,25.894 Z M364.035668,27.784 C363.951667,27.6999996 363.909668,27.5880007 363.909668,27.448 L363.909668,17.473 C363.909668,17.3329993 363.951667,17.2175005 364.035668,17.1265 C364.119668,17.0354995 364.231667,16.99 364.371668,16.99 L364.707668,16.99 C364.847668,16.99 364.963167,17.0354995 365.054168,17.1265 C365.145168,17.2175005 365.190668,17.3329993 365.190668,17.473 L365.190668,18.439 C365.69467,17.4729952 366.646661,16.99 368.046668,16.99 L368.823668,16.99 C368.963668,16.99 369.075667,17.0319996 369.159668,17.116 C369.243668,17.2000004 369.285668,17.3119993 369.285668,17.452 L369.285668,17.746 C369.285668,17.8860007 369.243668,17.9979996 369.159668,18.082 C369.075667,18.1660004 368.963668,18.208 368.823668,18.208 L367.920668,18.208 C367.080664,18.208 366.41567,18.4529976 365.925668,18.943 C365.435665,19.4330025 365.190668,20.0979958 365.190668,20.938 L365.190668,27.448 C365.190668,27.5880007 365.145168,27.6999996 365.054168,27.784 C364.963167,27.8680004 364.847668,27.91 364.707668,27.91 L364.371668,27.91 C364.231667,27.91 364.119668,27.8680004 364.035668,27.784 Z M370.726501,26.6395 C370.005498,25.6524951 369.624001,24.4520071 369.582001,23.038 L369.561001,22.45 L369.582001,21.862 C369.624001,20.4479929 370.005498,19.2475049 370.726501,18.2605 C371.447505,17.2734951 372.563994,16.78 374.076001,16.78 C375.602009,16.78 376.777997,17.3329945 377.604001,18.439 L377.604001,13.462 C377.604001,13.3219993 377.646001,13.2100004 377.730001,13.126 C377.814002,13.0419996 377.926,13 378.066001,13 L378.423001,13 C378.563002,13 378.675001,13.0419996 378.759001,13.126 C378.843002,13.2100004 378.885001,13.3219993 378.885001,13.462 L378.885001,27.448 C378.885001,27.5880007 378.843002,27.6999996 378.759001,27.784 C378.675001,27.8680004 378.563002,27.91 378.423001,27.91 L378.066001,27.91 C377.926,27.91 377.814002,27.8680004 377.730001,27.784 C377.646001,27.6999996 377.604001,27.5880007 377.604001,27.448 L377.604001,26.461 C376.791997,27.5670055 375.616009,28.12 374.076001,28.12 C372.563994,28.12 371.447505,27.6265049 370.726501,26.6395 Z M376.701001,25.7995 C377.261004,25.0644963 377.562001,24.200005 377.604001,23.206 C377.618001,23.0659993 377.625001,22.793002 377.625001,22.387 C377.625001,21.980998 377.618001,21.7080007 377.604001,21.568 C377.590001,20.965997 377.457002,20.3955027 377.205001,19.8565 C376.953,19.3174973 376.575004,18.8730018 376.071001,18.523 C375.566999,18.1729983 374.944005,17.998 374.202001,17.998 C373.067995,17.998 372.238504,18.3584964 371.713501,19.0795 C371.188499,19.8005036 370.905001,20.7279943 370.863001,21.862 L370.842001,22.45 C370.842001,23.7520065 371.093999,24.8194958 371.598001,25.6525 C372.102004,26.4855042 372.969995,26.902 374.202001,26.902 C375.308007,26.902 376.140998,26.5345037 376.701001,25.7995 Z" id="OpenStack-Dashboard" fill="#FFFFFF"></path>
            <g id="Group">
                <g id="CBSL-LOGO">
                    <g id="Group-2">
                        <path d="M54.8831298,20.272308 C54.8073363,17.1360253 52.1710131,14.504754 49.028644,14.4291362 C48.0353098,14.4052277 47.042337,14.4052277 46.0489434,14.4291362 C46.0448058,14.4292547 46.0406385,14.4296499 46.0364662,14.4297685 C46.1044943,11.5602229 46.0530513,8.69263353 45.8761238,5.81977341 C45.6961128,2.89731316 43.1649128,0.370962321 40.236779,0.191298345 C36.0790216,-0.0638006913 31.9325041,-0.0637414142 27.7747813,0.191327983 C24.8466524,0.370962321 22.3154227,2.8973428 22.1354414,5.81983268 C22.091457,6.53381063 22.0578364,7.24736871 22.0290167,7.96083786 C21.6213875,7.85531473 21.1994103,7.79178943 20.767678,7.77906461 C19.5613755,7.7435181 18.3556818,7.7419522 17.1493199,7.77430268 C14.6645492,7.84093509 12.483131,9.53786087 11.6690208,11.8020291 C9.72434235,11.7331985 7.78129716,11.7347051 5.83598519,11.8147539 C2.79457183,11.939873 0.206672602,14.5159673 0.0732692041,17.5511874 C-0.021465323,19.7057571 -0.024330967,21.8577088 0.0646574243,24.0125503 C0.190023161,27.0481606 2.77109235,29.6310421 5.81217411,29.764218 C6.56943167,29.7973835 7.32626358,29.8151123 8.08307075,29.8257229 C8.10808451,31.5673634 8.1751772,33.309483 8.28682348,35.053628 C8.47178868,37.9429523 10.9959805,40.4623085 13.8909144,40.6469171 C18.3964244,40.9341839 22.8887049,40.9341839 27.3942149,40.6468875 C30.2891191,40.4622788 32.8133406,37.9429227 32.9983009,35.053628 C33.012347,34.8335321 33.0225574,34.6136189 33.0352474,34.3936169 C33.703967,34.6978912 34.4314347,34.8817738 35.1873361,34.9142132 C37.3827411,35.0084292 39.5753052,35.0084292 41.7707448,34.9141835 C44.8120097,34.7836652 47.3950438,32.2055753 47.5258438,29.1702663 C47.5267496,29.1492229 47.5269624,29.1282388 47.5278681,29.1072251 C48.0281432,29.107314 48.5283293,29.1014653 49.0286984,29.0894074 C52.1710082,29.0137599 54.8073313,26.3825182 54.8831249,23.2462652 C54.9070548,22.2548111 54.9071142,21.2637868 54.8831298,20.272308 L54.8831298,20.272308 Z" id="Shape-Copy" fill="#3C98FC"></path>
                        <g id="Group">
                            <path d="M17.6970293,15.8111659 C19.1369437,15.7710254 20.5763433,15.7597973 22.0159755,15.7785042 C21.9193058,13.1718625 21.9236364,10.5677253 22.0290218,7.96082675 C21.6213926,7.85530855 21.1994105,7.79177337 20.7676881,7.77906831 C19.5613757,7.74350699 18.3556968,7.74194108 17.14933,7.77429157 C14.6645395,7.84092398 12.4831361,9.5378547 11.669021,11.802013 C11.8826328,11.8095758 12.0961851,11.8139228 12.3098562,11.8232787 C14.7378486,11.9295872 16.87112,13.59806 17.6970293,15.8111659 L17.6970293,15.8111659 Z" id="Shape" fill="#007AFF"></path>
                            <path d="M8.28688804,21.5763488 C8.41340201,19.5995857 9.6352057,17.7964501 11.3212586,16.7952351 C11.2986996,15.718743 11.2991005,14.6426264 11.3309443,13.5661047 C11.3490588,12.9539105 11.4680548,12.360927 11.669021,11.8020031 C9.72435742,11.7331824 7.78128748,11.734689 5.8359953,11.8147378 C2.79456214,11.9398718 0.206667867,14.5159561 0.0732595199,17.5511812 C-0.0214700579,19.705751 -0.0243159047,21.8577076 0.0646576387,24.0125392 C0.190033274,27.0481446 2.77108762,29.6310458 5.81217928,29.764197 C6.56944673,29.7973724 7.32625885,29.8151111 8.08307097,29.8257118 C8.04354092,27.0768545 8.11064351,24.329074 8.28688804,21.5763488 L8.28688804,21.5763488 Z" id="Shape" fill="#444E6E"></path>
                            <path d="M11.3212586,16.7952351 C12.0996051,16.3330465 12.976606,16.0413883 13.8909246,15.9830547 C15.1605187,15.902097 16.4289744,15.8464951 17.6970343,15.811161 C16.871125,13.59806 14.7378535,11.9295823 12.3098562,11.8232688 C12.0961851,11.8139178 11.8826328,11.8095659 11.669021,11.8020031 C11.4680548,12.360927 11.3490588,12.9539105 11.3309443,13.5661047 C11.2991005,14.6426264 11.2986996,15.718748 11.3212586,16.7952351 L11.3212586,16.7952351 Z" id="Shape" fill="#243053"></path>
                            <path d="M54.8831449,20.2723018 C54.8073266,17.1360142 52.1710133,14.5047577 49.0286392,14.4291399 C48.035315,14.4052067 47.0423322,14.4052067 46.0489535,14.4291399 C46.0447961,14.4292535 46.0406387,14.4296536 46.0364763,14.4297672 C46.0062312,15.7051587 45.9547387,16.980891 45.876129,18.2577594 C45.8663887,18.4156687 45.848502,18.5721602 45.8253739,18.7274267 C46.8184111,19.7581223 47.4622703,21.1242522 47.5258391,22.5994223 C47.6193759,24.7696264 47.6196036,26.9370494 47.5278881,29.1071992 C48.0281385,29.1073128 48.5283344,29.1014592 49.0286986,29.0894061 C52.1710133,29.0137636 54.8073217,26.3825022 54.88314,23.2462442 C54.9070698,22.2548099 54.9071243,21.2637707 54.8831449,20.2723018 L54.8831449,20.2723018 Z" id="Shape" fill="#54A1F6"></path>
                            <path d="M47.5258391,22.5994223 C47.4622703,21.1242522 46.818416,19.7581223 45.8253739,18.7274267 C45.4205955,21.4427728 43.0125934,23.7104531 40.2469747,23.8853354 C40.2435548,23.8855627 40.2401942,23.8860171 40.2367198,23.8862443 C37.8639765,24.0317894 35.4948214,24.0913431 33.1251566,24.0707888 C33.2641428,27.5125461 33.2342391,30.9497046 33.0352674,34.3935959 C33.7039523,34.6978752 34.4314349,34.8817676 35.1873314,34.914202 C37.3827463,35.0084082 39.5753203,35.0084082 41.7707351,34.9141773 C44.812,34.7836689 47.3950489,32.2055692 47.5258342,29.1702552 C47.5267498,29.1492217 47.5269725,29.1282425 47.5278832,29.1072041 C47.6195986,26.9370543 47.6193759,24.7696313 47.5258391,22.5994223 L47.5258391,22.5994223 Z" id="Shape" fill="#007AFF"></path>
                            <path d="M26.5706914,13.5862342 C26.5917655,14.3702975 26.5930771,15.1540792 26.5853314,15.9378905 C26.8549939,15.9530407 27.1245427,15.9658347 27.3942646,15.9830596 C29.0603223,16.0892892 30.6024842,16.9696925 31.6477612,18.2479836 C32.6323698,17.4310018 33.866418,16.9121839 35.1872769,16.8554754 C37.2632455,16.7663869 39.3366453,16.764569 41.4122673,16.8439361 C42.4885864,15.4260129 44.1729317,14.4786955 46.0364763,14.4297722 C46.1044896,11.5602118 46.0530515,8.69264217 45.876129,5.81975735 C45.696123,2.89729711 43.1649081,0.370961084 40.2367742,0.191302048 C36.0790317,-0.063796988 31.9325142,-0.0637426506 27.7747766,0.191331687 C24.8466428,0.370961084 22.3154278,2.89735145 22.1354219,5.81984133 C22.0914473,6.53380446 22.0578366,7.24737241 22.0290169,7.96082675 C24.5465618,8.6123612 26.4990305,10.9249588 26.5706914,13.5862342 L26.5706914,13.5862342 Z" id="Shape" fill="#444E6E"></path>
                            <path d="M22.0159755,15.7784993 C23.5384293,15.798283 25.061279,15.8522943 26.5853314,15.9378855 C26.5930771,15.1540792 26.5917655,14.3702975 26.5706914,13.5862293 C26.4990305,10.9249539 24.5465618,8.61235627 22.0290169,7.96081687 C21.9236364,10.5677204 21.9193058,13.1718576 22.0159755,15.7784993 L22.0159755,15.7784993 Z" id="Shape" fill="#243053"></path>
                            <path d="M41.4122673,16.8439312 C41.5317731,16.8485054 41.6512294,16.8503529 41.7707945,16.8554705 C43.3339761,16.9225573 44.7750288,17.6373158 45.8253739,18.7274267 C45.848502,18.5721602 45.8663887,18.4156736 45.876129,18.2577594 C45.9547387,16.980891 46.0062312,15.7051587 46.0364763,14.4297672 C44.1729317,14.4786906 42.4885864,15.426008 41.4122673,16.8439312 L41.4122673,16.8439312 Z" id="Shape" fill="#2E395A"></path>
                            <path d="M41.7707945,16.8554754 C41.6512294,16.8503578 41.5317781,16.8485104 41.4122673,16.8439361 C39.3366453,16.764569 37.2632405,16.7663869 35.1872769,16.8554754 C33.8664131,16.9121888 32.6323698,17.4310018 31.6477612,18.2479836 C32.4186986,19.1908404 32.9198052,20.3498214 32.9983011,21.5762895 C33.0515605,22.408224 33.0916053,23.2395904 33.1251615,24.0707888 C35.4948264,24.0913431 37.8639814,24.0317894 40.2367247,23.8862443 C40.2401992,23.8860171 40.2435597,23.8855627 40.2469797,23.8853354 C43.0125983,23.7104531 45.4206005,21.4427728 45.8253788,18.7274267 C44.7750288,17.6373207 43.3339761,16.9225623 41.7707945,16.8554754 L41.7707945,16.8554754 Z" id="Shape" fill="#243053"></path>
                            <path d="M29.4322373,29.1701959 C29.3575574,27.436622 29.3444021,25.704871 29.3879213,23.9720381 C28.8503582,23.9475912 28.3126862,23.9192765 27.7747815,23.8862443 C26.2634934,23.7935745 24.8589517,23.074716 23.8278643,21.9999628 C22.9276165,22.5961275 21.8687338,22.9593084 20.7474702,22.9893817 C19.8592443,23.0132012 18.9713599,23.0122923 18.0833617,22.9993007 C18.0728791,23.3449406 18.0639951,23.6905508 18.0487859,24.036334 C17.9153775,27.071564 15.3274833,29.6476187 12.2860501,29.772723 C10.8843592,29.8304293 9.48386109,29.8453227 8.08308087,29.8257118 C8.10808967,31.5673572 8.17519227,33.3094867 8.28683855,35.053607 C8.47179879,37.9429511 10.9960055,40.4622973 13.8909295,40.6468961 C18.3964296,40.9341777 22.888715,40.9341777 27.3942151,40.6468714 C30.2891391,40.4622677 32.8133458,37.9429214 32.9983061,35.0536119 C33.0123769,34.8335308 33.0225725,34.6136227 33.0352773,34.3936008 C31.0136472,33.4736251 29.5304958,31.4511247 29.4322373,29.1701959 L29.4322373,29.1701959 Z" id="Shape" fill="#54A1F6"></path>
                            <path d="M22.0159755,15.7784993 C20.5763433,15.7597924 19.1369437,15.7710254 17.6970293,15.811161 C17.905573,16.3699712 18.0321414,16.9629251 18.0573779,17.574892 C18.1321123,19.3839652 18.1381504,21.1910476 18.0833518,22.9992958 C18.97135,23.0122873 19.8592344,23.0131963 20.7474603,22.9893767 C21.8687239,22.9592986 22.9276116,22.5961225 23.8278544,21.9999578 C22.8611326,20.9922914 22.2224602,19.6718692 22.1354219,18.2577545 C22.0845035,17.4309425 22.0465621,16.6046394 22.0159755,15.7784993 L22.0159755,15.7784993 Z" id="Shape" fill="#A7D1FF"></path>
                            <path d="M12.2860402,29.772728 C15.3274734,29.6476187 17.9153676,27.0715689 18.048776,24.0363389 C18.0639852,23.6905558 18.0728692,23.3449455 18.0833518,22.9993057 C17.7653247,22.9946722 17.4472432,22.9939905 17.1291616,22.9846099 C14.0312174,22.8933627 11.4093759,20.269664 11.3261534,17.177439 C11.322679,17.0500328 11.3239312,16.9226512 11.3212536,16.79524 C9.63520075,17.7964551 8.41339706,19.5995906 8.28688309,21.5763537 C8.11063856,24.3290789 8.04353597,27.0768594 8.08307097,29.8257167 C9.48385614,29.8453276 10.8843493,29.8304342 12.2860402,29.772728 L12.2860402,29.772728 Z" id="Shape" fill="#A7D1FF"></path>
                            <path d="M18.0573779,17.574897 C18.0321414,16.96293 17.905573,16.3699761 17.6970293,15.8111659 C16.4289695,15.8465 15.1605187,15.9021019 13.8909196,15.9830596 C12.976606,16.0413883 12.0996001,16.3330514 11.3212536,16.79524 C11.3239312,16.9226463 11.322679,17.0500278 11.3261534,17.177439 C11.4093759,20.269664 14.0312174,22.8933627 17.1291616,22.9846099 C17.4472432,22.9939905 17.7653247,22.9946722 18.0833518,22.9993057 C18.1381504,21.1910525 18.1321123,19.3839701 18.0573779,17.574897 L18.0573779,17.574897 Z" id="Shape" fill="#79B9FF"></path>
                            <path d="M33.1251566,24.0707888 C31.8797695,24.0599559 30.6342141,24.0287169 29.3879164,23.9720331 C29.3443972,25.704866 29.3575524,27.436622 29.4322324,29.170191 C29.5304958,31.4511198 31.0136422,33.4736201 33.0352674,34.393591 C33.2342391,30.9497046 33.2641477,27.5125511 33.1251566,24.0707888 L33.1251566,24.0707888 Z" id="Shape" fill="#A7D1FF"></path>
                            <path d="M32.9983011,21.5762895 C32.9198052,20.3498214 32.4187036,19.1908354 31.6477612,18.2479836 C30.6024891,16.9696925 29.0603223,16.0892892 27.3942646,15.9830596 C27.1245427,15.9658347 26.8549939,15.9530407 26.5853314,15.9378905 C25.061279,15.8522993 23.5384293,15.798288 22.0159755,15.7785042 C22.0465621,16.6046394 22.0844985,17.4309475 22.1354268,18.2577643 C22.2224701,19.671879 22.8611375,20.9922964 23.8278593,21.9999677 C24.8589517,23.074721 26.2634884,23.7935794 27.7747766,23.8862493 C28.3126812,23.9192814 28.8503532,23.9475912 29.3879164,23.972043 C30.6342141,24.0287267 31.8797695,24.0599658 33.1251566,24.0707987 C33.0916053,23.2395953 33.0515605,22.4082289 32.9983011,21.5762895 L32.9983011,21.5762895 Z" id="Shape" fill="#79B9FF"></path>
                        </g>
                    </g>
                </g>
                <g id="Group-3" transform="translate(63.233551, 5.394737)" fill="#FFFFFF">
                    <path d="M9.64698579,18.7608775 L10.5239606,21.4478347 C9.81285897,22.0185103 8.46181797,22.779737 6.66026915,22.779737 C2.79706015,22.779737 0.0473790383,20.0686589 0.0473790383,16.2876192 C0.0473790383,12.5065794 2.86821758,9.72410701 6.63671083,9.72410701 C8.46181797,9.72410701 9.74170153,10.4375762 10.547519,11.0560093 L9.62294498,13.8143609 C9.07819898,13.3150797 8.13006669,12.6252473 6.73142658,12.6252473 C4.62216728,12.6252473 3.31824292,14.2663686 3.31824292,16.2639775 C3.31824292,18.3802592 4.78804046,19.8785869 6.85018313,19.8785869 C8.10602589,19.8785968 9.10175729,19.2124011 9.64698579,18.7608775 L9.64698579,18.7608775 Z" id="Shape"></path>
                    <polygon id="Shape" points="11.6134477 5.27688147 14.8843116 5.27688147 14.8843116 22.4705229 11.6134477 22.4705229"></polygon>
                    <path d="M22.7059279,9.72411195 C26.4979794,9.72411195 29.3899754,12.5302211 29.3899754,16.2876241 C29.3899754,20.0450271 26.5931777,22.779742 22.7059279,22.779742 C18.8422364,22.779742 16.0454386,20.0450271 16.0454386,16.2876241 C16.0454386,12.5065844 18.9374346,9.72411195 22.7059279,9.72411195 L22.7059279,9.72411195 Z M22.7059279,19.8785968 C24.6728723,19.8785968 26.1191115,18.4039058 26.1191115,16.2876241 C26.1191115,14.1708583 24.6728723,12.6252571 22.7059279,12.6252571 C20.7385058,12.6252571 19.3163025,14.1472216 19.3163025,16.2876241 C19.3163025,18.4039009 20.7620642,19.8785968 22.7059279,19.8785968 L22.7059279,19.8785968 Z" id="Shape"></path>
                    <path d="M30.4318634,17.2147922 L30.4318634,10.033326 L33.7027272,10.033326 L33.7027272,17.5954006 C33.7027272,18.9745764 34.6508595,19.8308342 35.7648699,19.8308342 C37.1159109,19.8308342 37.968845,18.8322718 37.968845,17.5003695 L37.968845,10.033326 L41.2397088,10.033326 L41.2397088,22.470518 L38.0400024,22.470518 L38.0400024,21.0199479 C37.5188196,21.8762057 36.3336518,22.779737 34.722017,22.779737 C31.1900817,22.779737 30.4318634,19.8544759 30.4318634,17.2147922 L30.4318634,17.2147922 Z" id="Shape"></path>
                    <path d="M55.1054382,22.4705229 L52.0240058,22.4705229 L52.0240058,21.1863782 C51.6922546,21.5906283 50.4599701,22.779742 48.3502332,22.779742 C44.7952172,22.779742 42.2825667,20.0923006 42.2825667,16.2639874 C42.2825667,12.4110741 44.6057808,9.72411195 48.1607968,9.72411195 C50.2940969,9.72411195 51.5263814,10.9132256 51.8345694,11.3411124 L51.8345694,2.17248497 L55.1054333,2.17248497 L55.1054333,22.4705229 L55.1054382,22.4705229 Z M48.753137,12.6252522 C46.85735,12.6252522 45.5774665,14.1235799 45.5774665,16.2876192 C45.5774665,18.498932 46.9044667,19.8785918 48.753137,19.8785918 C50.7441223,19.8785918 51.9292852,18.2611122 51.9292852,16.2876192 C51.9292901,13.9571545 50.5546859,12.6252522 48.753137,12.6252522 L48.753137,12.6252522 Z" id="Shape"></path>
                    <path d="M56.9295853,2.17248497 L60.2004492,2.17248497 L60.2004492,11.3411075 C60.5086421,10.9132206 61.7409266,9.72410701 63.8742218,9.72410701 C67.4297203,9.72410701 69.7524519,12.4110642 69.7524519,16.2639824 C69.7524519,20.0922957 67.2398014,22.779737 63.6847853,22.779737 C61.5750436,22.779737 60.3427591,21.5906234 60.0110128,21.1863733 L60.0110128,22.470518 L56.9295804,22.470518 L56.9295804,2.17248497 L56.9295853,2.17248497 Z M63.2818816,19.8785968 C65.130547,19.8785968 66.4575521,18.4989369 66.4575521,16.2876241 C66.4575521,14.1235848 65.1776686,12.6252571 63.2818816,12.6252571 C61.4803327,12.6252571 60.1057334,13.9571594 60.1057334,16.2876241 C60.1057334,18.2611122 61.2908963,19.8785968 63.2818816,19.8785968 L63.2818816,19.8785968 Z" id="Shape"></path>
                    <path d="M74.9897826,14.5041933 C76.2461079,14.5041933 77.2177985,14.8843226 77.6683063,15.1935416 L77.6683063,14.3850414 C77.6683063,13.2909638 76.8624889,12.5538579 75.4167321,12.5538579 C74.1839652,12.5538579 73.0464014,12.958108 72.1218275,13.4337524 L70.889543,11.1983188 C72.0035534,10.4375762 73.8757772,9.72410701 75.7720417,9.72410701 C79.7540073,9.72410701 80.9391751,11.816752 80.9391751,14.5992244 L80.9391751,22.470518 L78.0476567,22.470518 L77.8341844,21.6620177 C77.1942451,22.3518452 76.2461079,22.779737 74.8239095,22.779737 C72.3117414,22.779737 70.1784413,21.2341309 70.1784413,18.6180888 C70.1784413,16.1684673 72.0982691,14.5041933 74.9897826,14.5041933 L74.9897826,14.5041933 Z M75.6061686,20.2350893 C76.8389355,20.2350893 77.7394687,19.5693777 77.7394687,18.5230577 C77.7394687,17.4289801 76.8389355,16.7869053 75.5826102,16.7869053 C74.326285,16.7869053 73.4493101,17.5003745 73.4493101,18.5230577 C73.4493101,19.5452569 74.3738841,20.2350893 75.6061686,20.2350893 L75.6061686,20.2350893 Z" id="Shape"></path>
                    <path d="M81.7921092,20.4729091 L83.711932,18.7608775 C84.3278355,19.4743467 85.1576888,20.1164165 86.5558513,20.1164165 C87.4804253,20.1164165 88.0727655,19.7121664 88.0727655,18.9986973 C88.0727655,17.0961194 82.2185762,17.8332204 82.2185762,13.4101107 C82.2185762,11.1032828 84.1859982,9.72410701 86.7217245,9.72410701 C89.0684969,9.72410701 90.3719388,10.9604941 90.9647615,11.9354198 L88.8079031,13.5528994 C88.4285527,13.077255 87.7410142,12.3637858 86.5798872,12.3637858 C85.8211864,12.3637858 85.3000036,12.7443992 85.3000036,13.3623482 C85.3000036,15.3363204 91.1777562,14.3850315 91.1777562,18.832262 C91.1777562,21.2577627 89.0920552,22.7797271 86.414014,22.7797271 C83.9725259,22.779737 82.4556117,21.5428707 81.7921092,20.4729091 L81.7921092,20.4729091 Z" id="Shape"></path>
                    <path d="M97.6007323,9.72411195 C101.440383,9.72411195 103.6208,12.2924014 103.6208,16.3590185 C103.6208,16.5968432 103.6208,16.8346629 103.597241,17.0724876 L94.875092,17.0724876 C94.945767,18.7367616 96.2732496,19.9258752 98.0983617,19.9258752 C99.781154,19.9258752 100.752845,18.9273128 101.108637,18.4039107 L103.26549,20.0450222 C102.791424,20.9249168 101.13219,22.779737 98.0507577,22.779737 C94.0687921,22.779737 91.5330658,20.0209014 91.5330658,16.2876192 C91.5330707,12.5302211 94.068797,9.72411195 97.6007323,9.72411195 L97.6007323,9.72411195 Z M100.302819,14.9320801 C100.231662,13.4101157 99.1412097,12.4110642 97.6478539,12.4110642 C96.1073765,12.4110642 95.1121276,13.5051418 94.9698127,14.9320801 L100.302819,14.9320801 L100.302819,14.9320801 Z" id="Shape"></path>
                    <path d="M62.5871304,6.79739858 L63.4347767,6.04148207 C63.7064285,6.35649051 64.0727959,6.63965725 64.690137,6.63965725 C65.0983334,6.63965725 65.3598873,6.46116894 65.3598873,6.14616545 C65.3598873,5.30630762 62.7751193,5.63192665 62.7751193,3.67869653 C62.7751193,2.66035533 63.6439214,2.0515646 64.763697,2.0515646 C65.7998148,2.0515646 66.3753319,2.59715605 66.6368858,3.02793762 L65.6844259,3.74188593 C65.5171101,3.53204497 65.2137273,3.21703653 64.7007124,3.21703653 C64.366076,3.21703653 64.1357757,3.3849093 64.1357757,3.65794954 C64.1357757,4.52916003 66.731119,4.10947316 66.731119,6.07283472 C66.731119,7.14375966 65.8099127,7.81573978 64.6276299,7.81573978 C63.5496832,7.81573978 62.8799329,7.26966918 62.5871304,6.79739858 L62.5871304,6.79739858 Z" id="Shape"></path>
                    <path d="M69.9327555,2.0515646 C71.6073749,2.0515646 72.8838909,3.29036231 72.8838909,4.94933099 C72.8838909,6.60829966 71.6492039,7.81573978 69.9327555,7.81573978 C68.2268874,7.81573978 66.9921954,6.60829472 66.9921954,4.94933099 C66.9921954,3.27975171 68.2691939,2.0515646 69.9327555,2.0515646 L69.9327555,2.0515646 Z M69.9327555,6.53497388 C70.8015575,6.53497388 71.4400543,5.88373581 71.4400543,4.94933099 C71.4400543,4.01492617 70.8015526,3.33233051 69.9327555,3.33233051 C69.0644359,3.33233051 68.4365145,4.00431063 68.4365145,4.94933099 C68.4365145,5.88373581 69.0745288,6.53497388 69.9327555,6.53497388 L69.9327555,6.53497388 Z" id="Shape"></path>
                    <polygon id="Shape" points="73.5007544 0.087718941 74.9450686 0.087718941 74.9450686 7.6792246 73.5007544 7.6792246"></polygon>
                    <path d="M75.8340663,5.35888641 L75.8340663,2.18807978 L77.2783805,2.18807978 L77.2783805,5.52675918 C77.2783805,6.13554497 77.6971572,6.51374774 78.1890115,6.51374774 C78.7852018,6.51374774 79.1621447,6.07283472 79.1621447,5.48479099 L79.1621447,2.18807978 L80.6059813,2.18807978 L80.6059813,7.6792246 L79.1933982,7.6792246 L79.1933982,7.03859713 C78.9630978,7.41679497 78.43999,7.81573978 77.7284059,7.81573978 C76.1691803,7.81573978 75.8340663,6.52436328 75.8340663,5.35888641 L75.8340663,5.35888641 Z" id="Shape"></path>
                    <path d="M81.6209434,1.0327393 L83.0441018,1.0327393 L83.0441018,2.18808472 L84.0696442,2.18808472 L84.0696442,3.3636881 L83.0441018,3.3636881 L83.0441018,5.48479593 C83.0441018,6.30390677 83.2955579,6.47178448 83.8499193,6.47178448 C83.9441574,6.47178448 83.9965618,6.47178448 84.1119557,6.46117388 L84.1119557,7.70045569 C84.1119557,7.70045569 83.8917482,7.75255533 83.4941321,7.75255533 C82.1863626,7.75255533 81.6108455,7.01786497 81.6108455,5.52676906 L81.6108455,3.36369304 L81.0348509,3.36369304 L81.0348509,2.18808966 L81.6209434,2.18808966 L81.6209434,1.0327393 L81.6209434,1.0327393 Z" id="Shape"></path>
                    <path d="M85.4716519,0.0356193025 C85.9534133,0.0356193025 86.3192983,0.392595929 86.3192983,0.864861592 C86.3192983,1.33761135 85.9534133,1.69458798 85.4716519,1.69458798 C85.0009534,1.69458798 84.634581,1.33761135 84.634581,0.864861592 C84.6345859,0.392595929 85.0009534,0.0356193025 85.4716519,0.0356193025 L85.4716519,0.0356193025 Z M84.7600727,2.18808472 L86.2043869,2.18808472 L86.2043869,7.6792246 L84.7600727,7.6792246 L84.7600727,2.18808472 L84.7600727,2.18808472 Z" id="Shape"></path>
                    <path d="M89.7723858,2.0515646 C91.4470053,2.0515646 92.7235213,3.29036231 92.7235213,4.94933099 C92.7235213,6.60829966 91.4888343,7.81573978 89.7723858,7.81573978 C88.0665177,7.81573978 86.8318258,6.60829472 86.8318258,4.94933099 C86.8318307,3.27975171 88.1088292,2.0515646 89.7723858,2.0515646 L89.7723858,2.0515646 Z M89.7723858,6.53497388 C90.6411879,6.53497388 91.2796847,5.88373581 91.2796847,4.94933099 C91.2796847,4.01492617 90.641183,3.33233051 89.7723858,3.33233051 C88.9040663,3.33233051 88.2761449,4.00431063 88.2761449,4.94933099 C88.2761449,5.88373581 88.9141641,6.53497388 89.7723858,6.53497388 L89.7723858,6.53497388 Z" id="Shape"></path>
                    <path d="M98.1123047,4.50841798 L98.1123047,7.6792246 L96.6684681,7.6792246 L96.6684681,4.34054521 C96.6684681,3.73127533 96.2496913,3.35355665 95.7578371,3.35355665 C95.1616468,3.35355665 94.7847039,3.79446966 94.7847039,4.3825134 L94.7847039,7.6792246 L93.3403897,7.6792246 L93.3403897,2.18808472 L94.7534553,2.18808472 L94.7534553,2.8282281 C94.9837557,2.45050942 95.5068635,2.0515646 96.2184476,2.0515646 C97.7776683,2.0515646 98.1123047,3.34294605 98.1123047,4.50841798 L98.1123047,4.50841798 Z" id="Shape"></path>
                    <path d="M98.6253147,6.79739858 L99.472961,6.04148207 C99.7446127,6.35649051 100.11098,6.63965725 100.728321,6.63965725 C101.136518,6.63965725 101.398072,6.46116894 101.398072,6.14616545 C101.398072,5.30630762 98.8133036,5.63192665 98.8133036,3.67869653 C98.8133036,2.66035533 99.6821057,2.0515646 100.801881,2.0515646 C101.837999,2.0515646 102.413516,2.59715605 102.67507,3.02793762 L101.72261,3.74188593 C101.555294,3.53204497 101.251912,3.21703653 100.738897,3.21703653 C100.40426,3.21703653 100.17396,3.3849093 100.17396,3.65794954 C100.17396,4.52916003 102.769303,4.10947316 102.769303,6.07283472 C102.769303,7.14375966 101.848097,7.81573978 100.665814,7.81573978 C99.5878724,7.81573978 98.9181221,7.26966918 98.6253147,6.79739858 L98.6253147,6.79739858 Z" id="Shape"></path>
                </g>
            </g>
            <rect id="Rectangle" fill="#FFFFFF" x="177" y="5" width="1" height="33" rx="0.5"></rect>
        </g>
    </g>
</svg>