<?xml version="1.0" encoding="UTF-8" standalone="no"?>
<svg width="390px" height="41px" viewBox="0 0 390 41" version="1.1" xmlns="http://www.w3.org/2000/svg" xmlns:xlink="http://www.w3.org/1999/xlink">
    <!-- Generator: Sketch 3.8.2 (29753) - http://www.bohemiancoding.com/sketch -->
    <title>cloudbase-white-text</title>
    <desc>Created with Sketch.</desc>
    <defs></defs>
    <g id="Page-1" stroke="none" stroke-width="1" fill="none" fill-rule="evenodd">
        <g id="cloudbase-white-text">
            <g id="Group-4-Copy">
                <g id="Group-2">
                    <path d="M54.5743784,20.272308 C54.4990112,17.1360253 51.877519,14.504754 48.7528276,14.4291362 C47.7650816,14.4052277 46.7776948,14.4052277 45.7898897,14.4291362 C45.7857754,14.4292547 45.7816315,14.4296499 45.7774827,14.4297685 C45.8451281,11.5602229 45.7939745,8.69263353 45.6180423,5.81977341 C45.439044,2.89731316 42.9220835,0.370962321 40.0104223,0.191298345 C35.8760548,-0.0638006913 31.752864,-0.0637414142 27.618531,0.191327983 C24.7068747,0.370962321 22.1898847,2.8973428 22.0109159,5.81983268 C21.967179,6.53381063 21.9337475,7.24736871 21.9050899,7.96083786 C21.4997538,7.85531473 21.0801505,7.79178943 20.650847,7.77906461 C19.4513307,7.7435181 18.2524198,7.7419522 17.0528444,7.77430268 C14.5820521,7.84093509 12.4129057,9.53786087 11.6033754,11.8020291 C9.66963693,11.7331985 7.73752257,11.7347051 5.80315418,11.8147539 C2.77885064,11.939873 0.205509942,14.5159673 0.0728570197,17.5511874 C-0.0213445674,19.7057571 -0.0241940903,21.8577088 0.0642936864,24.0125503 C0.188954164,27.0481606 2.75550325,29.6310421 5.77947705,29.764218 C6.53247457,29.7973835 7.28504883,29.8151123 8.0375985,29.8257229 C8.06247153,31.5673634 8.12918679,33.309483 8.24020499,35.053628 C8.42412964,37.9429523 10.9341214,40.4623085 13.8127695,40.6469171 C18.2929332,40.9341839 22.7599418,40.9341839 27.2401055,40.6468875 C30.1187241,40.4622788 32.6287454,37.9429227 32.8126651,35.053628 C32.8266322,34.8335321 32.8367852,34.6136189 32.8494038,34.3936169 C33.5143614,34.6978912 34.2377366,34.8817738 34.9893857,34.9142132 C37.1724401,35.0084292 39.3526697,35.0084292 41.5357586,34.9141835 C44.5599145,34.7836652 47.1284174,32.2055753 47.2584817,29.1702663 C47.2593823,29.1492229 47.2595939,29.1282388 47.2604945,29.1072251 C47.7579553,29.107314 48.2553275,29.1014653 48.7528818,29.0894074 C51.8775141,29.0137599 54.4990063,26.3825182 54.5743735,23.2462652 C54.5981687,22.2548111 54.5982278,21.2637868 54.5743784,20.272308 L54.5743784,20.272308 Z" id="Shape-Copy" fill="#5FA3E0"></path>
                    <g id="Group">
                        <path d="M17.5974726,15.8111659 C19.0292865,15.7710254 20.4605886,15.7597973 21.892122,15.7785042 C21.7959962,13.1718625 21.8003024,10.5677253 21.905095,7.96082675 C21.499759,7.85530855 21.0801507,7.79177337 20.650857,7.77906831 C19.4513309,7.74350699 18.2524347,7.74194108 17.0528545,7.77429157 C14.5820425,7.84092398 12.4129108,9.5378547 11.6033756,11.802013 C11.8157856,11.8095758 12.0281366,11.8139228 12.2406057,11.8232787 C14.6549391,11.9295872 16.7762096,13.59806 17.5974726,15.8111659 L17.5974726,15.8111659 Z" id="Shape" fill="#1A7BD3"></path>
                        <path d="M8.24026918,21.5763488 C8.36607144,19.5995857 9.58100172,17.7964501 11.2575695,16.7952351 C11.2351375,15.718743 11.2355361,14.6426264 11.2672008,13.5661047 C11.2852133,12.9539105 11.4035399,12.360927 11.6033756,11.8020031 C9.66965191,11.7331824 7.73751294,11.734689 5.80316423,11.8147378 C2.77884101,11.9398718 0.205505233,14.5159561 0.07284739,17.5511812 C-0.0213492756,19.705751 -0.0241791127,21.8577076 0.0642938996,24.0125392 C0.18896422,27.0481446 2.75549854,29.6310458 5.77948219,29.764197 C6.53248954,29.7973724 7.28504413,29.8151111 8.03759871,29.8257118 C7.99829104,27.0768545 8.06501614,24.329074 8.24026918,21.5763488 L8.24026918,21.5763488 Z" id="Shape" fill="#525B78"></path>
                        <path d="M11.2575695,16.7952351 C12.0315373,16.3330465 12.9036045,16.0413883 13.8127795,15.9830547 C15.0752314,15.902097 16.3365513,15.8464951 17.5974775,15.811161 C16.7762145,13.59806 14.654944,11.9295823 12.2406057,11.8232688 C12.0281366,11.8139178 11.8157856,11.8095659 11.6033756,11.8020031 C11.4035399,12.360927 11.2852133,12.9539105 11.2672008,13.5661047 C11.2355361,14.6426264 11.2351375,15.718748 11.2575695,16.7952351 L11.2575695,16.7952351 Z" id="Shape" fill="#263256"></path>
                        <path d="M54.5743934,20.2723018 C54.4990016,17.1360142 51.8775192,14.5047577 48.7528229,14.4291399 C47.7650867,14.4052067 46.7776901,14.4052067 45.7898998,14.4291399 C45.7857657,14.4292535 45.7816317,14.4296536 45.7774928,14.4297672 C45.7474178,15.7051587 45.6962149,16.980891 45.6180474,18.2577594 C45.608362,18.4156687 45.5905759,18.5721602 45.5675779,18.7274267 C46.5550287,19.7581223 47.1952658,21.1242522 47.258477,22.5994223 C47.3514876,24.7696264 47.3517139,26.9370494 47.2605144,29.1071992 C47.7579506,29.1073128 48.2553326,29.1014592 48.752882,29.0894061 C51.8775192,29.0137636 54.4989967,26.3825022 54.5743885,23.2462442 C54.5981837,22.2548099 54.5982378,21.2637707 54.5743934,20.2723018 L54.5743934,20.2723018 Z" id="Shape" fill="#19A2FF"></path>
                        <path d="M47.258477,22.5994223 C47.1952658,21.1242522 46.5550336,19.7581223 45.5675779,18.7274267 C45.1650766,21.4427728 42.770621,23.7104531 40.0205607,23.8853354 C40.01716,23.8855627 40.0138183,23.8860171 40.0103634,23.8862443 C37.6509683,24.0317894 35.2951412,24.0913431 32.9388072,24.0707888 C33.0770115,27.5125461 33.047276,30.9497046 32.8494237,34.3935959 C33.5143468,34.6978752 34.2377368,34.8817676 34.989381,34.914202 C37.1724453,35.0084082 39.3526847,35.0084082 41.535749,34.9141773 C44.5599049,34.7836689 47.1284226,32.2055692 47.258472,29.1702552 C47.2593825,29.1492217 47.259604,29.1282425 47.2605095,29.1072041 C47.351709,26.9370543 47.3514876,24.7696313 47.258477,22.5994223 L47.258477,22.5994223 Z" id="Shape" fill="#1A7BD3"></path>
                        <path d="M26.4212149,13.5862342 C26.4421704,14.3702975 26.4434746,15.1540792 26.4357725,15.9378905 C26.703918,15.9530407 26.9719504,15.9658347 27.240155,15.9830596 C28.89684,16.0892892 30.4303263,16.9696925 31.469723,18.2479836 C32.4487926,17.4310018 33.6758985,16.9121839 34.9893268,16.8554754 C37.0536167,16.7663869 39.1153524,16.764569 41.1792978,16.8439361 C42.2495619,15.4260129 43.9244318,14.4786955 45.7774928,14.4297722 C45.8451234,11.5602118 45.7939747,8.69264217 45.6180474,5.81975735 C45.4390541,2.89729711 42.9220788,0.370961084 40.0104176,0.191302048 C35.8760649,-0.063796988 31.7528741,-0.0637426506 27.6185263,0.191331687 C24.7068651,0.370961084 22.1898898,2.89735145 22.0108965,5.81984133 C21.9671693,6.53380446 21.9337477,7.24737241 21.9050901,7.96082675 C24.4084723,8.6123612 26.3499571,10.9249588 26.4212149,13.5862342 L26.4212149,13.5862342 Z" id="Shape" fill="#525B78"></path>
                        <path d="M21.892122,15.7784993 C23.4060111,15.798283 24.9202938,15.8522943 26.4357725,15.9378855 C26.4434746,15.1540792 26.4421704,14.3702975 26.4212149,13.5862293 C26.3499571,10.9249539 24.4084723,8.61235627 21.9050901,7.96081687 C21.8003024,10.5677204 21.7959962,13.1718576 21.892122,15.7784993 L21.892122,15.7784993 Z" id="Shape" fill="#263256"></path>
                        <path d="M41.1792978,16.8439312 C41.2981313,16.8485054 41.4169155,16.8503529 41.5358081,16.8554705 C43.0901958,16.9225573 44.5231416,17.6373158 45.5675779,18.7274267 C45.5905759,18.5721602 45.608362,18.4156736 45.6180474,18.2577594 C45.6962149,16.980891 45.7474178,15.7051587 45.7774928,14.4297672 C43.9244318,14.4786906 42.2495619,15.426008 41.1792978,16.8439312 L41.1792978,16.8439312 Z" id="Shape" fill="#3C4667"></path>
                        <path d="M41.5358081,16.8554754 C41.4169155,16.8503578 41.2981362,16.8485104 41.1792978,16.8439361 C39.1153524,16.764569 37.0536118,16.7663869 34.9893268,16.8554754 C33.6758936,16.9121888 32.4487926,17.4310018 31.469723,18.2479836 C32.2363235,19.1908404 32.734611,20.3498214 32.8126653,21.5762895 C32.8656251,22.408224 32.9054446,23.2395904 32.9388121,24.0707888 C35.2951461,24.0913431 37.6509732,24.0317894 40.0103684,23.8862443 C40.0138232,23.8860171 40.0171649,23.8855627 40.0205656,23.8853354 C42.770626,23.7104531 45.1650816,21.4427728 45.5675828,18.7274267 C44.5231416,17.6373207 43.0901958,16.9225623 41.5358081,16.8554754 L41.5358081,16.8554754 Z" id="Shape" fill="#263256"></path>
                        <path d="M29.2666628,29.1701959 C29.192403,27.436622 29.1793218,25.704871 29.2225961,23.9720381 C28.6880571,23.9475912 28.1534098,23.9192765 27.6185312,23.8862443 C26.115745,23.7935745 24.7191047,23.074716 23.6938178,21.9999628 C22.7986345,22.5961275 21.7457087,22.9593084 20.6307529,22.9893817 C19.7475238,23.0132012 18.8646343,23.0122923 17.9816316,22.9993007 C17.971208,23.3449406 17.962374,23.6905508 17.9472503,24.036334 C17.8145925,27.071564 15.2412567,29.6476187 12.2169335,29.772723 C10.823128,29.8304293 9.43050853,29.8453227 8.03760855,29.8257118 C8.06247667,31.5673572 8.12920177,33.3094867 8.24021997,35.053607 C8.4241397,37.9429511 10.9341462,40.4622973 13.8127845,40.6468961 C18.2929383,40.9341777 22.7599519,40.9341777 27.2401057,40.6468714 C30.118744,40.4622677 32.6287505,37.9429214 32.8126702,35.0536119 C32.8266619,34.8335308 32.8368001,34.6136227 32.8494335,34.3936008 C30.8391763,33.4736251 29.3643685,31.4511247 29.2666628,29.1701959 L29.2666628,29.1701959 Z" id="Shape" fill="#19A2FF"></path>
                        <path d="M21.892122,15.7784993 C20.4605886,15.7597924 19.0292865,15.7710254 17.5974726,15.811161 C17.8048431,16.3699712 17.9306995,16.9629251 17.955794,17.574892 C18.030108,19.3839652 18.0361121,21.1910476 17.9816218,22.9992958 C18.8646245,23.0122873 19.747514,23.0131963 20.6307431,22.9893767 C21.7456989,22.9592986 22.7986296,22.5961225 23.693808,21.9999578 C22.7325246,20.9922914 22.0974452,19.6718692 22.0108965,18.2577545 C21.9602645,17.4309425 21.9225366,16.6046394 21.892122,15.7784993 L21.892122,15.7784993 Z" id="Shape" fill="#8CD0FF"></path>
                        <path d="M12.2169237,29.772728 C15.2412469,29.6476187 17.8145827,27.0715689 17.9472405,24.0363389 C17.9623641,23.6905558 17.9711981,23.3449455 17.9816218,22.9993057 C17.6653838,22.9946722 17.3490917,22.9939905 17.0327995,22.9846099 C13.9522831,22.8933627 11.3451911,20.269664 11.2624368,17.177439 C11.258982,17.0500328 11.2602271,16.9226512 11.2575646,16.79524 C9.5809968,17.7964551 8.36606652,19.5995906 8.24026426,21.5763537 C8.06501122,24.3290789 7.99828612,27.0768594 8.03759871,29.8257167 C9.4305036,29.8453276 10.8231181,29.8304342 12.2169237,29.772728 L12.2169237,29.772728 Z" id="Shape" fill="#8CD0FF"></path>
                        <path d="M17.955794,17.574897 C17.9306995,16.96293 17.8048431,16.3699761 17.5974726,15.8111659 C16.3365464,15.8465 15.0752314,15.9021019 13.8127746,15.9830596 C12.9036045,16.0413883 12.0315324,16.3330514 11.2575646,16.79524 C11.2602271,16.9226463 11.258982,17.0500278 11.2624368,17.177439 C11.3451911,20.269664 13.9522831,22.8933627 17.0327995,22.9846099 C17.3490917,22.9939905 17.6653838,22.9946722 17.9816218,22.9993057 C18.0361121,21.1910525 18.030108,19.3839701 17.955794,17.574897 L17.955794,17.574897 Z" id="Shape" fill="#5FA3E0"></path>
                        <path d="M32.9388072,24.0707888 C31.7004261,24.0599559 30.4618778,24.0287169 29.2225912,23.9720331 C29.1793168,25.704866 29.1923981,27.436622 29.2666579,29.170191 C29.3643685,31.4511198 30.8391713,33.4736201 32.8494237,34.393591 C33.047276,30.9497046 33.0770164,27.5125511 32.9388072,24.0707888 L32.9388072,24.0707888 Z" id="Shape" fill="#8CD0FF"></path>
                        <path d="M32.8126653,21.5762895 C32.734611,20.3498214 32.2363284,19.1908354 31.469723,18.2479836 C30.4303312,16.9696925 28.89684,16.0892892 27.240155,15.9830596 C26.9719504,15.9658347 26.703918,15.9530407 26.4357725,15.9378905 C24.9202938,15.8522993 23.4060111,15.798288 21.892122,15.7785042 C21.9225366,16.6046394 21.9602596,17.4309475 22.0109014,18.2577643 C22.097455,19.671879 22.7325295,20.9922964 23.6938129,21.9999677 C24.7191047,23.074721 26.1157401,23.7935794 27.6185263,23.8862493 C28.1534049,23.9192814 28.6880522,23.9475912 29.2225912,23.972043 C30.4618778,24.0287267 31.7004261,24.0599658 32.9388072,24.0707987 C32.9054446,23.2395953 32.8656251,22.4082289 32.8126653,21.5762895 L32.8126653,21.5762895 Z" id="Shape" fill="#5FA3E0"></path>
                    </g>
                </g>
                <g id="Group-3" transform="translate(63.208998, 5.394737)" fill="#FFFFFF">
                    <path d="M9.64323993,18.7608775 L10.5198743,21.4478347 C9.8090487,22.0185103 8.4585323,22.779737 6.65768301,22.779737 C2.79597407,22.779737 0.0473606413,20.0686589 0.0473606413,16.2876192 C0.0473606413,12.5065794 2.86710387,9.72410701 6.63413384,9.72410701 C8.4585323,9.72410701 9.7379189,10.4375762 10.5434234,11.0560093 L9.61920846,13.8143609 C9.07467397,13.3150797 8.12690984,12.6252473 6.72881281,12.6252473 C4.62037253,12.6252473 3.31695446,14.2663686 3.31695446,16.2639775 C3.31695446,18.3802592 4.7861813,19.8785869 6.84752325,19.8785869 C8.10287837,19.8785968 9.09822314,19.2124011 9.64323993,18.7608775 L9.64323993,18.7608775 Z" id="Shape"></path>
                    <polygon id="Shape" points="11.6089383 5.27688147 14.8785321 5.27688147 14.8785321 22.4705229 11.6089383 22.4705229"></polygon>
                    <path d="M22.6971113,9.72411195 C26.4876904,9.72411195 29.3785635,12.5302211 29.3785635,16.2876241 C29.3785635,20.0450271 26.5828517,22.779742 22.6971113,22.779742 C18.83492,22.779742 16.0392083,20.0450271 16.0392083,16.2876241 C16.0392083,12.5065844 18.9300813,9.72411195 22.6971113,9.72411195 L22.6971113,9.72411195 Z M22.6971113,19.8785968 C24.663292,19.8785968 26.1089696,18.4039058 26.1089696,16.2876241 C26.1089696,14.1708583 24.663292,12.6252571 22.6971113,12.6252571 C20.7304532,12.6252571 19.3088021,14.1472216 19.3088021,16.2876241 C19.3088021,18.4039009 20.7540024,19.8785968 22.6971113,19.8785968 L22.6971113,19.8785968 Z" id="Shape"></path>
                    <path d="M30.4200469,17.2147922 L30.4200469,10.033326 L33.6896407,10.033326 L33.6896407,17.5954006 C33.6896407,18.9745764 34.6374048,19.8308342 35.7509826,19.8308342 C37.101499,19.8308342 37.9541019,18.8322718 37.9541019,17.5003695 L37.9541019,10.033326 L41.2236957,10.033326 L41.2236957,22.470518 L38.0252317,22.470518 L38.0252317,21.0199479 C37.5042513,21.8762057 36.3195437,22.779737 34.7085346,22.779737 C31.1779708,22.779737 30.4200469,19.8544759 30.4200469,17.2147922 L30.4200469,17.2147922 Z" id="Shape"></path>
                    <path d="M55.0840411,22.4705229 L52.0038053,22.4705229 L52.0038053,21.1863782 C51.6721828,21.5906283 50.4403768,22.779742 48.3314592,22.779742 C44.7778235,22.779742 42.2661487,20.0923006 42.2661487,16.2639874 C42.2661487,12.4110741 44.5884607,9.72411195 48.1420963,9.72411195 C50.2745681,9.72411195 51.506374,10.9132256 51.8144424,11.3411124 L51.8144424,2.17248497 L55.0840362,2.17248497 L55.0840362,22.4705229 L55.0840411,22.4705229 Z M48.7342065,12.6252522 C46.8391556,12.6252522 45.559769,14.1235799 45.559769,16.2876192 C45.559769,18.498932 46.886254,19.8785918 48.7342065,19.8785918 C50.7244187,19.8785918 51.9091214,18.2611122 51.9091214,16.2876192 C51.9091263,13.9571545 50.5350558,12.6252522 48.7342065,12.6252522 L48.7342065,12.6252522 Z" id="Shape"></path>
                    <path d="M56.9074799,2.17248497 L60.1770737,2.17248497 L60.1770737,11.3411075 C60.485147,10.9132206 61.716953,9.72410701 63.8494198,9.72410701 C67.4035378,9.72410701 69.7253675,12.4110642 69.7253675,16.2639824 C69.7253675,20.0922957 67.2136926,22.779737 63.660057,22.779737 C61.5511344,22.779737 60.3193284,21.5906234 59.9877109,21.1863733 L59.9877109,22.470518 L56.907475,22.470518 L56.907475,2.17248497 L56.9074799,2.17248497 Z M63.2573096,19.8785968 C65.1052573,19.8785968 66.4317471,18.4989369 66.4317471,16.2876241 C66.4317471,14.1235848 65.1523605,12.6252571 63.2573096,12.6252571 C61.4564603,12.6252571 60.0823948,13.9571594 60.0823948,16.2876241 C60.0823948,18.2611122 61.2670975,19.8785968 63.2573096,19.8785968 L63.2573096,19.8785968 Z" id="Shape"></path>
                    <path d="M74.9606646,14.5041933 C76.216502,14.5041933 77.1878153,14.8843226 77.6381482,15.1935416 L77.6381482,14.3850414 C77.6381482,13.2909638 76.8326437,12.5538579 75.3874483,12.5538579 C74.1551601,12.5538579 73.018038,12.958108 72.093823,13.4337524 L70.8620171,11.1983188 C71.9755949,10.4375762 73.8470917,9.72410701 75.74262,9.72410701 C79.7230393,9.72410701 80.907747,11.816752 80.907747,14.5992244 L80.907747,22.470518 L78.0173513,22.470518 L77.8039619,21.6620177 C77.1642711,22.3518452 76.216502,22.779737 74.7948558,22.779737 C72.2836633,22.779737 70.1511915,21.2341309 70.1511915,18.6180888 C70.1511915,16.1684673 72.0702739,14.5041933 74.9606646,14.5041933 L74.9606646,14.5041933 Z M75.5768112,20.2350893 C76.8090994,20.2350893 77.7092829,19.5693777 77.7092829,18.5230577 C77.7092829,17.4289801 76.8090994,16.7869053 75.553262,16.7869053 C74.2974246,16.7869053 73.4207903,17.5003745 73.4207903,18.5230577 C73.4207903,19.5452569 74.3450052,20.2350893 75.5768112,20.2350893 L75.5768112,20.2350893 Z" id="Shape"></path>
                    <path d="M81.7603498,20.4729091 L83.6794272,18.7608775 C84.2950915,19.4743467 85.1246226,20.1164165 86.5222423,20.1164165 C87.4464572,20.1164165 88.0385674,19.7121664 88.0385674,18.9986973 C88.0385674,17.0961194 82.1866512,17.8332204 82.1866512,13.4101107 C82.1866512,11.1032828 84.1533093,9.72410701 86.688051,9.72410701 C89.0339122,9.72410701 90.3368479,10.9604941 90.9294404,11.9354198 L88.7734195,13.5528994 C88.3942164,13.077255 87.706945,12.3637858 86.5462688,12.3637858 C85.7878626,12.3637858 85.2668822,12.7443992 85.2668822,13.3623482 C85.2668822,15.3363204 91.1423525,14.3850315 91.1423525,18.832262 C91.1423525,21.2577627 89.0574614,22.7797271 86.38046,22.7797271 C83.9399199,22.779737 82.4235947,21.5428707 81.7603498,20.4729091 L81.7603498,20.4729091 Z" id="Shape"></path>
                    <path d="M97.5628346,9.72411195 C101.400994,9.72411195 103.580564,12.2924014 103.580564,16.3590185 C103.580564,16.5968432 103.580564,16.8346629 103.557015,17.0724876 L94.8382526,17.0724876 C94.9089001,18.7367616 96.2358674,19.9258752 98.0602708,19.9258752 C99.7424096,19.9258752 100.713723,18.9273128 101.069377,18.4039107 L103.225393,20.0450222 C102.751511,20.9249168 101.092921,22.779737 98.0126852,22.779737 C94.0322658,22.779737 91.4975241,20.0209014 91.4975241,16.2876192 C91.497529,12.5302211 94.0322707,9.72411195 97.5628346,9.72411195 L97.5628346,9.72411195 Z M100.263872,14.9320801 C100.192743,13.4101157 99.1027139,12.4110642 97.6099379,12.4110642 C96.0700586,12.4110642 95.0751961,13.5051418 94.9329365,14.9320801 L100.263872,14.9320801 L100.263872,14.9320801 Z" id="Shape"></path>
                    <path d="M62.5628282,6.79739858 L63.4101454,6.04148207 C63.6816917,6.35649051 64.0479169,6.63965725 64.6650183,6.63965725 C65.0730562,6.63965725 65.3345085,6.46116894 65.3345085,6.14616545 C65.3345085,5.30630762 62.7507442,5.63192665 62.7507442,3.67869653 C62.7507442,2.66035533 63.6192089,2.0515646 64.7385497,2.0515646 C65.7742652,2.0515646 66.3495588,2.59715605 66.6110111,3.02793762 L65.658921,3.74188593 C65.4916703,3.53204497 65.1884052,3.21703653 64.6755895,3.21703653 C64.3410831,3.21703653 64.1108722,3.3849093 64.1108722,3.65794954 C64.1108722,4.52916003 66.7052078,4.10947316 66.7052078,6.07283472 C66.7052078,7.14375966 65.7843591,7.81573978 64.6025355,7.81573978 C63.5250073,7.81573978 62.855517,7.26966918 62.5628282,6.79739858 L62.5628282,6.79739858 Z" id="Shape"></path>
                    <path d="M69.905601,2.0515646 C71.5795703,2.0515646 72.8555906,3.29036231 72.8555906,4.94933099 C72.8555906,6.60829966 71.621383,7.81573978 69.905601,7.81573978 C68.2003953,7.81573978 66.9661828,6.60829472 66.9661828,4.94933099 C66.9661828,3.27975171 68.2426854,2.0515646 69.905601,2.0515646 L69.905601,2.0515646 Z M69.905601,6.53497388 C70.7740657,6.53497388 71.4123146,5.88373581 71.4123146,4.94933099 C71.4123146,4.01492617 70.7740608,3.33233051 69.905601,3.33233051 C69.0376186,3.33233051 68.4099411,4.00431063 68.4099411,4.94933099 C68.4099411,5.88373581 69.0477076,6.53497388 69.905601,6.53497388 L69.905601,6.53497388 Z" id="Shape"></path>
                    <polygon id="Shape" points="73.4722146 0.087718941 74.9159679 0.087718941 74.9159679 7.6792246 73.4722146 7.6792246"></polygon>
                    <path d="M75.8046205,5.35888641 L75.8046205,2.18807978 L77.2483738,2.18807978 L77.2483738,5.52675918 C77.2483738,6.13554497 77.6669879,6.51374774 78.1586512,6.51374774 C78.75461,6.51374774 79.1314065,6.07283472 79.1314065,5.48479099 L79.1314065,2.18807978 L80.5746825,2.18807978 L80.5746825,7.6792246 L79.1626479,7.6792246 L79.1626479,7.03859713 C78.932437,7.41679497 78.4095323,7.81573978 77.6982244,7.81573978 C76.1396043,7.81573978 75.8046205,6.52436328 75.8046205,5.35888641 L75.8046205,5.35888641 Z" id="Shape"></path>
                    <path d="M81.5892505,1.0327393 L83.0118564,1.0327393 L83.0118564,2.18808472 L84.0370005,2.18808472 L84.0370005,3.3636881 L83.0118564,3.3636881 L83.0118564,5.48479593 C83.0118564,6.30390677 83.2632148,6.47178448 83.8173609,6.47178448 C83.9115625,6.47178448 83.9639465,6.47178448 84.0792955,6.46117388 L84.0792955,7.70045569 C84.0792955,7.70045569 83.8591736,7.75255533 83.4617119,7.75255533 C82.1544502,7.75255533 81.5791566,7.01786497 81.5791566,5.52676906 L81.5791566,3.36369304 L81.0033856,3.36369304 L81.0033856,2.18808966 L81.5892505,2.18808966 L81.5892505,1.0327393 L81.5892505,1.0327393 Z" id="Shape"></path>
                    <path d="M85.4384638,0.0356193025 C85.9200381,0.0356193025 86.2857811,0.392595929 86.2857811,0.864861592 C86.2857811,1.33761135 85.9200381,1.69458798 85.4384638,1.69458798 C84.9679481,1.69458798 84.6017179,1.33761135 84.6017179,0.864861592 C84.6017228,0.392595929 84.9679481,0.0356193025 85.4384638,0.0356193025 L85.4384638,0.0356193025 Z M84.7271609,2.18808472 L86.1709143,2.18808472 L86.1709143,7.6792246 L84.7271609,7.6792246 L84.7271609,2.18808472 L84.7271609,2.18808472 Z" id="Shape"></path>
                    <path d="M89.7375278,2.0515646 C91.4114971,2.0515646 92.6875174,3.29036231 92.6875174,4.94933099 C92.6875174,6.60829966 91.4533097,7.81573978 89.7375278,7.81573978 C88.0323221,7.81573978 86.7981095,6.60829472 86.7981095,4.94933099 C86.7981145,3.27975171 88.0746171,2.0515646 89.7375278,2.0515646 L89.7375278,2.0515646 Z M89.7375278,6.53497388 C90.6059925,6.53497388 91.2442414,5.88373581 91.2442414,4.94933099 C91.2442414,4.01492617 90.6059876,3.33233051 89.7375278,3.33233051 C88.8695454,3.33233051 88.2418678,4.00431063 88.2418678,4.94933099 C88.2418678,5.88373581 88.8796393,6.53497388 89.7375278,6.53497388 L89.7375278,6.53497388 Z" id="Shape"></path>
                    <path d="M98.0742083,4.50841798 L98.0742083,7.6792246 L96.6309323,7.6792246 L96.6309323,4.34054521 C96.6309323,3.73127533 96.2123182,3.35355665 95.7206549,3.35355665 C95.1246961,3.35355665 94.7478996,3.79446966 94.7478996,4.3825134 L94.7478996,7.6792246 L93.3041463,7.6792246 L93.3041463,2.18808472 L94.7166632,2.18808472 L94.7166632,2.8282281 C94.9468741,2.45050942 95.4697788,2.0515646 96.1810866,2.0515646 C97.7397019,2.0515646 98.0742083,3.34294605 98.0742083,4.50841798 L98.0742083,4.50841798 Z" id="Shape"></path>
                    <path d="M98.5870191,6.79739858 L99.4343363,6.04148207 C99.7058826,6.35649051 100.072108,6.63965725 100.689209,6.63965725 C101.097247,6.63965725 101.358699,6.46116894 101.358699,6.14616545 C101.358699,5.30630762 98.774935,5.63192665 98.774935,3.67869653 C98.774935,2.66035533 99.6433998,2.0515646 100.762741,2.0515646 C101.798456,2.0515646 102.37375,2.59715605 102.635202,3.02793762 L101.683112,3.74188593 C101.515861,3.53204497 101.212596,3.21703653 100.69978,3.21703653 C100.365274,3.21703653 100.135063,3.3849093 100.135063,3.65794954 C100.135063,4.52916003 102.729399,4.10947316 102.729399,6.07283472 C102.729399,7.14375966 101.80855,7.81573978 100.626726,7.81573978 C99.5492031,7.81573978 98.8797128,7.26966918 98.5870191,6.79739858 L98.5870191,6.79739858 Z" id="Shape"></path>
                </g>
                <path d="M187.874993,21.112 C187.874993,18.064 189.986993,15.712 193.010993,15.712 C196.058993,15.712 198.170993,18.064 198.170993,21.112 C198.170993,24.232 196.034993,26.536 193.010993,26.536 C189.986993,26.536 187.874993,24.232 187.874993,21.112 L187.874993,21.112 Z M186.626993,21.112 C186.626993,24.904 189.338993,27.664 193.010993,27.664 C196.658993,27.664 199.418993,24.856 199.418993,21.112 C199.418993,17.416 196.706993,14.584 193.034993,14.584 C189.362993,14.584 186.626993,17.368 186.626993,21.112 L186.626993,21.112 Z M200.839793,31.84 L202.039793,31.84 L202.039793,24.976 C202.447793,25.744 203.959793,27.664 206.791793,27.664 C210.295793,27.664 212.743793,24.928 212.743793,21.088 C212.743793,17.296 210.223793,14.584 206.671793,14.584 C203.671793,14.584 202.327793,16.72 202.039793,17.2 L202.039793,14.896 L200.839793,14.896 L200.839793,31.84 Z M201.991793,21.088 C201.991793,18.16 203.815793,15.712 206.719793,15.712 C209.383793,15.712 211.495793,17.824 211.495793,21.088 C211.495793,24.28 209.479793,26.536 206.767793,26.536 C204.175793,26.536 201.991793,24.544 201.991793,21.088 L201.991793,21.088 Z M213.300593,21.16 C213.300593,25.048 215.964593,27.664 219.636593,27.664 C222.324593,27.664 223.908593,26.296 224.724593,24.976 L223.932593,24.424 C223.212593,25.432 221.940593,26.56 219.636593,26.56 C216.660593,26.56 214.548593,24.64 214.548593,21.328 L225.156593,21.328 L225.156593,20.824 C225.156593,17.248 222.876593,14.584 219.300593,14.584 C216.132593,14.584 213.300593,17.08 213.300593,21.16 L213.300593,21.16 Z M214.620593,20.272 C214.860593,17.224 217.020593,15.688 219.276593,15.688 C221.628593,15.688 223.764593,17.152 223.908593,20.272 L214.620593,20.272 Z M231.641393,14.584 C229.889393,14.584 228.377393,15.616 227.753393,16.864 L227.753393,14.896 L226.553393,14.896 L226.553393,27.352 L227.753393,27.352 L227.753393,19.744 C227.753393,17.32 229.313393,15.688 231.497393,15.688 C233.441393,15.688 234.881393,17.08 234.881393,19.36 L234.881393,27.352 L236.081393,27.352 L236.081393,19.264 C236.081393,16.36 234.209393,14.584 231.641393,14.584 L231.641393,14.584 Z M237.310193,24.808 C237.814193,26.056 238.822193,27.664 241.510193,27.664 C243.766193,27.664 245.446193,26.2 245.446193,24.112 C245.446193,19.84 239.014193,20.944 239.014193,17.728 C239.014193,16.408 240.118193,15.64 241.462193,15.64 C243.262193,15.64 243.886193,16.672 244.222193,17.44 L245.206193,17.056 C244.918193,16.072 243.862193,14.584 241.558193,14.584 C239.446193,14.584 237.838193,15.808 237.838193,17.8 C237.838193,21.904 244.270193,20.8 244.270193,24.16 C244.270193,25.696 242.974193,26.584 241.558193,26.584 C239.710193,26.584 238.822193,25.504 238.342193,24.4 L237.310193,24.808 Z M246.914993,14.896 L245.378993,14.896 L245.378993,15.976 L246.914993,15.976 L246.914993,23.752 C246.914993,26.272 248.162993,27.496 250.130993,27.496 C250.586993,27.496 251.162993,27.448 251.162993,27.448 L251.162993,26.368 C251.162993,26.368 250.874993,26.392 250.610993,26.392 C248.738993,26.392 248.114993,25.696 248.114993,22.984 L248.114993,15.976 L251.042993,15.976 L251.042993,14.896 L248.114993,14.896 L248.114993,12.304 L246.914993,12.304 L246.914993,14.896 Z M251.359793,23.536 C251.359793,25.84 253.303793,27.664 256.135793,27.664 C257.935793,27.664 259.039793,26.944 259.711793,26.176 L259.927793,27.352 L260.911793,27.352 L260.911793,18.976 C260.911793,16.384 259.471793,14.584 256.375793,14.584 C254.263793,14.584 252.631793,15.472 251.959793,15.904 L252.463793,16.84 C253.327793,16.312 254.647793,15.688 256.303793,15.688 C258.343793,15.688 259.711793,16.816 259.711793,18.904 L259.711793,20.8 C259.159793,20.176 257.839793,19.456 256.135793,19.456 C253.375793,19.456 251.359793,21.184 251.359793,23.536 L251.359793,23.536 Z M252.583793,23.536 C252.583793,21.856 253.975793,20.56 256.183793,20.56 C258.367793,20.56 259.783793,21.76 259.783793,23.536 C259.783793,25.264 258.319793,26.56 256.207793,26.56 C253.975793,26.56 252.583793,25.192 252.583793,23.536 L252.583793,23.536 Z M272.940593,16.48 C272.388593,15.856 270.828593,14.584 268.356593,14.584 C264.804593,14.584 262.116593,17.464 262.116593,21.112 C262.116593,24.76 264.732593,27.664 268.356593,27.664 C270.948593,27.664 272.580593,26.176 272.964593,25.672 L272.532593,24.616 C272.052593,25.144 270.684593,26.536 268.380593,26.536 C265.572593,26.536 263.388593,24.088 263.388593,21.112 C263.388593,18.064 265.500593,15.712 268.356593,15.712 C270.588593,15.712 272.004593,17.008 272.460593,17.536 L272.940593,16.48 Z M274.313393,27.352 L275.513393,27.352 L275.513393,20.656 L281.561393,27.352 L283.169393,27.352 L276.833393,20.488 L282.857393,14.896 L281.249393,14.896 L275.513393,20.296 L275.513393,10 L274.313393,10 L274.313393,27.352 Z M299.906993,10 L298.706993,10 L298.706993,17.272 C298.298993,16.504 296.786993,14.584 293.954993,14.584 C290.450993,14.584 288.002993,17.32 288.002993,21.16 C288.002993,24.952 290.522993,27.664 294.074993,27.664 C297.074993,27.664 298.418993,25.528 298.706993,25.048 L298.706993,27.352 L299.906993,27.352 L299.906993,10 Z M298.754993,21.16 C298.754993,24.088 296.930993,26.536 294.026993,26.536 C291.362993,26.536 289.250993,24.424 289.250993,21.16 C289.250993,17.968 291.266993,15.712 293.978993,15.712 C296.570993,15.712 298.754993,17.704 298.754993,21.16 L298.754993,21.16 Z M301.375793,23.536 C301.375793,25.84 303.319793,27.664 306.151793,27.664 C307.951793,27.664 309.055793,26.944 309.727793,26.176 L309.943793,27.352 L310.927793,27.352 L310.927793,18.976 C310.927793,16.384 309.487793,14.584 306.391793,14.584 C304.279793,14.584 302.647793,15.472 301.975793,15.904 L302.479793,16.84 C303.343793,16.312 304.663793,15.688 306.319793,15.688 C308.359793,15.688 309.727793,16.816 309.727793,18.904 L309.727793,20.8 C309.175793,20.176 307.855793,19.456 306.151793,19.456 C303.391793,19.456 301.375793,21.184 301.375793,23.536 L301.375793,23.536 Z M302.599793,23.536 C302.599793,21.856 303.991793,20.56 306.199793,20.56 C308.383793,20.56 309.799793,21.76 309.799793,23.536 C309.799793,25.264 308.335793,26.56 306.223793,26.56 C303.991793,26.56 302.599793,25.192 302.599793,23.536 L302.599793,23.536 Z M312.036593,24.808 C312.540593,26.056 313.548593,27.664 316.236593,27.664 C318.492593,27.664 320.172593,26.2 320.172593,24.112 C320.172593,19.84 313.740593,20.944 313.740593,17.728 C313.740593,16.408 314.844593,15.64 316.188593,15.64 C317.988593,15.64 318.612593,16.672 318.948593,17.44 L319.932593,17.056 C319.644593,16.072 318.588593,14.584 316.284593,14.584 C314.172593,14.584 312.564593,15.808 312.564593,17.8 C312.564593,21.904 318.996593,20.8 318.996593,24.16 C318.996593,25.696 317.700593,26.584 316.284593,26.584 C314.436593,26.584 313.548593,25.504 313.068593,24.4 L312.036593,24.808 Z M326.657393,14.584 C324.905393,14.584 323.393393,15.616 322.769393,16.864 L322.769393,10 L321.569393,10 L321.569393,27.352 L322.769393,27.352 L322.769393,19.744 C322.769393,17.32 324.329393,15.688 326.513393,15.688 C328.457393,15.688 329.897393,17.08 329.897393,19.36 L329.897393,27.352 L331.097393,27.352 L331.097393,19.264 C331.097393,16.36 329.225393,14.584 326.657393,14.584 L326.657393,14.584 Z M333.310193,27.352 L334.510193,27.352 L334.510193,25.048 C334.798193,25.528 336.142193,27.664 339.142193,27.664 C342.694193,27.664 345.214193,24.952 345.214193,21.16 C345.214193,17.32 342.766193,14.584 339.262193,14.584 C336.430193,14.584 334.918193,16.504 334.510193,17.272 L334.510193,10 L333.310193,10 L333.310193,27.352 Z M334.462193,21.16 C334.462193,17.704 336.646193,15.712 339.238193,15.712 C341.950193,15.712 343.966193,17.968 343.966193,21.16 C343.966193,24.424 341.854193,26.536 339.190193,26.536 C336.286193,26.536 334.462193,24.088 334.462193,21.16 L334.462193,21.16 Z M346.994993,21.112 C346.994993,18.064 349.106993,15.712 352.130993,15.712 C355.178993,15.712 357.290993,18.064 357.290993,21.112 C357.290993,24.232 355.154993,26.536 352.130993,26.536 C349.106993,26.536 346.994993,24.232 346.994993,21.112 L346.994993,21.112 Z M345.746993,21.112 C345.746993,24.904 348.458993,27.664 352.130993,27.664 C355.778993,27.664 358.538993,24.856 358.538993,21.112 C358.538993,17.416 355.826993,14.584 352.154993,14.584 C348.482993,14.584 345.746993,17.368 345.746993,21.112 L345.746993,21.112 Z M359.095793,23.536 C359.095793,25.84 361.039793,27.664 363.871793,27.664 C365.671793,27.664 366.775793,26.944 367.447793,26.176 L367.663793,27.352 L368.647793,27.352 L368.647793,18.976 C368.647793,16.384 367.207793,14.584 364.111793,14.584 C361.999793,14.584 360.367793,15.472 359.695793,15.904 L360.199793,16.84 C361.063793,16.312 362.383793,15.688 364.039793,15.688 C366.079793,15.688 367.447793,16.816 367.447793,18.904 L367.447793,20.8 C366.895793,20.176 365.575793,19.456 363.871793,19.456 C361.111793,19.456 359.095793,21.184 359.095793,23.536 L359.095793,23.536 Z M360.319793,23.536 C360.319793,21.856 361.711793,20.56 363.919793,20.56 C366.103793,20.56 367.519793,21.76 367.519793,23.536 C367.519793,25.264 366.055793,26.56 363.943793,26.56 C361.711793,26.56 360.319793,25.192 360.319793,23.536 L360.319793,23.536 Z M375.780593,14.584 C373.764593,14.584 372.324593,15.88 371.940593,17.128 L371.940593,14.896 L370.740593,14.896 L370.740593,27.352 L371.940593,27.352 L371.940593,20.776 C371.940593,18.184 372.828593,15.76 375.780593,15.76 L375.780593,14.584 Z M388.049393,10 L386.849393,10 L386.849393,17.272 C386.441393,16.504 384.929393,14.584 382.097393,14.584 C378.593393,14.584 376.145393,17.32 376.145393,21.16 C376.145393,24.952 378.665393,27.664 382.217393,27.664 C385.217393,27.664 386.561393,25.528 386.849393,25.048 L386.849393,27.352 L388.049393,27.352 L388.049393,10 Z M386.897393,21.16 C386.897393,24.088 385.073393,26.536 382.169393,26.536 C379.505393,26.536 377.393393,24.424 377.393393,21.16 C377.393393,17.968 379.409393,15.712 382.121393,15.712 C384.713393,15.712 386.897393,17.704 386.897393,21.16 L386.897393,21.16 Z" id="openstack-dashboard" fill="#FFFFFF"></path>
                <path d="M176.917995,5.5 L176.917995,38.5605507" id="Line" stroke="#FFFFFF" stroke-linecap="round" stroke-linejoin="round"></path>
            </g>
        </g>
    </g>
</svg>