<?xml version="1.0" encoding="UTF-8" standalone="no"?>
<svg width="173px" height="174px" viewBox="0 0 173 174" version="1.1" xmlns="http://www.w3.org/2000/svg" xmlns:xlink="http://www.w3.org/1999/xlink">
    <!-- Generator: Sketch 3.8.2 (29753) - http://www.bohemiancoding.com/sketch -->
    <title>cloudbase-splash</title>
    <desc>Created with Sketch.</desc>
    <defs></defs>
    <g id="Page-1" stroke="none" stroke-width="1" fill="none" fill-rule="evenodd">
        <g id="cloudbase-splash">
            <g>
                <g id="CBSL_Logo_2016_RGB_Vertical">
                    <g id="Layer_1">
                        <g id="Group">
                            <path d="M148.213398,55.5440889 C148.00902,47.0544136 140.902509,39.931838 132.431761,39.7271523 C129.75414,39.662377 127.077451,39.662377 124.399629,39.7271523 C124.388412,39.7274634 124.377202,39.7285398 124.365984,39.7288425 C124.54937,31.9612139 124.410688,24.198967 123.933769,16.422307 C123.448503,8.51148 116.625288,1.67287932 108.732082,1.18658159 C97.5243188,0.496052273 86.3468191,0.496212045 75.1390474,1.1866825 C67.24585,1.67288773 60.4226267,8.51163136 59.9374105,16.4225173 C59.8188564,18.3551618 59.7282669,20.28673 59.6505817,22.217987 C58.5517198,21.9323639 57.4142377,21.7603727 56.2504437,21.725988 C52.9987124,21.6297039 49.7486172,21.6254909 46.4966845,21.7130548 C39.7985682,21.893413 33.9183329,26.4868452 31.7237303,32.6157186 C26.4816234,32.4294573 21.2438123,32.4335189 16.0000105,32.6502127 C7.8014082,32.9889477 0.825381854,39.9621695 0.46578439,48.1782298 C0.210452488,54.0104977 0.202767024,59.8356264 0.442585366,65.668567 C0.780569561,73.8856532 7.73816254,80.8773498 15.9358587,81.2378055 C17.9771883,81.3275725 20.0172425,81.3756136 22.0573471,81.4043055 C22.1247376,86.1187614 22.3056648,90.8345627 22.606606,95.5557459 C23.1052047,103.376957 29.9095247,110.19657 37.7132066,110.696264 C49.8584203,111.473936 61.9680006,111.473936 74.1131639,110.696213 C81.9168459,110.196511 88.7212246,103.376856 89.219798,95.5557459 C89.2576968,94.9600123 89.2851916,94.3647495 89.319449,93.7691757 C91.1219922,94.5928377 93.0829768,95.0905886 95.1206146,95.1784048 C101.038698,95.4333852 106.949046,95.4333852 112.86708,95.1783039 C121.065237,94.825038 128.028208,87.846367 128.380783,79.6300545 C128.383242,79.573083 128.383854,79.5163216 128.386312,79.45935 C129.734776,79.4596611 131.08313,79.4438016 132.431903,79.411208 C140.902492,79.2064214 148.009004,72.0838457 148.21339,63.5942714 C148.277869,60.9105268 148.278028,58.2278755 148.213398,55.5440889 L148.213398,55.5440889 Z" id="Shape" fill="#5FA3E0"></path>
                            <g transform="translate(0.000000, 110.159091)" id="Shape" fill="#0B141F">
                                <g transform="translate(0.000000, 3.363636)">
                                    <path d="M16.1510098,27.7124702 L17.6019766,32.1532943 C16.4254546,33.0964664 14.1901342,34.3545757 11.2094414,34.3545757 C4.81770322,34.3545757 0.26830322,29.8738925 0.26830322,23.6248532 C0.26830322,17.3758139 4.93542673,12.7771427 11.1704603,12.7771427 C14.1901259,12.7771427 16.3077227,13.9563075 17.6409577,14.9784073 L16.1112316,19.5372277 C15.2099432,18.712052 13.6412445,17.5719559 11.3271733,17.5719559 C7.83736878,17.5719559 5.68001054,20.2842745 5.68001054,23.5857845 C5.68001054,27.0834282 8.11181366,29.5597709 11.5236644,29.5597709 C13.6014747,29.5597625 15.2489243,28.4587182 16.1510098,27.7124702 L16.1510098,27.7124702 Z"></path>
                                    <polygon points="19.4045534 5.42705909 24.8162523 5.42705909 24.8162523 33.8435132 19.4045534 33.8435132"></polygon>
                                    <path d="M37.757247,12.7771343 C44.0312533,12.7771343 48.8161171,17.4148741 48.8161171,23.6248448 C48.8161171,29.8348155 44.1887633,34.3545673 37.757247,34.3545673 C31.3647118,34.3545673 26.737358,29.834807 26.737358,23.6248448 C26.737358,17.3758055 31.5222135,12.7771343 37.757247,12.7771343 L37.757247,12.7771343 Z M37.757247,29.5597625 C41.0115877,29.5597625 43.4044098,27.1224884 43.4044098,23.6248448 C43.4044098,20.1264023 41.0115793,17.5719475 37.757247,17.5719475 C34.5021093,17.5719475 32.149057,20.0873505 32.149057,23.6248448 C32.149057,27.1224884 34.5410903,29.5597625 37.757247,29.5597625 L37.757247,29.5597625 Z"></path>
                                    <path d="M50.5399346,25.1571998 L50.5399346,13.2881716 L55.9516336,13.2881716 L55.9516336,25.7862502 C55.9516336,28.0656605 57.5203323,29.480818 59.3634759,29.480818 C61.5987963,29.480818 63.0099934,27.8304582 63.0099934,25.6291852 L63.0099934,13.2881716 L68.4217007,13.2881716 L68.4217007,33.8435048 L63.1277253,33.8435048 L63.1277253,31.4460982 C62.265418,32.8612557 60.3045424,34.3545589 57.6380642,34.3545589 C51.7944187,34.3545673 50.5399346,29.519895 50.5399346,25.1571998 L50.5399346,25.1571998 Z"></path>
                                    <path d="M91.3627586,33.8435132 L86.2644773,33.8435132 L86.2644773,31.7211595 C85.7155875,32.389287 83.6767582,34.3545673 80.1861567,34.3545673 C74.3043188,34.3545673 70.147104,29.9129527 70.147104,23.5857677 C70.147104,17.21795 73.9909013,12.7771259 79.8727307,12.7771259 C83.402305,12.7771259 85.4411426,14.7423977 85.9510513,15.449577 L85.9510513,0.296311136 L91.3627586,0.296311136 L91.3627586,33.8435132 L91.3627586,33.8435132 Z M80.8527783,17.5719391 C77.7161696,17.5719391 75.5985811,20.048265 75.5985811,23.6248364 C75.5985811,27.2795534 77.7941233,29.5597541 80.8527783,29.5597541 C84.1468888,29.5597541 86.1077643,26.8864873 86.1077643,23.6248364 C86.1077727,19.7732036 83.8334712,17.5719391 80.8527783,17.5719391 L80.8527783,17.5719391 Z"></path>
                                    <path d="M94.3808384,0.296327955 L99.7925374,0.296327955 L99.7925374,15.4495939 C100.302446,14.7424145 102.341284,12.7771427 105.870858,12.7771427 C111.753484,12.7771427 115.596485,17.2179668 115.596485,23.5857845 C115.596485,29.9129695 111.43927,34.3545841 105.557432,34.3545841 C102.06683,34.3545841 100.027993,32.3892955 99.4791114,31.7211764 L99.4791114,33.84353 L94.38083,33.84353 L94.38083,0.296327955 L94.3808384,0.296327955 Z M104.890819,29.5597625 C107.949465,29.5597625 110.145008,27.2795618 110.145008,23.6248448 C110.145008,20.0482734 108.027428,17.5719475 104.890819,17.5719475 C101.910126,17.5719475 99.6358328,19.773212 99.6358328,23.6248448 C99.6358328,26.8864957 101.596708,29.5597625 104.890819,29.5597625 L104.890819,29.5597625 Z"></path>
                                    <path d="M124.261736,20.6773239 C126.340351,20.6773239 127.948023,21.305567 128.693395,21.8166211 L128.693395,20.480383 C128.693395,18.6721677 127.360152,17.4539427 124.968127,17.4539427 C122.928501,17.4539427 121.046376,18.1220534 119.516658,18.9081605 L117.477821,15.2135927 C119.320973,13.9562991 122.4186,12.7771259 125.555989,12.7771259 C132.144219,12.7771259 134.105103,16.2357009 134.105103,20.834372 L134.105103,33.8435048 L129.321044,33.8435048 L128.967849,32.5072666 C127.909059,33.6473627 126.340351,34.3545589 123.987308,34.3545589 C119.830873,34.3545589 116.301307,31.8000873 116.301307,27.4764691 C116.30129,23.4279207 119.477669,20.6773239 124.261736,20.6773239 L124.261736,20.6773239 Z M125.281553,30.1489455 C127.321179,30.1489455 128.811127,29.0487 128.811127,27.3194125 C128.811127,25.5111973 127.321188,24.4500205 125.242572,24.4500205 C123.163956,24.4500205 121.712998,25.6291852 121.712998,27.3194125 C121.712998,29.0088325 123.242715,30.1489455 125.281553,30.1489455 L125.281553,30.1489455 Z"></path>
                                    <path d="M135.516291,30.5419948 L138.69267,27.7124702 C139.711699,28.891635 141.084703,29.9528034 143.397986,29.9528034 C144.927703,29.9528034 145.907751,29.2846927 145.907751,28.105528 C145.907751,24.9610745 136.221894,26.1793164 136.221894,18.8691002 C136.221894,15.0565361 139.477032,12.7771259 143.672431,12.7771259 C147.555201,12.7771259 149.711762,14.8205434 150.692606,16.4318261 L147.124051,19.105093 C146.496411,18.3189775 145.35887,17.1398043 143.437764,17.1398043 C142.182483,17.1398043 141.320167,17.7688548 141.320167,18.7901641 C141.320167,22.0526139 151.045005,20.480383 151.045005,27.8304666 C151.045005,31.8391727 147.594182,34.3545673 143.163311,34.3545673 C139.123828,34.3545673 136.614071,32.3103593 135.516291,30.5419948 L135.516291,30.5419948 Z"></path>
                                    <path d="M161.67192,12.7771343 C168.024686,12.7771343 171.632222,17.0218164 171.632222,23.7428411 C171.632222,24.1358989 171.632222,24.5289566 171.593241,24.9220059 L157.162307,24.9220059 C157.279242,27.6726027 159.475581,29.6378914 162.495246,29.6378914 C165.279457,29.6378914 166.887128,27.9875316 167.475804,27.1224884 L171.04436,29.834807 C170.260006,31.2890332 167.514777,34.3545673 162.416504,34.3545673 C155.828275,34.3545673 151.632876,29.7949564 151.632876,23.6248448 C151.632868,17.4148741 155.828275,12.7771343 161.67192,12.7771343 L161.67192,12.7771343 Z M166.142561,21.3845032 C166.024829,18.8691002 164.220667,17.21795 161.749874,17.21795 C159.201144,17.21795 157.554484,19.0261568 157.319003,21.3845032 L166.142561,21.3845032 L166.142561,21.3845032 Z"></path>
                                </g>
                                <g transform="translate(103.200000, 0.000000)">
                                    <path d="M0.541338537,11.3037102 L1.94378459,10.0543716 C2.39323317,10.5750036 2.99939473,11.0429948 4.02080624,11.0429948 C4.69617893,11.0429948 5.12891415,10.7480039 5.12891415,10.2273886 C5.12891415,8.83932523 0.852381659,9.37749864 0.852381659,6.14933273 C0.852381659,4.46628682 2.28982341,3.46012227 4.14252351,3.46012227 C5.85679298,3.46012227 6.80898498,4.3618375 7.24173698,5.07381 L5.66588137,6.25377364 C5.38905366,5.9069575 4.88709054,5.38634227 4.03831668,5.38634227 C3.48466127,5.38634227 3.10361834,5.66379182 3.10361834,6.11505727 C3.10361834,7.55492909 7.39765288,6.86129682 7.39765288,10.1062052 C7.39765288,11.8761591 5.87350634,12.9867561 3.91739649,12.9867561 C2.13390751,12.9867477 1.02579122,12.0842336 0.541338537,11.3037102 L0.541338537,11.3037102 Z"></path>
                                    <path d="M12.6947998,3.46011386 C15.4654765,3.46011386 17.5774939,5.50751727 17.5774939,8.24934341 C17.5774939,10.9911695 15.5346876,12.9867477 12.6947998,12.9867477 C9.87241405,12.9867477 7.82959102,10.9911695 7.82959102,8.24934341 C7.82959941,5.48998432 9.94240546,3.46011386 12.6947998,3.46011386 L12.6947998,3.46011386 Z M12.6947998,10.8699861 C14.1322416,10.8699861 15.1886488,9.79366455 15.1886488,8.24934341 C15.1886488,6.70502227 14.1322416,5.57687545 12.6947998,5.57687545 C11.2581383,5.57687545 10.2192416,6.68748091 10.2192416,8.24934341 C10.21925,9.79365614 11.2748517,10.8699861 12.6947998,10.8699861 L12.6947998,10.8699861 Z"></path>
                                    <polygon points="18.5981083 0.214406591 20.9877588 0.214406591 20.9877588 12.761115 18.5981083 12.761115"></polygon>
                                    <path d="M22.4586105,8.92622477 L22.4586105,3.68573818 L24.8482443,3.68573818 L24.8482443,9.20367432 C24.8482443,10.2098389 25.541119,10.834895 26.3549056,10.834895 C27.341313,10.834895 27.9649766,10.10618 27.9649766,9.13430773 L27.9649766,3.68572977 L30.3538217,3.68572977 L30.3538217,12.7611066 L28.0166857,12.7611066 L28.0166857,11.7023264 C27.6356427,12.3273909 26.7701471,12.9867309 25.5928281,12.9867309 C23.013063,12.9867477 22.4586105,10.8524448 22.4586105,8.92622477 L22.4586105,8.92622477 Z"></path>
                                    <path d="M32.0331038,1.77626909 L34.3877419,1.77626909 L34.3877419,3.68573818 L36.0845177,3.68573818 L36.0845177,5.62870068 L34.3877419,5.62870068 L34.3877419,9.13431614 C34.3877419,10.4880873 34.8037805,10.7655368 35.7209852,10.7655368 C35.8769095,10.7655368 35.9636142,10.7655368 36.1545259,10.7479955 L36.1545259,12.7961977 C36.1545259,12.7961977 35.7901963,12.8823068 35.1323257,12.8823068 C32.9685992,12.8823068 32.0163988,11.6680509 32.0163988,9.20367432 L32.0163988,5.62869227 L31.0634098,5.62869227 L31.0634098,3.68572977 L32.0331122,3.68572977 L32.0331122,1.77626909 L32.0331038,1.77626909 Z"></path>
                                    <path d="M38.40416,0.1282975 C39.2012332,0.1282975 39.8065977,0.718287727 39.8065977,1.49881955 C39.8065977,2.28015023 39.2012332,2.87013205 38.40416,2.87013205 C37.6253692,2.87013205 37.0192076,2.28015023 37.0192076,1.49881955 C37.0192076,0.718296136 37.6253692,0.1282975 38.40416,0.1282975 L38.40416,0.1282975 Z M37.226841,3.68573818 L39.6164747,3.68573818 L39.6164747,12.761115 L37.226841,12.761115 L37.226841,3.68573818 L37.226841,3.68573818 Z"></path>
                                    <path d="M45.5197832,3.46011386 C48.2904767,3.46011386 50.4024857,5.50751727 50.4024857,8.24934341 C50.4024857,10.9911695 48.3596794,12.9867477 45.5197832,12.9867477 C42.6973975,12.9867477 40.6545912,10.9911695 40.6545912,8.24934341 C40.6545996,5.48998432 42.7674057,3.46011386 45.5197832,3.46011386 L45.5197832,3.46011386 Z M45.5197832,10.8699861 C46.9572334,10.8699861 48.013649,9.79366455 48.013649,8.24934341 C48.013649,6.70502227 46.9572418,5.57687545 45.5197832,5.57687545 C44.0831385,5.57687545 43.044225,6.68748091 43.044225,8.24934341 C43.0442334,9.79365614 44.0998519,10.8699861 45.5197832,10.8699861 L45.5197832,10.8699861 Z"></path>
                                    <path d="M59.3183196,7.52062841 L59.3183196,12.761115 L56.9294745,12.761115 L56.9294745,7.24317886 C56.9294745,6.23622386 56.2365998,5.61195818 55.4228133,5.61195818 C54.4364059,5.61195818 53.8127422,6.34067318 53.8127422,7.31254545 L53.8127422,12.7611234 L51.4231085,12.7611234 L51.4231085,3.68574659 L53.76105,3.68574659 L53.76105,4.74373636 C54.1420761,4.11947068 55.0075801,3.46012227 56.1848991,3.46012227 C58.7646642,3.46011386 59.3183196,5.59441682 59.3183196,7.52062841 L59.3183196,7.52062841 Z"></path>
                                    <path d="M60.1670935,11.3037102 L61.5695395,10.0543716 C62.0189965,10.5750036 62.625158,11.0429948 63.6465528,11.0429948 C64.3219255,11.0429948 64.7546691,10.7480039 64.7546691,10.2273886 C64.7546691,8.83932523 60.4781198,9.37749864 60.4781198,6.14933273 C60.4781198,4.46628682 61.91557,3.46012227 63.7682617,3.46012227 C65.4825395,3.46012227 66.4347399,4.3618375 66.8674751,5.07381 L65.2916195,6.25377364 C65.0147918,5.9069575 64.5128455,5.38634227 63.6640548,5.38634227 C63.1103994,5.38634227 62.7293565,5.66379182 62.7293565,6.11505727 C62.7293565,7.55492909 67.0233994,6.86129682 67.0233994,10.1062052 C67.0233994,11.8761591 65.4992529,12.9867561 63.543143,12.9867561 C61.7596624,12.9867477 60.6515545,12.0842336 60.1670935,11.3037102 L60.1670935,11.3037102 Z"></path>
                                </g>
                            </g>
                            <g id="Shape">
                                <path d="M47.9730905,43.4681718 C51.8545768,43.3595264 55.734687,43.3291275 59.6154098,43.3797586 C59.3548256,36.3238166 59.3665048,29.2746439 59.6505733,22.2180039 C58.5517534,21.9323723 57.4142377,21.7603895 56.2504773,21.7259964 C52.998704,21.6297375 49.7486172,21.6254993 46.4966929,21.7130716 C39.7986018,21.8934382 33.9183245,26.4868789 31.7237555,32.6157523 C32.299578,32.63622 32.875241,32.6479927 33.4512228,32.6733125 C39.9962172,32.9610884 45.7467477,37.4775018 47.9730905,43.4681718 L47.9730905,43.4681718 Z" fill="#1A7BD3"></path>
                                <path d="M22.6067571,59.074015 C22.9477953,53.7230918 26.2413352,48.842178 30.786322,46.13197 C30.7255179,43.2180098 30.7265918,40.3050502 30.812424,37.3910059 C30.8612552,35.7338432 31.1820226,34.1286991 31.7237555,32.6157355 C26.4816402,32.4294489 21.2438291,32.4335189 16.0000273,32.6502127 C7.80142498,32.9889393 0.825398634,39.9621611 0.46578439,48.1782634 C0.210427317,54.0104977 0.202750244,59.8356516 0.442593756,65.6685755 C0.780561171,73.8856784 7.73816254,80.877375 15.935842,81.237797 C17.9771631,81.3275977 20.0172509,81.3756136 22.0573471,81.4043139 C21.9507826,73.9633952 22.1316679,66.525403 22.6067571,59.074015 L22.6067571,59.074015 Z" fill="#525B78"></path>
                                <path d="M30.786322,46.1319784 C32.8844535,44.8808739 35.2485473,44.0913864 37.7132066,43.9334805 C41.1355703,43.7143311 44.5548716,43.5638168 47.9730905,43.4681718 C45.7467393,37.4775018 39.9962172,32.9610884 33.4512144,32.6733041 C32.875241,32.6479843 32.2995696,32.6362116 31.7237471,32.6157439 C31.1820142,34.1287075 30.8612468,35.7338516 30.8124156,37.3910143 C30.7265918,40.3050502 30.7255179,43.2180098 30.786322,46.1319784 L30.786322,46.1319784 Z" fill="#263256"></path>
                                <path d="M148.213398,55.5440805 C148.009029,47.0544305 140.902484,39.9318464 132.431786,39.7271691 C129.75414,39.662377 127.077426,39.662377 124.399629,39.7271691 C124.388428,39.7274802 124.377211,39.7285566 124.36601,39.7288593 C124.284473,43.1812284 124.145657,46.6345225 123.933761,50.0908943 C123.9075,50.5183452 123.859289,50.9419448 123.796941,51.3622395 C126.473815,54.152233 128.209412,57.8502316 128.380775,61.8433893 C128.632918,67.7179382 128.633523,73.5849525 128.386304,79.4593584 C129.734801,79.4596695 131.083138,79.44381 132.431945,79.4111911 C140.902484,79.2064298 148.009037,72.0838457 148.213407,63.5942714 C148.277894,60.910552 148.278054,58.2278923 148.213398,55.5440805 L148.213398,55.5440805 Z" fill="#19A2FF"></path>
                                <path d="M128.380766,61.8433977 C128.209404,57.8502316 126.473807,54.1522414 123.796933,51.362248 C122.70579,58.7124493 116.214695,64.8508502 108.759585,65.32424 C108.750381,65.3248539 108.74132,65.32609 108.731948,65.3266955 C102.335889,65.7206698 95.949512,65.8818805 89.5617424,65.8262459 C89.9364088,75.1427786 89.8557953,84.4468491 89.3194322,93.7691673 C91.1219754,94.5928209 93.0829936,95.090597 95.1206314,95.1784048 C101.038682,95.4334105 106.949055,95.4334105 112.867096,95.1783291 C121.065237,94.8250548 128.028208,87.846367 128.380766,79.6300377 C128.383225,79.5730998 128.383837,79.5163048 128.386296,79.4593668 C128.633514,73.5849609 128.63291,67.7179466 128.380766,61.8433977 L128.380766,61.8433977 Z" fill="#1A7BD3"></path>
                                <path d="M71.8932816,37.4454884 C71.9500919,39.5678841 71.9536242,41.6895061 71.9327409,43.8112039 C72.6596632,43.852215 73.3862667,43.8868436 74.1133401,43.933472 C78.6044279,44.2210293 82.761542,46.6041993 85.5792209,50.0644225 C88.2333655,47.8529241 91.559921,46.4485386 95.1204804,46.2950223 C100.716538,46.0538664 106.305674,46.0489386 111.900809,46.2637825 C114.802172,42.4255959 119.342552,39.8612857 124.36601,39.7288593 C124.549345,31.9612223 124.410688,24.1989586 123.933761,16.4223155 C123.448536,8.51147159 116.625288,1.67290455 108.732099,1.18659 C97.5243356,0.496052273 86.3468275,0.496212045 75.1390558,1.18666568 C67.2458667,1.67290455 60.4226351,8.51162295 59.9374021,16.4225425 C59.8188648,18.3551786 59.7282669,20.2867384 59.6505649,22.2179955 C66.4369633,23.9816593 71.700113,30.2416557 71.8932816,37.4454884 L71.8932816,37.4454884 Z" fill="#525B78"></path>
                                <path d="M59.6154098,43.3797586 C63.7193885,43.4333161 67.8244496,43.5795166 71.9327325,43.8112123 C71.9536158,41.6895145 71.9500835,39.5678841 71.8932732,37.4454968 C71.7001046,30.2416557 66.4369549,23.9816677 59.6505649,22.2180123 C59.3665048,29.2746439 59.354834,36.3238166 59.6154098,43.3797586 L59.6154098,43.3797586 Z" fill="#263256"></path>
                                <path d="M111.900809,46.2637909 C112.222961,46.2761775 112.544953,46.2811809 112.867256,46.2950307 C117.081029,46.4766334 120.965586,48.4114223 123.796941,51.362248 C123.859289,50.9419532 123.9075,50.5183536 123.933761,50.0909027 C124.145657,46.6345309 124.284473,43.1812368 124.36601,39.7288677 C119.342552,39.8612857 114.802172,42.4255959 111.900809,46.2637909 L111.900809,46.2637909 Z" fill="#3C4667"></path>
                                <path d="M112.867256,46.2950307 C112.544953,46.2811809 112.222961,46.2761775 111.900809,46.2637909 C106.305674,46.048947 100.716538,46.0538748 95.1204804,46.2950307 C91.559921,46.448547 88.2333655,47.8529325 85.5792209,50.0644309 C87.657392,52.6166573 89.0081877,55.7539293 89.2197813,59.0738636 C89.3633551,61.325835 89.4712956,63.5762759 89.5617424,65.8262459 C95.949512,65.8818805 102.335889,65.7206698 108.731948,65.3266955 C108.74132,65.32609 108.750381,65.3248539 108.759585,65.32424 C116.214695,64.8508502 122.70579,58.7124409 123.796933,51.362248 C120.965586,48.4114223 117.081029,46.476625 112.867256,46.2950307 L112.867256,46.2950307 Z" fill="#263256"></path>
                                <path d="M79.6069614,79.629878 C79.4056542,74.937252 79.3701887,70.2495539 79.4875011,65.5589293 C78.038422,65.4927498 76.5890494,65.4161093 75.1390558,65.3266955 C71.0651645,65.0758439 67.2790334,63.1299718 64.4995889,60.2207039 C62.0728535,61.8344757 59.2184673,62.8175657 56.1959575,62.8989741 C53.8016252,62.963455 51.4082074,62.9609995 49.0144792,62.9258327 C48.9862293,63.8614534 48.9622667,64.79699 48.921272,65.7329891 C48.5616494,73.9490914 41.5856314,80.9222375 33.3870291,81.2608884 C29.608575,81.4170957 25.8333428,81.4574173 22.0573471,81.4043223 C22.1247543,86.1188034 22.3056396,90.834588 22.6065977,95.5557627 C23.1051795,103.376957 29.9095331,110.196587 37.7131982,110.696306 C49.8583951,111.473945 61.967967,111.473945 74.1131723,110.69623 C81.9168375,110.19652 88.721191,103.376882 89.2197729,95.5557627 C89.2576968,94.9600291 89.2851832,94.3647495 89.3194238,93.7691673 C83.8698765,91.2788823 79.8718414,85.804152 79.6069614,79.629878 L79.6069614,79.629878 Z" fill="#19A2FF"></path>
                                <path d="M59.6154098,43.3797586 C55.734687,43.3291275 51.8545852,43.3595264 47.9730905,43.4681718 C48.5352453,44.9808243 48.8764345,46.5858927 48.9444626,48.2424416 C49.1459208,53.139442 49.1621979,58.0310523 49.0144792,62.9258243 C51.4082074,62.9609911 53.8016168,62.963455 56.1959575,62.8989657 C59.2184757,62.8175573 62.0728535,61.8344673 64.4995889,60.2206955 C61.8936546,57.4930302 60.1720353,53.9187714 59.9374021,50.0908943 C59.8001294,47.8527727 59.6978691,45.6160386 59.6154098,43.3797586 L59.6154098,43.3797586 Z" fill="#8CD0FF"></path>
                                <path d="M33.3870375,81.26088 C41.5856398,80.9222291 48.5616661,73.949083 48.9212804,65.7329807 C48.9622751,64.7969816 48.9862377,63.8614366 49.0144876,62.9258243 C48.157206,62.913278 47.2997735,62.9114364 46.4423409,62.8860409 C38.0914137,62.6390407 31.0238749,55.5369243 30.7995366,47.1665489 C30.7901647,46.8216668 30.793546,46.4768605 30.7863303,46.1319784 C26.2413436,48.842178 22.9478037,53.7231002 22.6067655,59.0740234 C22.1316763,66.5254114 21.950791,73.9633952 22.0573555,81.4043223 C25.8333512,81.4574089 29.6085834,81.4170873 33.3870375,81.26088 L33.3870375,81.26088 Z" fill="#8CD0FF"></path>
                                <path d="M48.9444626,48.2424416 C48.8764429,46.5858927 48.5352453,44.9808243 47.9730905,43.4681718 C44.5548716,43.5638168 41.1355703,43.7143311 37.7132066,43.9334805 C35.2485473,44.091378 32.8844535,44.8808739 30.786322,46.1319784 C30.7935376,46.4768605 30.7901563,46.8216668 30.7995282,47.1665489 C31.0238665,55.5369327 38.0914053,62.6390407 46.4423325,62.8860409 C47.2997651,62.9114364 48.1571977,62.913278 49.0144792,62.9258243 C49.1622062,58.0310523 49.1459208,53.139442 48.9444626,48.2424416 L48.9444626,48.2424416 Z" fill="#5FA3E0"></path>
                                <path d="M89.5617424,65.8262459 C86.2046297,65.7969234 82.8470638,65.7123616 79.4875011,65.5589293 C79.3701887,70.2495539 79.4056542,74.937252 79.6069614,79.629878 C79.8718414,85.804152 83.8698765,91.2788823 89.3194322,93.7691673 C89.8557953,84.4468575 89.9364088,75.142787 89.5617424,65.8262459 L89.5617424,65.8262459 Z" fill="#8CD0FF"></path>
                                <path d="M89.2197813,59.0738636 C89.0081877,55.7539209 87.657392,52.6166573 85.5792209,50.0644309 C82.761542,46.6042077 78.6044279,44.2210377 74.1133401,43.9334805 C73.3862667,43.886852 72.6596632,43.8522234 71.9327409,43.8112123 C67.824458,43.579525 63.7193969,43.4333161 59.6154181,43.3797586 C59.6978691,45.6160386 59.8001378,47.8527727 59.9374105,50.0909027 C60.1720437,53.9187798 61.893663,57.4930386 64.4995973,60.2207039 C67.2790418,63.1299718 71.0651729,65.0758439 75.1390642,65.3266955 C76.5890578,65.4161093 78.0384304,65.4927498 79.4875095,65.5589293 C82.8470722,65.7123616 86.204638,65.7969318 89.5617508,65.8262459 C89.471304,63.5762759 89.3633551,61.325835 89.2197813,59.0738636 L89.2197813,59.0738636 Z" fill="#5FA3E0"></path>
                            </g>
                        </g>
                    </g>
                </g>
                <path d="M0.720000107,167.4 C0.720000107,170.728 3.16800011,173.208 6.41600011,173.208 C9.68000011,173.208 12.1440001,170.696 12.1440001,167.4 C12.1440001,164.136 9.69600011,161.592 6.43200011,161.592 C3.18400011,161.592 0.720000107,164.104 0.720000107,167.4 L0.720000107,167.4 Z M2.06400011,167.4 C2.06400011,164.776 3.95200011,162.808 6.43200011,162.808 C8.91200011,162.808 10.8000001,164.776 10.8000001,167.4 C10.8000001,170.056 8.91200011,171.992 6.43200011,171.992 C3.95200011,171.992 2.06400011,170.056 2.06400011,167.4 L2.06400011,167.4 Z M13.7320001,173 L15.0280001,173 L15.0280001,168.312 L16.8040001,168.312 C18.7720001,168.312 20.1480001,167.048 20.1480001,165.032 C20.1480001,163 18.8360001,161.8 16.8040001,161.8 L13.7320001,161.8 L13.7320001,173 Z M15.0280001,167.16 L15.0280001,162.952 L16.6920001,162.952 C18.0360001,162.952 18.8200001,163.752 18.8200001,165.032 C18.8200001,166.328 18.0360001,167.16 16.6920001,167.16 L15.0280001,167.16 Z M21.5600001,173 L27.0480001,173 L27.0480001,171.832 L22.8560001,171.832 L22.8560001,167.88 L26.3600001,167.88 L26.3600001,166.712 L22.8560001,166.712 L22.8560001,162.984 L26.8720001,162.984 L26.8720001,161.8 L21.5600001,161.8 L21.5600001,173 Z M28.8280001,173 L30.1240001,173 L30.1240001,163.88 L36.3000001,173 L37.5800001,173 L37.5800001,161.8 L36.3000001,161.8 L36.3000001,170.952 L30.1240001,161.8 L28.8280001,161.8 L28.8280001,173 Z M39.0880001,170.744 C39.4400001,171.816 40.4160001,173.208 42.5920001,173.208 C44.6880001,173.208 45.9840001,171.832 45.9840001,170.072 C45.9840001,166.488 40.7200001,167.016 40.7200001,164.456 C40.7200001,163.528 41.3760001,162.776 42.6080001,162.776 C43.8400001,162.776 44.4480001,163.624 44.7040001,164.184 L45.7920001,163.736 C45.5200001,162.984 44.6240001,161.592 42.6240001,161.592 C40.6400001,161.592 39.4240001,162.856 39.4240001,164.456 C39.4240001,168.072 44.6720001,167.352 44.6720001,170.152 C44.6720001,171.32 43.8240001,172.008 42.6400001,172.008 C41.1680001,172.008 40.4960001,171.128 40.1920001,170.264 L39.0880001,170.744 Z M49.7,173 L50.996,173 L50.996,162.984 L54.004,162.984 L54.004,161.8 L46.676,161.8 L46.676,162.984 L49.7,162.984 L49.7,173 Z M60.488,169.368 L61.832,173 L63.144,173 L58.952,161.8 L57.64,161.8 L53.448,173 L54.76,173 L56.104,169.368 L60.488,169.368 Z M60.104,168.248 L56.504,168.248 L58.296,163.224 L60.104,168.248 Z M72.252,170.792 C71.868,171.112 70.764,171.992 69.068,171.992 C66.476,171.992 64.7,170.008 64.7,167.4 C64.7,164.792 66.556,162.808 69.036,162.808 C70.524,162.808 71.628,163.56 72.06,163.912 L72.476,162.76 C71.884,162.28 70.684,161.592 69.004,161.592 C65.836,161.592 63.356,164.104 63.356,167.4 C63.356,170.712 65.756,173.208 69.036,173.208 C70.924,173.208 72.22,172.312 72.652,171.928 L72.252,170.792 Z M74.192,173 L75.488,173 L75.488,167.368 L80.128,173 L81.712,173 L76.816,167.16 L81.52,161.8 L79.952,161.8 L75.488,166.952 L75.488,161.8 L74.192,161.8 L74.192,173 Z M86.696,173 L89,173 C92.744,173 95,171.112 95,167.4 C95,163.896 92.824,161.8 89,161.8 L86.696,161.8 L86.696,173 Z M87.992,171.848 L87.992,162.968 L89.256,162.968 C91.944,162.968 93.672,164.6 93.672,167.4 C93.672,170.328 91.944,171.848 89.256,171.848 L87.992,171.848 Z M102.556,169.368 L103.9,173 L105.212,173 L101.02,161.8 L99.708,161.8 L95.516,173 L96.828,173 L98.172,169.368 L102.556,169.368 Z M102.172,168.248 L98.572,168.248 L100.364,163.224 L102.172,168.248 Z M105.664,170.744 C106.016,171.816 106.992,173.208 109.168,173.208 C111.264,173.208 112.56,171.832 112.56,170.072 C112.56,166.488 107.296,167.016 107.296,164.456 C107.296,163.528 107.952,162.776 109.184,162.776 C110.416,162.776 111.024,163.624 111.28,164.184 L112.368,163.736 C112.096,162.984 111.2,161.592 109.2,161.592 C107.216,161.592 106,162.856 106,164.456 C106,168.072 111.248,167.352 111.248,170.152 C111.248,171.32 110.4,172.008 109.216,172.008 C107.744,172.008 107.072,171.128 106.768,170.264 L105.664,170.744 Z M114.18,173 L115.476,173 L115.476,167.896 L121.428,167.896 L121.428,173 L122.724,173 L122.724,161.8 L121.428,161.8 L121.428,166.712 L115.476,166.712 L115.476,161.8 L114.18,161.8 L114.18,173 Z M124.952,173 L128.376,173 C130.296,173 131.752,171.832 131.752,169.816 C131.752,168.456 131,167.512 129.928,167.128 C130.808,166.648 131.368,165.784 131.368,164.664 C131.368,162.888 130.168,161.8 128.04,161.8 L124.952,161.8 L124.952,173 Z M126.248,166.648 L126.248,162.952 L128.184,162.952 C129.384,162.952 130.04,163.656 130.04,164.76 C130.04,165.896 129.304,166.648 128.184,166.648 L126.248,166.648 Z M126.248,171.864 L126.248,167.736 L128.136,167.736 C129.432,167.736 130.408,168.312 130.408,169.784 C130.408,171.224 129.48,171.864 128.152,171.864 L126.248,171.864 Z M132.7,167.4 C132.7,170.728 135.148,173.208 138.396,173.208 C141.66,173.208 144.124,170.696 144.124,167.4 C144.124,164.136 141.676,161.592 138.412,161.592 C135.164,161.592 132.7,164.104 132.7,167.4 L132.7,167.4 Z M134.044,167.4 C134.044,164.776 135.932,162.808 138.412,162.808 C140.892,162.808 142.78,164.776 142.78,167.4 C142.78,170.056 140.892,171.992 138.412,171.992 C135.932,171.992 134.044,170.056 134.044,167.4 L134.044,167.4 Z M151.68,169.368 L153.024,173 L154.336,173 L150.144,161.8 L148.832,161.8 L144.64,173 L145.952,173 L147.296,169.368 L151.68,169.368 Z M151.296,168.248 L147.696,168.248 L149.488,163.224 L151.296,168.248 Z M155.508,173 L156.804,173 L156.804,168.136 L158.708,168.136 L161.236,173 L162.676,173 L159.892,167.864 C161.188,167.448 161.844,166.232 161.844,164.904 C161.844,162.952 160.644,161.8 158.356,161.8 L155.508,161.8 L155.508,173 Z M156.804,167 L156.804,162.952 L158.276,162.952 C159.86,162.952 160.484,163.736 160.484,164.92 C160.484,166.392 159.668,167 158.356,167 L156.804,167 Z M163.96,173 L166.264,173 C170.008,173 172.264,171.112 172.264,167.4 C172.264,163.896 170.088,161.8 166.264,161.8 L163.96,161.8 L163.96,173 Z M165.256,171.848 L165.256,162.968 L166.52,162.968 C169.208,162.968 170.936,164.6 170.936,167.4 C170.936,170.328 169.208,171.848 166.52,171.848 L165.256,171.848 Z" id="OPENSTACK-DASHBOARD" fill="#1A7BD3"></path>
            </g>
        </g>
    </g>
</svg>