<?xml version="1.0" encoding="UTF-8"?>
<svg width="172px" height="174px" viewBox="0 0 172 174" version="1.1" xmlns="http://www.w3.org/2000/svg" xmlns:xlink="http://www.w3.org/1999/xlink">
    <!-- Generator: Sketch 46.2 (44496) - http://www.bohemiancoding.com/sketch -->
    <title>cloudbase-splash</title>
    <desc>Created with Sketch.</desc>
    <defs></defs>
    <g id="Page-1" stroke="none" stroke-width="1" fill="none" fill-rule="evenodd">
        <g id="cloudbase-splash">
            <g id="Group-2">
                <g id="Group" transform="translate(0.000000, 110.159091)" fill-rule="nonzero" fill="#0B141F">
                    <g transform="translate(0.000000, 3.363636)" id="Shape">
                        <path d="M16.1510098,27.7124702 L17.6019766,32.1532943 C16.4254546,33.0964664 14.1901342,34.3545757 11.2094414,34.3545757 C4.81770322,34.3545757 0.26830322,29.8738925 0.26830322,23.6248532 C0.26830322,17.3758139 4.93542673,12.7771427 11.1704603,12.7771427 C14.1901259,12.7771427 16.3077227,13.9563075 17.6409577,14.9784073 L16.1112316,19.5372277 C15.2099432,18.712052 13.6412445,17.5719559 11.3271733,17.5719559 C7.83736878,17.5719559 5.68001054,20.2842745 5.68001054,23.5857845 C5.68001054,27.0834282 8.11181366,29.5597709 11.5236644,29.5597709 C13.6014747,29.5597625 15.2489243,28.4587182 16.1510098,27.7124702 Z"></path>
                        <polygon points="19.4045534 5.42705909 24.8162523 5.42705909 24.8162523 33.8435132 19.4045534 33.8435132"></polygon>
                        <path d="M37.757247,12.7771343 C44.0312533,12.7771343 48.8161171,17.4148741 48.8161171,23.6248448 C48.8161171,29.8348155 44.1887633,34.3545673 37.757247,34.3545673 C31.3647118,34.3545673 26.737358,29.834807 26.737358,23.6248448 C26.737358,17.3758055 31.5222135,12.7771343 37.757247,12.7771343 Z M37.757247,29.5597625 C41.0115877,29.5597625 43.4044098,27.1224884 43.4044098,23.6248448 C43.4044098,20.1264023 41.0115793,17.5719475 37.757247,17.5719475 C34.5021093,17.5719475 32.149057,20.0873505 32.149057,23.6248448 C32.149057,27.1224884 34.5410903,29.5597625 37.757247,29.5597625 Z"></path>
                        <path d="M50.5399346,25.1571998 L50.5399346,13.2881716 L55.9516336,13.2881716 L55.9516336,25.7862502 C55.9516336,28.0656605 57.5203323,29.480818 59.3634759,29.480818 C61.5987963,29.480818 63.0099934,27.8304582 63.0099934,25.6291852 L63.0099934,13.2881716 L68.4217007,13.2881716 L68.4217007,33.8435048 L63.1277253,33.8435048 L63.1277253,31.4460982 C62.265418,32.8612557 60.3045424,34.3545589 57.6380642,34.3545589 C51.7944187,34.3545673 50.5399346,29.519895 50.5399346,25.1571998 Z"></path>
                        <path d="M91.3627586,33.8435132 L86.2644773,33.8435132 L86.2644773,31.7211595 C85.7155875,32.389287 83.6767582,34.3545673 80.1861567,34.3545673 C74.3043188,34.3545673 70.147104,29.9129527 70.147104,23.5857677 C70.147104,17.21795 73.9909013,12.7771259 79.8727307,12.7771259 C83.402305,12.7771259 85.4411426,14.7423977 85.9510513,15.449577 L85.9510513,0.296311136 L91.3627586,0.296311136 L91.3627586,33.8435132 Z M80.8527783,17.5719391 C77.7161696,17.5719391 75.5985811,20.048265 75.5985811,23.6248364 C75.5985811,27.2795534 77.7941233,29.5597541 80.8527783,29.5597541 C84.1468888,29.5597541 86.1077643,26.8864873 86.1077643,23.6248364 C86.1077727,19.7732036 83.8334712,17.5719391 80.8527783,17.5719391 Z"></path>
                        <path d="M94.3808384,0.296327955 L99.7925374,0.296327955 L99.7925374,15.4495939 C100.302446,14.7424145 102.341284,12.7771427 105.870858,12.7771427 C111.753484,12.7771427 115.596485,17.2179668 115.596485,23.5857845 C115.596485,29.9129695 111.43927,34.3545841 105.557432,34.3545841 C102.06683,34.3545841 100.027993,32.3892955 99.4791114,31.7211764 L99.4791114,33.84353 L94.38083,33.84353 L94.38083,0.296327955 L94.3808384,0.296327955 Z M104.890819,29.5597625 C107.949465,29.5597625 110.145008,27.2795618 110.145008,23.6248448 C110.145008,20.0482734 108.027428,17.5719475 104.890819,17.5719475 C101.910126,17.5719475 99.6358328,19.773212 99.6358328,23.6248448 C99.6358328,26.8864957 101.596708,29.5597625 104.890819,29.5597625 Z"></path>
                        <path d="M124.261736,20.6773239 C126.340351,20.6773239 127.948023,21.305567 128.693395,21.8166211 L128.693395,20.480383 C128.693395,18.6721677 127.360152,17.4539427 124.968127,17.4539427 C122.928501,17.4539427 121.046376,18.1220534 119.516658,18.9081605 L117.477821,15.2135927 C119.320973,13.9562991 122.4186,12.7771259 125.555989,12.7771259 C132.144219,12.7771259 134.105103,16.2357009 134.105103,20.834372 L134.105103,33.8435048 L129.321044,33.8435048 L128.967849,32.5072666 C127.909059,33.6473627 126.340351,34.3545589 123.987308,34.3545589 C119.830873,34.3545589 116.301307,31.8000873 116.301307,27.4764691 C116.30129,23.4279207 119.477669,20.6773239 124.261736,20.6773239 Z M125.281553,30.1489455 C127.321179,30.1489455 128.811127,29.0487 128.811127,27.3194125 C128.811127,25.5111973 127.321188,24.4500205 125.242572,24.4500205 C123.163956,24.4500205 121.712998,25.6291852 121.712998,27.3194125 C121.712998,29.0088325 123.242715,30.1489455 125.281553,30.1489455 Z"></path>
                        <path d="M135.516291,30.5419948 L138.69267,27.7124702 C139.711699,28.891635 141.084703,29.9528034 143.397986,29.9528034 C144.927703,29.9528034 145.907751,29.2846927 145.907751,28.105528 C145.907751,24.9610745 136.221894,26.1793164 136.221894,18.8691002 C136.221894,15.0565361 139.477032,12.7771259 143.672431,12.7771259 C147.555201,12.7771259 149.711762,14.8205434 150.692606,16.4318261 L147.124051,19.105093 C146.496411,18.3189775 145.35887,17.1398043 143.437764,17.1398043 C142.182483,17.1398043 141.320167,17.7688548 141.320167,18.7901641 C141.320167,22.0526139 151.045005,20.480383 151.045005,27.8304666 C151.045005,31.8391727 147.594182,34.3545673 143.163311,34.3545673 C139.123828,34.3545673 136.614071,32.3103593 135.516291,30.5419948 Z"></path>
                        <path d="M161.67192,12.7771343 C168.024686,12.7771343 171.632222,17.0218164 171.632222,23.7428411 C171.632222,24.1358989 171.632222,24.5289566 171.593241,24.9220059 L157.162307,24.9220059 C157.279242,27.6726027 159.475581,29.6378914 162.495246,29.6378914 C165.279457,29.6378914 166.887128,27.9875316 167.475804,27.1224884 L171.04436,29.834807 C170.260006,31.2890332 167.514777,34.3545673 162.416504,34.3545673 C155.828275,34.3545673 151.632876,29.7949564 151.632876,23.6248448 C151.632868,17.4148741 155.828275,12.7771343 161.67192,12.7771343 Z M166.142561,21.3845032 C166.024829,18.8691002 164.220667,17.21795 161.749874,17.21795 C159.201144,17.21795 157.554484,19.0261568 157.319003,21.3845032 L166.142561,21.3845032 Z"></path>
                    </g>
                    <g transform="translate(103.200000, 0.000000)" id="Shape">
                        <path d="M0.541338537,11.3037102 L1.94378459,10.0543716 C2.39323317,10.5750036 2.99939473,11.0429948 4.02080624,11.0429948 C4.69617893,11.0429948 5.12891415,10.7480039 5.12891415,10.2273886 C5.12891415,8.83932523 0.852381659,9.37749864 0.852381659,6.14933273 C0.852381659,4.46628682 2.28982341,3.46012227 4.14252351,3.46012227 C5.85679298,3.46012227 6.80898498,4.3618375 7.24173698,5.07381 L5.66588137,6.25377364 C5.38905366,5.9069575 4.88709054,5.38634227 4.03831668,5.38634227 C3.48466127,5.38634227 3.10361834,5.66379182 3.10361834,6.11505727 C3.10361834,7.55492909 7.39765288,6.86129682 7.39765288,10.1062052 C7.39765288,11.8761591 5.87350634,12.9867561 3.91739649,12.9867561 C2.13390751,12.9867477 1.02579122,12.0842336 0.541338537,11.3037102 Z"></path>
                        <path d="M12.6947998,3.46011386 C15.4654765,3.46011386 17.5774939,5.50751727 17.5774939,8.24934341 C17.5774939,10.9911695 15.5346876,12.9867477 12.6947998,12.9867477 C9.87241405,12.9867477 7.82959102,10.9911695 7.82959102,8.24934341 C7.82959941,5.48998432 9.94240546,3.46011386 12.6947998,3.46011386 Z M12.6947998,10.8699861 C14.1322416,10.8699861 15.1886488,9.79366455 15.1886488,8.24934341 C15.1886488,6.70502227 14.1322416,5.57687545 12.6947998,5.57687545 C11.2581383,5.57687545 10.2192416,6.68748091 10.2192416,8.24934341 C10.21925,9.79365614 11.2748517,10.8699861 12.6947998,10.8699861 Z"></path>
                        <polygon points="18.5981083 0.214406591 20.9877588 0.214406591 20.9877588 12.761115 18.5981083 12.761115"></polygon>
                        <path d="M22.4586105,8.92622477 L22.4586105,3.68573818 L24.8482443,3.68573818 L24.8482443,9.20367432 C24.8482443,10.2098389 25.541119,10.834895 26.3549056,10.834895 C27.341313,10.834895 27.9649766,10.10618 27.9649766,9.13430773 L27.9649766,3.68572977 L30.3538217,3.68572977 L30.3538217,12.7611066 L28.0166857,12.7611066 L28.0166857,11.7023264 C27.6356427,12.3273909 26.7701471,12.9867309 25.5928281,12.9867309 C23.013063,12.9867477 22.4586105,10.8524448 22.4586105,8.92622477 Z"></path>
                        <path d="M32.0331038,1.77626909 L34.3877419,1.77626909 L34.3877419,3.68573818 L36.0845177,3.68573818 L36.0845177,5.62870068 L34.3877419,5.62870068 L34.3877419,9.13431614 C34.3877419,10.4880873 34.8037805,10.7655368 35.7209852,10.7655368 C35.8769095,10.7655368 35.9636142,10.7655368 36.1545259,10.7479955 L36.1545259,12.7961977 C36.1545259,12.7961977 35.7901963,12.8823068 35.1323257,12.8823068 C32.9685992,12.8823068 32.0163988,11.6680509 32.0163988,9.20367432 L32.0163988,5.62869227 L31.0634098,5.62869227 L31.0634098,3.68572977 L32.0331122,3.68572977 L32.0331122,1.77626909 L32.0331038,1.77626909 Z"></path>
                        <path d="M38.40416,0.1282975 C39.2012332,0.1282975 39.8065977,0.718287727 39.8065977,1.49881955 C39.8065977,2.28015023 39.2012332,2.87013205 38.40416,2.87013205 C37.6253692,2.87013205 37.0192076,2.28015023 37.0192076,1.49881955 C37.0192076,0.718296136 37.6253692,0.1282975 38.40416,0.1282975 Z M37.226841,3.68573818 L39.6164747,3.68573818 L39.6164747,12.761115 L37.226841,12.761115 L37.226841,3.68573818 Z"></path>
                        <path d="M45.5197832,3.46011386 C48.2904767,3.46011386 50.4024857,5.50751727 50.4024857,8.24934341 C50.4024857,10.9911695 48.3596794,12.9867477 45.5197832,12.9867477 C42.6973975,12.9867477 40.6545912,10.9911695 40.6545912,8.24934341 C40.6545996,5.48998432 42.7674057,3.46011386 45.5197832,3.46011386 Z M45.5197832,10.8699861 C46.9572334,10.8699861 48.013649,9.79366455 48.013649,8.24934341 C48.013649,6.70502227 46.9572418,5.57687545 45.5197832,5.57687545 C44.0831385,5.57687545 43.044225,6.68748091 43.044225,8.24934341 C43.0442334,9.79365614 44.0998519,10.8699861 45.5197832,10.8699861 Z"></path>
                        <path d="M59.3183196,7.52062841 L59.3183196,12.761115 L56.9294745,12.761115 L56.9294745,7.24317886 C56.9294745,6.23622386 56.2365998,5.61195818 55.4228133,5.61195818 C54.4364059,5.61195818 53.8127422,6.34067318 53.8127422,7.31254545 L53.8127422,12.7611234 L51.4231085,12.7611234 L51.4231085,3.68574659 L53.76105,3.68574659 L53.76105,4.74373636 C54.1420761,4.11947068 55.0075801,3.46012227 56.1848991,3.46012227 C58.7646642,3.46011386 59.3183196,5.59441682 59.3183196,7.52062841 Z"></path>
                        <path d="M60.1670935,11.3037102 L61.5695395,10.0543716 C62.0189965,10.5750036 62.625158,11.0429948 63.6465528,11.0429948 C64.3219255,11.0429948 64.7546691,10.7480039 64.7546691,10.2273886 C64.7546691,8.83932523 60.4781198,9.37749864 60.4781198,6.14933273 C60.4781198,4.46628682 61.91557,3.46012227 63.7682617,3.46012227 C65.4825395,3.46012227 66.4347399,4.3618375 66.8674751,5.07381 L65.2916195,6.25377364 C65.0147918,5.9069575 64.5128455,5.38634227 63.6640548,5.38634227 C63.1103994,5.38634227 62.7293565,5.66379182 62.7293565,6.11505727 C62.7293565,7.55492909 67.0233994,6.86129682 67.0233994,10.1062052 C67.0233994,11.8761591 65.4992529,12.9867561 63.543143,12.9867561 C61.7596624,12.9867477 60.6515545,12.0842336 60.1670935,11.3037102 Z"></path>
                    </g>
                </g>
                <g id="CBSL-LOGO">
                    <g id="Group-2">
                        <path d="M148.683388,55.3780121 C148.478056,46.8106058 141.336017,39.6227427 132.823054,39.4161769 C130.132021,39.350866 127.441967,39.350866 124.750774,39.4161769 C124.739565,39.4165007 124.728275,39.4175802 124.716972,39.4179041 C124.901266,31.5791455 124.761903,23.7457306 124.28259,15.8979176 C123.794924,7.91461157 116.937673,1.01336049 109.005092,0.522571088 C97.7413494,-0.174284815 86.5080564,-0.174122888 75.2444075,0.522652052 C67.3118402,1.01336049 60.4545087,7.91469253 59.9669232,15.8980795 C59.8477654,17.8484583 59.7566842,19.7976901 59.6786088,21.746679 C58.5743042,21.4584207 57.4311296,21.2848882 56.2615276,21.2501277 C52.9935445,21.1530251 49.7272107,21.1487475 46.4590667,21.2371195 C39.727597,21.4191398 33.8179366,26.0546443 31.6124382,32.2396892 C26.3441275,32.0516641 21.0802414,32.0557798 15.8102144,32.2744496 C7.57074913,32.6162386 0.559894868,39.653374 0.198492935,47.944707 C-0.0581515115,53.830361 -0.0659148015,59.7088631 0.17516284,65.5952593 C0.514790019,73.8876583 7.5071411,80.9433345 15.7457081,81.3071321 C17.7971876,81.3977306 19.8475141,81.4461605 21.8977735,81.4751455 C21.965538,86.2327976 22.1472982,90.9917586 22.4497582,95.7562521 C22.9508457,103.64904 29.7891109,110.531184 37.63175,111.035481 C49.8375861,111.82021 62.0075824,111.82021 74.2134185,111.0354 C82.0559772,110.531103 88.8943228,103.64896 89.395397,95.7562521 C89.4334491,95.1550145 89.4611101,94.5542761 89.4954884,93.9532949 C91.3071105,94.7844834 93.2778867,95.2867966 95.3256924,95.3754116 C101.273244,95.6327822 107.2131,95.6327822 113.160745,95.3753306 C121.399808,95.0187928 128.397482,87.9762058 128.751832,79.6846299 C128.754285,79.6271455 128.754862,79.5698231 128.757315,79.5124198 C130.112606,79.5126627 131.467656,79.4966858 132.823201,79.463747 C141.336004,79.2571002 148.478043,72.0693181 148.683375,63.5019928 C148.748203,60.7936304 148.748364,58.0864419 148.683388,55.3780121 L148.683388,55.3780121 Z" id="Shape-Copy" fill="#3C98FC"></path>
                        <g id="Group">
                            <path d="M47.9428613,43.1914776 C51.8437201,43.0818255 55.7431845,43.0511537 59.643279,43.1022554 C59.381392,35.9816733 59.3931241,28.8679325 59.6786228,21.7466487 C58.5743182,21.4584039 57.4311302,21.2848443 56.261555,21.2501378 C52.9935451,21.1529947 49.7272515,21.1487171 46.4590941,21.2370892 C39.7275708,21.4191094 33.8179506,26.0546275 31.6124388,32.2396453 C32.1911324,32.2603046 32.7696651,32.2721793 33.3485196,32.2977369 C39.9261716,32.5881407 45.7053979,37.14592 47.9428613,43.1914776 L47.9428613,43.1914776 Z" id="Shape" fill="#007AFF"></path>
                            <path d="M22.4499331,58.9402699 C22.7926709,53.5403316 26.1026482,48.614693 30.6703186,45.8796665 C30.6092045,42.9390053 30.6102906,39.9993696 30.6965583,37.0586275 C30.7456319,35.386292 31.0680029,33.7664347 31.6124388,32.2396183 C26.3441683,32.0516202 21.0802152,32.0557359 15.8102418,32.2744058 C7.57072289,32.6162352 0.559882041,39.6533436 0.198466699,47.9446901 C-0.0581643388,53.8303441 -0.0658739964,59.7088598 0.175163421,65.5952289 C0.514817416,73.8876145 7.50712827,80.9433446 15.745722,81.3070747 C17.7972284,81.3977002 19.8475012,81.4461571 21.8977741,81.4751152 C21.7906836,73.9660414 21.9724706,66.4599094 22.4499331,58.9402699 L22.4499331,58.9402699 Z" id="Shape" fill="#444E6E"></path>
                            <path d="M30.6703186,45.8796665 C32.7789301,44.6171027 35.1548052,43.8203778 37.6317774,43.6610275 C41.0712233,43.4398747 44.5075853,43.2879865 47.9428747,43.1914641 C45.7054114,37.14592 39.926185,32.5881272 33.3485196,32.2977099 C32.7696651,32.2721658 32.1911324,32.2602776 31.6124388,32.2396183 C31.0680029,33.7664347 30.7456319,35.386292 30.6965583,37.0586275 C30.6102906,39.9993696 30.6092045,42.9390188 30.6703186,45.8796665 L30.6703186,45.8796665 Z" id="Shape" fill="#243053"></path>
                            <path d="M148.683429,55.3779952 C148.47803,46.8105754 141.336018,39.6227528 132.823041,39.416187 C130.132035,39.3508087 127.441955,39.3508087 124.750801,39.416187 C124.739539,39.4164973 124.728276,39.4175904 124.717,39.4179007 C124.635063,42.9018969 124.495565,46.3868241 124.282604,49.8748549 C124.256217,50.3062169 124.20776,50.733706 124.145104,51.1578487 C126.835332,53.9734072 128.579605,57.7052742 128.751819,61.7350072 C129.005218,67.6633696 129.005835,73.5841349 128.75737,79.5123489 C130.112593,79.5126593 131.46767,79.4966689 132.823202,79.4637436 C141.336018,79.2571104 148.478017,72.0692742 148.683416,63.5019354 C148.748244,60.793627 148.748391,58.0863981 148.683429,55.3779952 L148.683429,55.3779952 Z" id="Shape" fill="#54A1F6"></path>
                            <path d="M128.751819,61.7350072 C128.579605,57.7052742 126.835345,53.9734072 124.145104,51.1578487 C123.048522,58.5753793 116.525026,64.7700183 109.032713,65.2477455 C109.023448,65.2483663 109.014344,65.2496077 109.004932,65.2502284 C102.576954,65.6478149 96.158698,65.8104983 89.7390606,65.7543499 C90.1155868,75.1562236 90.0345751,84.5455345 89.4955426,93.9532376 C91.3070708,94.7844395 93.2778873,95.2867798 95.3256796,95.3753812 C101.273258,95.6327248 107.21314,95.6327248 113.160719,95.3753137 C121.399782,95.0188029 128.397496,87.9761889 128.751805,79.6845995 C128.754286,79.6271422 128.754889,79.5698333 128.757356,79.5123624 C129.005822,73.5841484 129.005218,67.6633831 128.751819,61.7350072 L128.751819,61.7350072 Z" id="Shape" fill="#007AFF"></path>
                            <path d="M71.9824185,37.1136154 C72.0395101,39.2554467 72.0430633,41.3965089 72.0220796,43.537652 C72.75262,43.5790381 73.4828519,43.6139875 74.2135531,43.661041 C78.7270549,43.9512289 82.9049116,46.3562333 85.7366622,49.8481504 C88.4040562,47.6163952 91.7472051,46.1991364 95.3255321,46.0442255 C100.94952,45.8008617 106.566548,45.7958959 112.189597,46.0127036 C115.105443,42.1393523 119.668488,39.5515586 124.717,39.4179142 C124.901254,31.5791152 124.761903,23.7457542 124.282604,15.8978737 C123.794951,7.91456771 116.93766,1.01335711 109.005079,0.522581205 C97.7413768,-0.174274699 86.5080838,-0.174126265 75.2443947,0.522662169 C67.311814,1.01335711 60.4545227,7.91471614 59.9668701,15.8981031 C59.8477391,17.8484414 59.7566847,19.7977002 59.6786094,21.7466487 C66.4988675,23.5264501 71.7882826,29.8437899 71.9824185,37.1136154 L71.9824185,37.1136154 Z" id="Shape" fill="#444E6E"></path>
                            <path d="M59.643279,43.1022419 C63.7677447,43.1562853 67.8932831,43.3038284 72.0220796,43.5376386 C72.0430633,41.3965089 72.0395101,39.2554467 71.9824185,37.1136019 C71.7882826,29.8437764 66.4988675,23.5264366 59.6786094,21.7466217 C59.3931241,28.867919 59.381392,35.9816598 59.643279,43.1022419 L59.643279,43.1022419 Z" id="Shape" fill="#243053"></path>
                            <path d="M112.189597,46.0126901 C112.513349,46.0251855 112.836967,46.0302323 113.16088,46.044212 C117.395681,46.2274737 121.299623,48.1799846 124.145104,51.1578487 C124.20776,50.733706 124.256217,50.3062304 124.282604,49.8748549 C124.495565,46.3868241 124.635063,42.9018969 124.717,39.4179007 C119.668488,39.5515451 115.105443,42.1393388 112.189597,46.0126901 L112.189597,46.0126901 Z" id="Shape" fill="#2E395A"></path>
                            <path d="M113.16088,46.0442255 C112.836967,46.0302458 112.513362,46.025199 112.189597,46.0127036 C106.566548,45.7958959 100.949506,45.8008617 95.3255321,46.0442255 C91.7471917,46.1991499 88.4040562,47.6163952 85.7366622,49.8481504 C87.8252017,52.423759 89.1827451,55.5897561 89.3953975,58.940108 C89.5396821,61.2127094 89.648167,63.483759 89.739074,65.7543499 C96.1587114,65.8104983 102.576968,65.6478149 109.004945,65.2502284 C109.014358,65.2496077 109.023462,65.2483663 109.032727,65.2477455 C116.525039,64.7700183 123.048536,58.5753793 124.145117,51.1578487 C121.299623,48.1799981 117.395681,46.2274872 113.16088,46.0442255 L113.16088,46.0442255 Z" id="Shape" fill="#243053"></path>
                            <path d="M79.7346066,79.6844376 C79.5322917,74.9488212 79.496653,70.2181841 79.6145504,65.4845918 C78.158243,65.4178101 76.7016407,65.3404627 75.2444081,65.2502284 C71.1501911,64.9970814 67.34516,63.0333706 64.5518504,60.0974593 C62.1129975,61.7260067 59.244388,62.7181108 56.2067829,62.8002622 C53.8004982,62.8653301 51.3951387,62.8628472 48.9894708,62.8273581 C48.9610724,63.7715451 48.9370049,64.7156511 48.8958018,65.6602294 C48.5343864,73.9515894 41.5235456,80.9886169 33.2840266,81.3303653 C29.4867186,81.4880019 25.6926419,81.5286863 21.8978009,81.4751152 C21.965552,86.2327807 22.147339,90.9917687 22.449799,95.7561947 C22.9508731,103.649037 29.7891785,110.531154 37.6317908,111.035424 C49.8376001,111.820193 62.0076098,111.820193 74.2134191,111.035356 C82.0560314,110.531073 88.8943368,103.648956 89.3954109,95.7562082 C89.4335302,95.1550111 89.4611509,94.5542863 89.4955695,93.9532511 C84.0187896,91.4401465 80.0007976,85.9152675 79.7346066,79.6844376 L79.7346066,79.6844376 Z" id="Shape" fill="#54A1F6"></path>
                            <path d="M59.643279,43.1022419 C55.7431845,43.0511402 51.8437201,43.0818255 47.9428613,43.1914641 C48.507825,44.7179701 48.8507103,46.3377465 48.9190782,48.0094612 C49.1215405,52.9513195 49.1378984,57.8877398 48.9894439,62.8273446 C51.3951119,62.8628337 53.8004714,62.8653166 56.2067561,62.8002487 C59.2443612,62.7180839 62.112984,61.7259933 64.5518236,60.0974458 C61.9328864,57.3447961 60.202665,53.7377889 59.9668701,49.8748414 C59.8289276,47.6162333 59.7261411,45.3590149 59.643279,43.1022419 L59.643279,43.1022419 Z" id="Shape" fill="#A7D1FF"></path>
                            <path d="M33.2839998,81.3303788 C41.5235188,80.9886169 48.5343596,73.9516029 48.8957749,65.6602429 C48.936978,64.7156646 48.9610456,63.7715586 48.9894439,62.8273716 C48.1278796,62.8147142 47.2661679,62.812852 46.4044561,62.787227 C38.0118434,62.5379663 30.9090364,55.3707894 30.6835792,46.9237359 C30.6741667,46.5756993 30.677559,46.2277301 30.6703052,45.87968 C26.1026348,48.6147065 22.7926575,53.5403451 22.4499196,58.9402834 C21.9724572,66.4599229 21.7906702,73.9660549 21.8977741,81.4751287 C25.6926285,81.5286998 29.4866918,81.4880154 33.2839998,81.3303788 L33.2839998,81.3303788 Z" id="Shape" fill="#A7D1FF"></path>
                            <path d="M48.9190782,48.0094747 C48.8507103,46.33776 48.507825,44.7179836 47.9428613,43.1914776 C44.5075719,43.288 41.0712233,43.4398882 37.631764,43.661041 C35.1548052,43.8203778 32.7789167,44.6171161 30.6703052,45.87968 C30.677559,46.2277166 30.6741667,46.5756858 30.6835792,46.9237359 C30.9090364,55.3707894 38.0118434,62.5379663 46.4044561,62.787227 C47.2661679,62.812852 48.1278796,62.8147142 48.9894439,62.8273716 C49.1378984,57.8877533 49.1215405,52.951333 48.9190782,48.0094747 L48.9190782,48.0094747 Z" id="Shape" fill="#79B9FF"></path>
                            <path d="M89.7390606,65.7543499 C86.3651937,65.7247576 82.990871,65.6394217 79.614537,65.4845783 C79.4966396,70.2181706 79.5322783,74.9488212 79.7345932,79.6844241 C80.0007976,85.915254 84.0187762,91.440133 89.4955426,93.9532241 C90.0345751,84.5455345 90.1156002,75.1562371 89.7390606,65.7543499 L89.7390606,65.7543499 Z" id="Shape" fill="#A7D1FF"></path>
                            <path d="M89.3953975,58.940108 C89.1827451,55.5897561 87.8252151,52.4237455 85.7366622,49.8481504 C82.9049251,46.3562333 78.7270549,43.9512289 74.2135531,43.661041 C73.4828519,43.6139875 72.75262,43.5790381 72.0220796,43.537652 C67.8932831,43.3038419 63.7677447,43.1562988 59.643279,43.1022554 C59.7261411,45.3590149 59.8289142,47.6162467 59.9668835,49.8748684 C60.2026918,53.7378159 61.9328998,57.3448096 64.551837,60.0974728 C67.34516,63.0333841 71.1501777,64.9970949 75.2443947,65.2502419 C76.7016273,65.3404761 78.1582296,65.4178101 79.614537,65.4846053 C82.990871,65.6394487 86.3651937,65.7247846 89.7390606,65.7543769 C89.648167,63.4837725 89.5396821,61.2127229 89.3953975,58.940108 L89.3953975,58.940108 Z" id="Shape" fill="#79B9FF"></path>
                        </g>
                    </g>
                </g>
            </g>
            <path d="M1.33605888,169.582222 C0.503947871,168.770366 0.0644592152,167.546675 0.017579722,165.911111 C0.00585984875,165.555554 0,165.051855 0,164.4 C0,163.748145 0.00585984875,163.250372 0.017579722,162.906667 C0.0644592152,161.294807 0.518597493,160.074078 1.38000818,159.244444 C2.24141887,158.414811 3.40459884,158 4.86958301,158 C6.33456717,158 7.49481722,158.414811 8.35036797,159.244444 C9.20591872,160.074078 9.65712708,161.294807 9.70400657,162.906667 C9.72744632,163.594078 9.73916601,164.09185 9.73916601,164.4 C9.73916601,164.696298 9.72744632,165.199996 9.70400657,165.911111 C9.65712708,167.546675 9.22056834,168.770366 8.39431728,169.582222 C7.56806621,170.394078 6.39316653,170.8 4.86958301,170.8 C3.34599948,170.8 2.16816988,170.394078 1.33605888,169.582222 Z M7.11978743,168.462222 C7.68234135,167.887405 7.98705348,167.007413 8.03393297,165.822222 C8.05737272,165.111108 8.06909242,164.637038 8.06909242,164.4 C8.06909242,164.139258 8.05737272,163.665189 8.03393297,162.977778 C7.98705348,161.792587 7.68234135,160.909633 7.11978743,160.328889 C6.55723351,159.748145 5.80717287,159.457778 4.86958301,159.457778 C3.93199314,159.457778 3.17900258,159.748145 2.61058872,160.328889 C2.04217487,160.909633 1.74039266,161.792587 1.70523304,162.977778 C1.69351317,163.321483 1.68765332,163.795553 1.68765332,164.4 C1.68765332,164.992596 1.69351317,165.466665 1.70523304,165.822222 C1.74039266,167.007413 2.03924494,167.887405 2.60179886,168.462222 C3.16435278,169.03704 3.92027327,169.324444 4.86958301,169.324444 C5.80717287,169.324444 6.55723351,169.03704 7.11978743,168.462222 Z M11.8575225,173.893333 C11.7813433,173.822222 11.7432543,173.721482 11.7432543,173.591111 L11.7432543,161.786667 C11.7432543,161.656296 11.7813433,161.555556 11.8575225,161.484444 C11.9337017,161.413333 12.0303892,161.377778 12.1475879,161.377778 L12.8859362,161.377778 C13.0148548,161.377778 13.1144723,161.413333 13.1847915,161.484444 C13.2551107,161.555556 13.2902698,161.656296 13.2902698,161.786667 L13.2902698,162.568889 C13.9700225,161.656292 14.9368975,161.2 16.190924,161.2 C17.4215107,161.2 18.3444369,161.59407 18.9597302,162.382222 C19.5750235,163.170374 19.9002452,164.174809 19.9354048,165.395556 C19.9471246,165.525927 19.9529845,165.727406 19.9529845,166 C19.9529845,166.272594 19.9471246,166.474073 19.9354048,166.604444 C19.9002452,167.813339 19.5750235,168.814811 18.9597302,169.608889 C18.3444369,170.402967 17.4215107,170.8 16.190924,170.8 C14.9368975,170.8 13.987602,170.349634 13.343009,169.448889 L13.343009,173.591111 C13.343009,173.70963 13.30492,173.807407 13.2287408,173.884444 C13.1525616,173.961482 13.0558741,174 12.9386754,174 L12.1475879,174 C12.0303892,174 11.9337017,173.964445 11.8575225,173.893333 Z M17.7027801,168.613333 C18.0895359,168.079997 18.3004904,167.380745 18.3356501,166.515556 C18.3473699,166.397036 18.3532298,166.225186 18.3532298,166 C18.3532298,163.724433 17.5211313,162.586667 15.8569093,162.586667 C15.0365181,162.586667 14.4183041,162.862219 14.0022486,163.413333 C13.5861931,163.964447 13.3664488,164.61333 13.343009,165.36 C13.3312891,165.490371 13.3254293,165.72148 13.3254293,166.053333 C13.3254293,166.385187 13.3312891,166.616296 13.343009,166.746667 C13.3664488,167.469633 13.5920529,168.094812 14.0198283,168.622222 C14.4476037,169.149632 15.0599579,169.413333 15.8569093,169.413333 C16.7007401,169.413333 17.3160243,169.146669 17.7027801,168.613333 Z M22.5372036,169.671111 C21.8222913,168.918515 21.4296815,167.890377 21.3593622,166.586667 L21.3417825,165.982222 L21.3593622,165.395556 C21.4296815,164.115549 21.8222913,163.0963 22.5372036,162.337778 C23.2521159,161.579255 24.2072712,161.2 25.4026983,161.2 C26.6918844,161.2 27.6909886,161.614811 28.4000409,162.444444 C29.1090932,163.274078 29.4636141,164.399993 29.4636141,165.822222 L29.4636141,166.142222 C29.4636141,166.260741 29.4255251,166.358518 29.3493459,166.435556 C29.2731667,166.512593 29.1764792,166.551111 29.0592805,166.551111 L22.9591169,166.551111 L22.9591169,166.711111 C22.9942766,167.481485 23.2286705,168.139257 23.6623058,168.684444 C24.0959411,169.229632 24.6702063,169.502222 25.3851186,169.502222 C25.9359526,169.502222 26.3842311,169.392594 26.7299673,169.173333 C27.0757036,168.954073 27.3364668,168.725927 27.5122649,168.488889 C27.6177438,168.346666 27.6997817,168.260741 27.7583811,168.231111 C27.8169804,168.201481 27.9165978,168.186667 28.0572363,168.186667 L28.8307441,168.186667 C28.936223,168.186667 29.0270506,168.216296 29.1032298,168.275556 C29.179409,168.334815 29.217498,168.411851 29.217498,168.506667 C29.217498,168.767409 29.0592821,169.08148 28.7428455,169.448889 C28.4264089,169.816298 27.9781305,170.133332 27.3979968,170.4 C26.817863,170.666668 26.1527702,170.8 25.4026983,170.8 C24.2072712,170.8 23.2521159,170.423707 22.5372036,169.671111 Z M27.8638594,165.342222 L27.8638594,165.288889 C27.8638594,164.459255 27.6411851,163.783706 27.1958299,163.262222 C26.7504748,162.740738 26.1527702,162.48 25.4026983,162.48 C24.6409065,162.48 24.043202,162.740738 23.6095667,163.262222 C23.1759313,163.783706 22.9591169,164.459255 22.9591169,165.288889 L22.9591169,165.342222 L27.8638594,165.342222 Z M31.3358545,170.506667 C31.2596753,170.429629 31.2215863,170.331852 31.2215863,170.213333 L31.2215863,161.786667 C31.2215863,161.668148 31.2596753,161.570371 31.3358545,161.493333 C31.4120336,161.416296 31.5087211,161.377778 31.6259199,161.377778 L32.3818479,161.377778 C32.5107665,161.377778 32.610384,161.413333 32.6807032,161.484444 C32.7510224,161.555556 32.7861815,161.656296 32.7861815,161.786667 L32.7861815,162.568889 C33.1377777,162.130368 33.5450372,161.792594 34.0079722,161.555556 C34.4709072,161.318517 35.0481023,161.2 35.7395748,161.2 C36.8646827,161.2 37.7378001,161.564441 38.3589534,162.293333 C38.9801067,163.022226 39.2906787,163.985179 39.2906787,165.182222 L39.2906787,170.213333 C39.2906787,170.331852 39.2525897,170.429629 39.1764105,170.506667 C39.1002313,170.583704 39.0035438,170.622222 38.8863451,170.622222 L38.0776779,170.622222 C37.9604791,170.622222 37.8637916,170.583704 37.7876125,170.506667 C37.7114333,170.429629 37.6733443,170.331852 37.6733443,170.213333 L37.6733443,165.288889 C37.6733443,164.435551 37.4682496,163.771854 37.058054,163.297778 C36.6478584,162.823701 36.0618735,162.586667 35.3000818,162.586667 C34.5500099,162.586667 33.9523053,162.826664 33.5069501,163.306667 C33.061595,163.786669 32.8389207,164.447403 32.8389207,165.288889 L32.8389207,170.213333 C32.8389207,170.331852 32.8008317,170.429629 32.7246525,170.506667 C32.6484733,170.583704 32.5517858,170.622222 32.4345871,170.622222 L31.6259199,170.622222 C31.5087211,170.622222 31.4120336,170.583704 31.3358545,170.506667 Z M43.0966885,170.337778 C42.3876362,170.029628 41.8485301,169.623706 41.4793541,169.12 C41.110178,168.616294 40.9138731,168.074077 40.8904334,167.493333 C40.8904334,167.398518 40.9255925,167.315556 40.9959117,167.244444 C41.0662309,167.173333 41.1541287,167.137778 41.2596075,167.137778 L42.1210139,167.137778 C42.3319716,167.137778 42.4784678,167.256295 42.560507,167.493333 C42.6659858,167.991114 42.967768,168.420739 43.4658626,168.782222 C43.9639573,169.143706 44.6759289,169.324444 45.6017989,169.324444 C46.5979881,169.324444 47.3421889,169.146668 47.8344236,168.791111 C48.3266583,168.435554 48.5727719,167.943707 48.5727719,167.315556 C48.5727719,166.912591 48.452645,166.580742 48.2123876,166.32 C47.9721302,166.059258 47.6146794,165.831112 47.1400246,165.635556 C46.6653697,165.439999 45.9533981,165.200001 45.0040883,164.915556 C44.1016581,164.654814 43.3838266,164.376298 42.8505724,164.08 C42.3173181,163.783702 41.9159185,163.419261 41.6463614,162.986667 C41.3768043,162.554072 41.2420278,162.005929 41.2420278,161.342222 C41.2420278,160.702219 41.4119634,160.130373 41.7518397,159.626667 C42.0917161,159.12296 42.5839434,158.725927 43.2285364,158.435556 C43.8731294,158.145184 44.6349098,158 45.5139003,158 C46.4280504,158 47.2103402,158.162961 47.8607932,158.488889 C48.5112461,158.814816 49.0064033,159.223701 49.3462797,159.715556 C49.686156,160.20741 49.8678113,160.70222 49.8912511,161.2 C49.8912511,161.306667 49.856092,161.395555 49.7857727,161.466667 C49.7154535,161.537778 49.6275558,161.573333 49.5220769,161.573333 L48.6430908,161.573333 C48.5493318,161.573333 48.4614341,161.543704 48.379395,161.484444 C48.2973558,161.425185 48.2387574,161.336297 48.2035977,161.217778 C48.1332785,160.708146 47.8520058,160.287409 47.3597711,159.955556 C46.8675364,159.623702 46.2522523,159.457778 45.5139003,159.457778 C44.7169489,159.457778 44.0840852,159.614813 43.6152903,159.928889 C43.1464954,160.242965 42.9121014,160.708145 42.9121014,161.324444 C42.9121014,161.739261 43.0205086,162.077036 43.2373263,162.337778 C43.4541439,162.59852 43.7881553,162.829629 44.2393704,163.031111 C44.6905855,163.232594 45.3498185,163.463702 46.2170891,163.724444 C47.2132784,164.00889 47.9955682,164.293332 48.563982,164.577778 C49.1323959,164.862224 49.5572349,165.214813 49.8385119,165.635556 C50.1197888,166.056298 50.2604252,166.598515 50.2604252,167.262222 C50.2604252,168.376302 49.841446,169.244441 49.0034751,169.866667 C48.1655042,170.488892 47.0316234,170.8 45.6017989,170.8 C44.6407693,170.8 43.8057408,170.645927 43.0966885,170.337778 Z M52.7567457,167.511111 L52.7567457,162.746667 L51.3679477,162.746667 C51.2507489,162.746667 51.1569914,162.711111 51.0866721,162.64 C51.0163529,162.568889 50.9811938,162.474075 50.9811938,162.355556 L50.9811938,161.786667 C50.9811938,161.668148 51.0163529,161.570371 51.0866721,161.493333 C51.1569914,161.416296 51.2507489,161.377778 51.3679477,161.377778 L52.7567457,161.377778 L52.7567457,158.408889 C52.7567457,158.29037 52.7919048,158.192593 52.8622241,158.115556 C52.9325433,158.038518 53.0263009,158 53.1434996,158 L53.9170074,158 C54.0342061,158 54.1308936,158.038518 54.2070728,158.115556 C54.283252,158.192593 54.321341,158.29037 54.321341,158.408889 L54.321341,161.377778 L56.5012265,161.377778 C56.6184252,161.377778 56.7151128,161.416296 56.7912919,161.493333 C56.8674711,161.570371 56.9055601,161.668148 56.9055601,161.786667 L56.9055601,162.355556 C56.9055601,162.474075 56.8674711,162.568889 56.7912919,162.64 C56.7151128,162.711111 56.6184252,162.746667 56.5012265,162.746667 L54.321341,162.746667 L54.321341,167.386667 C54.321341,167.991114 54.4180285,168.447406 54.6114064,168.755556 C54.8047843,169.063705 55.1358658,169.217778 55.6046607,169.217778 L56.6770237,169.217778 C56.7942225,169.217778 56.8879801,169.256296 56.9582993,169.333333 C57.0286185,169.410371 57.0637776,169.508148 57.0637776,169.626667 L57.0637776,170.213333 C57.0637776,170.331852 57.0286185,170.429629 56.9582993,170.506667 C56.8879801,170.583704 56.7942225,170.622222 56.6770237,170.622222 L55.4816026,170.622222 C53.6650223,170.622222 52.7567457,169.585196 52.7567457,167.511111 Z M59.3403516,170.444444 C58.8539769,170.207406 58.4672268,169.884446 58.1800899,169.475556 C57.892953,169.066665 57.7493868,168.613336 57.7493868,168.115556 C57.7493868,167.333329 58.0658186,166.693336 58.6986917,166.195556 C59.3315649,165.697775 60.1929627,165.365927 61.2829109,165.2 L63.9198692,164.826667 L63.9198692,164.311111 C63.9198692,163.090364 63.2225472,162.48 61.8278823,162.48 C61.2887681,162.48 60.8551393,162.589629 60.5269828,162.808889 C60.1988264,163.028149 59.9585726,163.285924 59.8062142,163.582222 C59.7593347,163.700741 59.709526,163.780741 59.6567866,163.822222 C59.6040472,163.863704 59.5307991,163.884444 59.4370401,163.884444 L58.7514309,163.884444 C58.6459521,163.884444 58.5551244,163.845926 58.4789452,163.768889 C58.402766,163.691851 58.364677,163.600001 58.364677,163.493333 C58.364677,163.220739 58.4906638,162.903706 58.7426411,162.542222 C58.9946183,162.180739 59.3842983,161.866668 59.9116926,161.6 C60.4390869,161.333332 61.0836702,161.2 61.845462,161.2 C63.1580878,161.2 64.0985935,161.508145 64.6670074,162.124444 C65.2354212,162.740744 65.5196239,163.511106 65.5196239,164.435556 L65.5196239,170.213333 C65.5196239,170.331852 65.4815349,170.429629 65.4053557,170.506667 C65.3291765,170.583704 65.232489,170.622222 65.1152903,170.622222 L64.3417825,170.622222 C64.2245838,170.622222 64.1308262,170.583704 64.060507,170.506667 C63.9901877,170.429629 63.9550286,170.331852 63.9550286,170.213333 L63.9550286,169.431111 C63.6971914,169.822224 63.3221611,170.148147 62.8299264,170.408889 C62.3376917,170.669631 61.7048281,170.8 60.9313164,170.8 C60.3570427,170.8 59.8267263,170.681483 59.3403516,170.444444 Z M63.1815209,168.737778 C63.6737555,168.228146 63.9198692,167.487412 63.9198692,166.515556 L63.9198692,166.017778 L61.8630417,166.32 C61.0192108,166.438519 60.3804873,166.639999 59.946852,166.924444 C59.5132167,167.20889 59.2964023,167.564442 59.2964023,167.991111 C59.2964023,168.477039 59.4927072,168.850369 59.885323,169.111111 C60.2779387,169.371853 60.7437967,169.502222 61.2829109,169.502222 C62.0564225,169.502222 62.6892862,169.24741 63.1815209,168.737778 Z M68.4026983,169.724444 C67.6995059,169.007404 67.3303354,168.002969 67.2951758,166.711111 L67.2775961,166 L67.2951758,165.288889 C67.3303354,163.997031 67.6995059,162.992596 68.4026983,162.275556 C69.1058907,161.558515 70.0844854,161.2 71.3385119,161.2 C72.1823427,161.2 72.8943144,161.35111 73.4744481,161.653333 C74.0545818,161.955557 74.4882106,162.33185 74.7753475,162.782222 C75.0624844,163.232595 75.2177704,163.682961 75.2412102,164.133333 C75.25293,164.240001 75.214841,164.334814 75.126942,164.417778 C75.0390429,164.500741 74.9423554,164.542222 74.8368766,164.542222 L74.0633688,164.542222 C73.9461701,164.542222 73.8582723,164.515556 73.799673,164.462222 C73.7410736,164.408889 73.6824751,164.311112 73.6238757,164.168889 C73.412918,163.588145 73.1228555,163.176298 72.7536795,162.933333 C72.3845035,162.690369 71.9186455,162.568889 71.3560916,162.568889 C70.6177396,162.568889 70.0317547,162.799998 69.5981194,163.262222 C69.1644841,163.724447 68.9300901,164.429625 68.8949305,165.377778 L68.8773508,166 L68.8949305,166.622222 C68.9300901,167.570375 69.1644841,168.275553 69.5981194,168.737778 C70.0317547,169.200002 70.6177396,169.431111 71.3560916,169.431111 C71.9303654,169.431111 72.3991533,169.309631 72.7624694,169.066667 C73.1257854,168.823702 73.412918,168.411855 73.6238757,167.831111 C73.6824751,167.688888 73.7410736,167.591111 73.799673,167.537778 C73.8582723,167.484444 73.9461701,167.457778 74.0633688,167.457778 L74.8368766,167.457778 C74.9423554,167.457778 75.0390429,167.499259 75.126942,167.582222 C75.214841,167.665186 75.25293,167.759999 75.2412102,167.866667 C75.2177704,168.305187 75.0624844,168.749627 74.7753475,169.2 C74.4882106,169.650373 74.0545818,170.029628 73.4744481,170.337778 C72.8943144,170.645927 72.1823427,170.8 71.3385119,170.8 C70.0844854,170.8 69.1058907,170.441485 68.4026983,169.724444 Z M77.0958708,170.506667 C77.0196916,170.429629 76.9816026,170.331852 76.9816026,170.213333 L76.9816026,158.408889 C76.9816026,158.278518 77.0196916,158.177778 77.0958708,158.106667 C77.17205,158.035555 77.2687375,158 77.3859362,158 L78.1418643,158 C78.259063,158 78.3557505,158.038518 78.4319297,158.115556 C78.5081089,158.192593 78.5461979,158.29037 78.5461979,158.408889 L78.5461979,164.613333 L82.0621423,161.68 C82.2379404,161.549629 82.3609972,161.466667 82.4313165,161.431111 C82.5016357,161.395555 82.6129728,161.377778 82.7653312,161.377778 L83.6443173,161.377778 C83.7497961,161.377778 83.8347639,161.41037 83.8992232,161.475556 C83.9636825,161.540741 83.9959117,161.632592 83.9959117,161.751111 C83.9959117,161.857778 83.9314534,161.97037 83.8025348,162.088889 L79.6888798,165.502222 L84.2420278,169.911111 C84.3709464,170.041482 84.4354048,170.154074 84.4354048,170.248889 C84.4354048,170.355556 84.4031756,170.444444 84.3387163,170.515556 C84.274257,170.586667 84.1892892,170.622222 84.0838103,170.622222 L83.2224039,170.622222 C83.0466058,170.622222 82.9206191,170.604445 82.8444399,170.568889 C82.7682607,170.533333 82.6598535,170.450371 82.5192151,170.32 L78.5461979,166.515556 L78.5461979,170.213333 C78.5461979,170.331852 78.5081089,170.429629 78.4319297,170.506667 C78.3557505,170.583704 78.259063,170.622222 78.1418643,170.622222 L77.3859362,170.622222 C77.2687375,170.622222 77.17205,170.583704 77.0958708,170.506667 Z M89.6917416,170.506667 C89.6214224,170.429629 89.5862633,170.331852 89.5862633,170.213333 L89.5862633,158.604444 C89.5862633,158.474073 89.6214224,158.370371 89.6917416,158.293333 C89.7620608,158.216296 89.8558184,158.177778 89.9730172,158.177778 L93.9460343,158.177778 C95.7157352,158.177778 96.9931822,158.577774 97.7784137,159.377778 C98.5636453,160.177782 98.9679748,161.383696 98.9914146,162.995556 C99.0031344,163.339261 99.0089943,163.801479 99.0089943,164.382222 C99.0089943,164.962966 99.0031344,165.431109 98.9914146,165.786667 C98.9679748,166.912598 98.7892494,167.828145 98.455233,168.533333 C98.1212167,169.238522 97.5967602,169.762961 96.8818479,170.106667 C96.1669356,170.450372 95.2176402,170.622222 94.0339329,170.622222 L89.9730172,170.622222 C89.8558184,170.622222 89.7620608,170.583704 89.6917416,170.506667 Z M93.9460343,169.146667 C94.7664255,169.146667 95.4197986,169.031112 95.9061733,168.8 C96.3925481,168.568888 96.744139,168.20741 96.9609567,167.715556 C97.1777743,167.223701 97.2979012,166.557041 97.321341,165.715556 C97.3447807,165.004441 97.3565004,164.560001 97.3565004,164.382222 C97.3565004,164.192592 97.3447807,163.754078 97.321341,163.066667 C97.2979012,161.881476 97.0195584,161.013336 96.4863042,160.462222 C95.9530499,159.911108 95.0770025,159.635556 93.8581357,159.635556 L91.2387571,159.635556 L91.2387571,169.146667 L93.9460343,169.146667 Z M102.006337,170.444444 C101.519962,170.207406 101.133212,169.884446 100.846075,169.475556 C100.558938,169.066665 100.415372,168.613336 100.415372,168.115556 C100.415372,167.333329 100.731804,166.693336 101.364677,166.195556 C101.99755,165.697775 102.858948,165.365927 103.948896,165.2 L106.585854,164.826667 L106.585854,164.311111 C106.585854,163.090364 105.888532,162.48 104.493868,162.48 C103.954753,162.48 103.521125,162.589629 103.192968,162.808889 C102.864812,163.028149 102.624558,163.285924 102.4722,163.582222 C102.42532,163.700741 102.375511,163.780741 102.322772,163.822222 C102.270032,163.863704 102.196784,163.884444 102.103025,163.884444 L101.417416,163.884444 C101.311937,163.884444 101.22111,163.845926 101.14493,163.768889 C101.068751,163.691851 101.030662,163.600001 101.030662,163.493333 C101.030662,163.220739 101.156649,162.903706 101.408626,162.542222 C101.660604,162.180739 102.050284,161.866668 102.577678,161.6 C103.105072,161.333332 103.749655,161.2 104.511447,161.2 C105.824073,161.2 106.764579,161.508145 107.332993,162.124444 C107.901407,162.740744 108.185609,163.511106 108.185609,164.435556 L108.185609,170.213333 C108.185609,170.331852 108.14752,170.429629 108.071341,170.506667 C107.995162,170.583704 107.898474,170.622222 107.781276,170.622222 L107.007768,170.622222 C106.890569,170.622222 106.796811,170.583704 106.726492,170.506667 C106.656173,170.429629 106.621014,170.331852 106.621014,170.213333 L106.621014,169.431111 C106.363177,169.822224 105.988146,170.148147 105.495912,170.408889 C105.003677,170.669631 104.370813,170.8 103.597302,170.8 C103.023028,170.8 102.492712,170.681483 102.006337,170.444444 Z M105.847506,168.737778 C106.339741,168.228146 106.585854,167.487412 106.585854,166.515556 L106.585854,166.017778 L104.529027,166.32 C103.685196,166.438519 103.046473,166.639999 102.612837,166.924444 C102.179202,167.20889 101.962388,167.564442 101.962388,167.991111 C101.962388,168.477039 102.158692,168.850369 102.551308,169.111111 C102.943924,169.371853 103.409782,169.502222 103.948896,169.502222 C104.722408,169.502222 105.355271,169.24741 105.847506,168.737778 Z M111.429068,170.4 C110.872374,170.133332 110.459255,169.82815 110.189697,169.484444 C109.92014,169.140739 109.785364,168.856297 109.785364,168.631111 C109.785364,168.512592 109.826383,168.420741 109.908422,168.355556 C109.990461,168.29037 110.078359,168.257778 110.172118,168.257778 L110.910466,168.257778 C110.980785,168.257778 111.036454,168.26963 111.077473,168.293333 C111.118493,168.317037 111.174162,168.37037 111.244481,168.453333 C111.514038,168.785187 111.81582,169.045925 112.149836,169.235556 C112.483853,169.425186 112.932131,169.52 113.494685,169.52 C114.127558,169.52 114.634435,169.401483 115.015331,169.164444 C115.396227,168.927406 115.586672,168.583706 115.586672,168.133333 C115.586672,167.837036 115.504634,167.600001 115.340556,167.422222 C115.176478,167.244444 114.903995,167.084445 114.523099,166.942222 C114.142203,166.799999 113.576728,166.645927 112.826656,166.48 C111.807027,166.254814 111.086265,165.928891 110.66435,165.502222 C110.242435,165.075553 110.03148,164.524448 110.03148,163.848889 C110.03148,163.410368 110.160397,162.986669 110.418234,162.577778 C110.676071,162.168887 111.059891,161.837038 111.569706,161.582222 C112.07952,161.327406 112.686014,161.2 113.389207,161.2 C114.127559,161.2 114.757493,161.324443 115.279027,161.573333 C115.800561,161.822223 116.193171,162.112591 116.456868,162.444444 C116.720566,162.776298 116.852412,163.054814 116.852412,163.28 C116.852412,163.386667 116.814323,163.475555 116.738144,163.546667 C116.661965,163.617778 116.571137,163.653333 116.465658,163.653333 L115.797629,163.653333 C115.633551,163.653333 115.516354,163.588149 115.446034,163.457778 C115.246796,163.232591 115.079791,163.057778 114.945012,162.933333 C114.810234,162.808888 114.613929,162.702223 114.356092,162.613333 C114.098254,162.524444 113.775963,162.48 113.389207,162.48 C112.814933,162.48 112.375444,162.60148 112.070728,162.844444 C111.766011,163.087409 111.613655,163.410368 111.613655,163.813333 C111.613655,164.062223 111.678113,164.272592 111.807032,164.444444 C111.93595,164.616297 112.182064,164.776296 112.54538,164.924444 C112.908696,165.072593 113.447802,165.223703 114.162715,165.377778 C115.276103,165.614816 116.064252,165.95259 116.527187,166.391111 C116.990122,166.829632 117.221586,167.392589 117.221586,168.08 C117.221586,168.589632 117.07802,169.05185 116.790883,169.466667 C116.503746,169.881484 116.075977,170.207406 115.507563,170.444444 C114.93915,170.681483 114.262337,170.8 113.477105,170.8 C112.668434,170.8 111.985762,170.666668 111.429068,170.4 Z M119.023508,170.506667 C118.947329,170.429629 118.90924,170.331852 118.90924,170.213333 L118.90924,158.408889 C118.90924,158.278518 118.947329,158.177778 119.023508,158.106667 C119.099687,158.035555 119.196374,158 119.313573,158 L120.12224,158 C120.251159,158 120.350776,158.035555 120.421096,158.106667 C120.491415,158.177778 120.526574,158.278518 120.526574,158.408889 L120.526574,162.551111 C120.86645,162.11259 121.26785,161.777779 121.730785,161.546667 C122.19372,161.315554 122.765055,161.2 123.444808,161.2 C124.569916,161.2 125.445963,161.564441 126.072976,162.293333 C126.69999,163.022226 127.013491,163.985179 127.013491,165.182222 L127.013491,170.213333 C127.013491,170.331852 126.975402,170.429629 126.899223,170.506667 C126.823044,170.583704 126.726357,170.622222 126.609158,170.622222 L125.782911,170.622222 C125.665712,170.622222 125.569025,170.583704 125.492845,170.506667 C125.416666,170.429629 125.378577,170.331852 125.378577,170.213333 L125.378577,165.288889 C125.378577,164.435551 125.173483,163.771854 124.763287,163.297778 C124.353091,162.823701 123.761247,162.586667 122.987735,162.586667 C122.237663,162.586667 121.639959,162.826664 121.194603,163.306667 C120.749248,163.786669 120.526574,164.447403 120.526574,165.288889 L120.526574,170.213333 C120.526574,170.331852 120.488485,170.429629 120.412306,170.506667 C120.336127,170.583704 120.239439,170.622222 120.12224,170.622222 L119.313573,170.622222 C119.196374,170.622222 119.099687,170.583704 119.023508,170.506667 Z M130.740392,169.448889 L130.740392,170.213333 C130.740392,170.331852 130.702303,170.429629 130.626124,170.506667 C130.549945,170.583704 130.453258,170.622222 130.336059,170.622222 L129.597711,170.622222 C129.480512,170.622222 129.383824,170.583704 129.307645,170.506667 C129.231466,170.429629 129.193377,170.331852 129.193377,170.213333 L129.193377,158.408889 C129.193377,158.278518 129.231466,158.177778 129.307645,158.106667 C129.383824,158.035555 129.480512,158 129.597711,158 L130.388798,158 C130.505997,158 130.602684,158.038518 130.678863,158.115556 C130.755043,158.192593 130.793132,158.29037 130.793132,158.408889 L130.793132,162.515556 C131.449445,161.638514 132.39874,161.2 133.641047,161.2 C134.871633,161.2 135.794559,161.605922 136.409853,162.417778 C137.025146,163.229634 137.350368,164.24592 137.385527,165.466667 C137.397247,165.597038 137.403107,165.774814 137.403107,166 C137.403107,166.225186 137.397247,166.402962 137.385527,166.533333 C137.350368,167.75408 137.025146,168.770366 136.409853,169.582222 C135.794559,170.394078 134.871633,170.8 133.641047,170.8 C132.3753,170.8 131.408425,170.349634 130.740392,169.448889 Z M135.152903,168.613333 C135.539659,168.079997 135.750613,167.380745 135.785773,166.515556 C135.797493,166.397036 135.803352,166.225186 135.803352,166 C135.803352,163.724433 134.971254,162.586667 133.307032,162.586667 C132.510081,162.586667 131.897726,162.850368 131.469951,163.377778 C131.042176,163.905188 130.816571,164.530367 130.793132,165.253333 C130.781412,165.383704 130.775552,165.614813 130.775552,165.946667 C130.775552,166.266668 130.781412,166.491851 130.793132,166.622222 C130.816571,167.380745 131.036316,168.035553 131.452371,168.586667 C131.868427,169.137781 132.486641,169.413333 133.307032,169.413333 C134.150863,169.413333 134.766147,169.146669 135.152903,168.613333 Z M139.960957,169.697778 C139.263624,168.962959 138.891524,167.985191 138.844644,166.764444 L138.827065,166 L138.844644,165.235556 C138.891524,164.014809 139.269484,163.037041 139.978536,162.302222 C140.687589,161.567404 141.674973,161.2 142.94072,161.2 C144.206466,161.2 145.19385,161.567404 145.902903,162.302222 C146.611955,163.037041 146.989915,164.014809 147.036795,165.235556 C147.060235,165.496298 147.071954,165.75111 147.071954,166 C147.071954,166.24889 147.060235,166.503702 147.036795,166.764444 C146.989915,167.985191 146.617815,168.962959 145.920482,169.697778 C145.22315,170.432596 144.229906,170.8 142.94072,170.8 C141.651533,170.8 140.658289,170.432596 139.960957,169.697778 Z M144.725061,168.746667 C145.164557,168.266664 145.40188,167.576301 145.43704,166.675556 C145.44876,166.557036 145.45462,166.331854 145.45462,166 C145.45462,165.668146 145.44876,165.442964 145.43704,165.324444 C145.40188,164.423699 145.164557,163.733336 144.725061,163.253333 C144.285566,162.773331 143.690791,162.533333 142.94072,162.533333 C142.190648,162.533333 141.595873,162.773331 141.156378,163.253333 C140.716883,163.733336 140.479559,164.423699 140.444399,165.324444 L140.426819,166 L140.444399,166.675556 C140.479559,167.576301 140.716883,168.266664 141.156378,168.746667 C141.595873,169.226669 142.190648,169.466667 142.94072,169.466667 C143.690791,169.466667 144.285566,169.226669 144.725061,168.746667 Z M149.84076,170.444444 C149.354386,170.207406 148.967636,169.884446 148.680499,169.475556 C148.393362,169.066665 148.249796,168.613336 148.249796,168.115556 C148.249796,167.333329 148.566227,166.693336 149.199101,166.195556 C149.831974,165.697775 150.693371,165.365927 151.78332,165.2 L154.420278,164.826667 L154.420278,164.311111 C154.420278,163.090364 153.722956,162.48 152.328291,162.48 C151.789177,162.48 151.355548,162.589629 151.027392,162.808889 C150.699235,163.028149 150.458981,163.285924 150.306623,163.582222 C150.259744,163.700741 150.209935,163.780741 150.157195,163.822222 C150.104456,163.863704 150.031208,163.884444 149.937449,163.884444 L149.25184,163.884444 C149.146361,163.884444 149.055533,163.845926 148.979354,163.768889 C148.903175,163.691851 148.865086,163.600001 148.865086,163.493333 C148.865086,163.220739 148.991073,162.903706 149.24305,162.542222 C149.495027,162.180739 149.884707,161.866668 150.412101,161.6 C150.939496,161.333332 151.584079,161.2 152.345871,161.2 C153.658497,161.2 154.599002,161.508145 155.167416,162.124444 C155.73583,162.740744 156.020033,163.511106 156.020033,164.435556 L156.020033,170.213333 C156.020033,170.331852 155.981944,170.429629 155.905765,170.506667 C155.829585,170.583704 155.732898,170.622222 155.615699,170.622222 L154.842191,170.622222 C154.724993,170.622222 154.631235,170.583704 154.560916,170.506667 C154.490597,170.429629 154.455437,170.331852 154.455437,170.213333 L154.455437,169.431111 C154.1976,169.822224 153.82257,170.148147 153.330335,170.408889 C152.838101,170.669631 152.205237,170.8 151.431725,170.8 C150.857451,170.8 150.327135,170.681483 149.84076,170.444444 Z M153.68193,168.737778 C154.174164,168.228146 154.420278,167.487412 154.420278,166.515556 L154.420278,166.017778 L152.363451,166.32 C151.51962,166.438519 150.880896,166.639999 150.447261,166.924444 C150.013626,167.20889 149.796811,167.564442 149.796811,167.991111 C149.796811,168.477039 149.993116,168.850369 150.385732,169.111111 C150.778348,169.371853 151.244206,169.502222 151.78332,169.502222 C152.556831,169.502222 153.189695,169.24741 153.68193,168.737778 Z M158.296607,170.506667 C158.220428,170.429629 158.182338,170.331852 158.182338,170.213333 L158.182338,161.804444 C158.182338,161.685925 158.220428,161.585186 158.296607,161.502222 C158.372786,161.419259 158.469473,161.377778 158.586672,161.377778 L159.32502,161.377778 C159.453939,161.377778 159.556486,161.416296 159.632666,161.493333 C159.708845,161.570371 159.746934,161.674073 159.746934,161.804444 L159.746934,162.586667 C160.227449,161.780737 161.041968,161.377778 162.190515,161.377778 L162.876124,161.377778 C163.005043,161.377778 163.10466,161.413333 163.17498,161.484444 C163.245299,161.555556 163.280458,161.656296 163.280458,161.786667 L163.280458,162.444444 C163.280458,162.562964 163.245299,162.66074 163.17498,162.737778 C163.10466,162.814815 163.005043,162.853333 162.876124,162.853333 L161.87408,162.853333 C161.229487,162.853333 160.72261,163.042961 160.353434,163.422222 C159.984258,163.801483 159.799673,164.317034 159.799673,164.968889 L159.799673,170.213333 C159.799673,170.331852 159.758654,170.429629 159.676615,170.506667 C159.594576,170.583704 159.494958,170.622222 159.37776,170.622222 L158.586672,170.622222 C158.469473,170.622222 158.372786,170.583704 158.296607,170.506667 Z M164.783524,169.591111 C164.168231,168.785181 163.837149,167.765932 163.79027,166.533333 L163.77269,166 L163.79027,165.466667 C163.837149,164.24592 164.171161,163.229634 164.792314,162.417778 C165.413467,161.605922 166.333463,161.2 167.55233,161.2 C168.771197,161.2 169.720493,161.638514 170.400245,162.515556 L170.400245,158.408889 C170.400245,158.29037 170.438334,158.192593 170.514513,158.115556 C170.590693,158.038518 170.68738,158 170.804579,158 L171.595666,158 C171.712865,158 171.809553,158.038518 171.885732,158.115556 C171.961911,158.192593 172,158.29037 172,158.408889 L172,170.213333 C172,170.331852 171.961911,170.429629 171.885732,170.506667 C171.809553,170.583704 171.712865,170.622222 171.595666,170.622222 L170.839738,170.622222 C170.72254,170.622222 170.628782,170.583704 170.558463,170.506667 C170.488144,170.429629 170.452984,170.331852 170.452984,170.213333 L170.452984,169.448889 C169.784952,170.349634 168.818077,170.8 167.55233,170.8 C166.321744,170.8 165.398817,170.397041 164.783524,169.591111 Z M169.732216,168.586667 C170.142411,168.035553 170.365086,167.380745 170.400245,166.622222 C170.411965,166.491851 170.417825,166.266668 170.417825,165.946667 C170.417825,165.614813 170.411965,165.383704 170.400245,165.253333 C170.376806,164.530367 170.151201,163.905188 169.723426,163.377778 C169.295651,162.850368 168.683296,162.586667 167.886345,162.586667 C167.042514,162.586667 166.42723,162.853331 166.040474,163.386667 C165.653718,163.920003 165.442764,164.619255 165.407604,165.484444 L165.390025,166 C165.390025,168.275567 166.222123,169.413333 167.886345,169.413333 C168.706736,169.413333 169.32202,169.137781 169.732216,168.586667 Z" id="OpenStack-Dashboard" fill="#007AFF"></path>
        </g>
    </g>
</svg>